<?xml version="1.0" standalone="no"?>
<!DOCTYPE svg PUBLIC "-//W3C//DTD SVG 1.1//EN" "http://www.w3.org/Graphics/SVG/1.1/DTD/svg11.dtd" >
<svg xmlns="http://www.w3.org/2000/svg" xmlns:xlink="http://www.w3.org/1999/xlink" version="1.1">
<metadata>
Created by FontForge 20170731 at Mon Dec  9 13:51:27 2019
 By Aleksey,,,
Copyright (c) 2019 by Cosimo Lorenzo Pancini &#38; Francesco Canovaro. All rights reserved.
</metadata>
<defs>
<font id="CodecPro-Regular" horiz-adv-x="0" >
  <font-face 
    font-family="Codec Pro"
    font-weight="400"
    font-stretch="normal"
    units-per-em="2048"
    panose-1="0 0 5 0 0 0 0 0 0 0"
    ascent="1638"
    descent="-410"
    x-height="1020"
    cap-height="1360"
    bbox="-1252 -1245 4826 2120"
    underline-thickness="97"
    underline-position="-242"
    unicode-range="U+0010-FEFC"
  />
<missing-glyph horiz-adv-x="457" 
 />
    <glyph glyph-name="uniFEF5" unicode="&#xfedf;&#xfe82;" horiz-adv-x="1321" arabic-form="isolated" 
d="M979 1360h177v-1360h-991v160h322l-284 918h182l284 -918h310v1200zM544.5 1253q-55.5 -38 -120.5 -38q-42 0 -80 11t-89 32q-38 16 -60.5 23t-43.5 7q-28 0 -54.5 -18.5t-49.5 -56.5l-72 37q30 61 77.5 95t108.5 34q18 0 38 -3q46 -8 117 -37q42 -16 64.5 -23t45.5 -7
q39 0 73 23t66 77l79 -46q-44 -72 -99.5 -110z" />
    <glyph glyph-name="uniFEF6" unicode="&#xfee0;&#xfe82;" horiz-adv-x="1693" arabic-form="final" 
d="M1367 160h335v-160h-1326v160h322l-284 918h182l284 -918h310v1200h177v-1200zM698.5 1256q-55.5 -38 -120.5 -38q-42 0 -80 11t-89 32q-38 16 -60.5 23t-43.5 7q-28 0 -54.5 -18.5t-49.5 -56.5l-72 37q30 61 77.5 95t108.5 34q18 0 38 -3q46 -8 117 -37q42 -16 64.5 -23
t45.5 -7q39 0 73 23t66 77l79 -46q-44 -72 -99.5 -110z" />
    <glyph glyph-name="uniFEF7" unicode="&#xfedf;&#xfe84;" horiz-adv-x="1321" arabic-form="isolated" 
d="M979 1360h177v-1360h-991v160h322l-284 918h182l284 -918h310v1200zM250.5 1297q-80.5 -3 -228.5 -17v88l173 20q-38 22 -62 65t-24 94q0 91 60 139t169 48h107l-28 -91h-70q-81 0 -116 -26t-35 -92q0 -60 41.5 -98.5t106.5 -38.5h177v-88q-190 0 -270.5 -3z" />
    <glyph glyph-name="uniFEF8" unicode="&#xfee0;&#xfe84;" horiz-adv-x="1713" arabic-form="final" 
d="M1387 160h335v-160h-1326v160h322l-284 918h182l284 -918h310v1200h177v-1200zM413.5 1273q-80.5 -3 -228.5 -17v88l173 20q-38 22 -62 65t-24 94q0 91 60 139t169 48h107l-28 -91h-70q-81 0 -116 -26t-35 -92q0 -60 41.5 -98.5t106.5 -38.5h177v-88q-190 0 -270.5 -3z
" />
    <glyph glyph-name="uniFEF9" unicode="&#xfedf;&#xfe88;" horiz-adv-x="1321" arabic-form="isolated" 
d="M979 1360h177v-1360h-991v160h322l-284 918h182l284 -918h310v1200zM709 -641q-110 0 -181 -4t-184 -20v91l173 24q-37 22 -60 64.5t-23 94.5q0 101 58.5 152t167.5 51h108l-28 -104h-70q-80 0 -115.5 -27t-35.5 -93q0 -60 41.5 -99t106.5 -39h177v-91h-135z" />
    <glyph glyph-name="uniFEFA" unicode="&#xfee0;&#xfe88;" horiz-adv-x="1502" arabic-form="final" 
d="M1176 160h335v-160h-1326v160h322l-284 918h182l284 -918h310v1200h177v-1200zM711 -641q-110 0 -181 -4t-184 -20v91l173 24q-37 22 -60 64.5t-23 94.5q0 101 58.5 152t167.5 51h108l-28 -104h-70q-80 0 -115.5 -27t-35.5 -93q0 -60 41.5 -99t106.5 -39h177v-91h-135z
" />
    <glyph glyph-name="uniFEFB" unicode="&#xfedf;&#xfe8e;" horiz-adv-x="1321" arabic-form="isolated" 
d="M979 1360h177v-1360h-991v160h322l-284 918h182l284 -918h310v1200z" />
    <glyph glyph-name="uniFEFC" unicode="&#xfee0;&#xfe8e;" horiz-adv-x="1502" arabic-form="final" 
d="M1176 160h335v-160h-1326v160h322l-284 918h182l284 -918h310v1200h177v-1200z" />
    <glyph glyph-name="uniFEDFFB51" unicode="&#xfedf;&#xfb51;" horiz-adv-x="1321" 
d="M979 1360h177v-1360h-991v160h322l-284 918h182l284 -918h310v1200zM138 1315q-2 58 23.5 119.5t81 103.5t137.5 42q98 0 144.5 -52t46.5 -154v-151h-305q-94 0 -226 -19v94zM478 1320v48q0 63 -22 92t-78 29q-47 0 -84.5 -24.5t-59 -64t-22.5 -84.5l40 4h226z" />
    <glyph glyph-name="uniFEE0FB51" unicode="&#xfee0;&#xfb51;" horiz-adv-x="1430" 
d="M214 1227q-94 0 -226 -19v94l99 17q-3 58 22.5 119.5t81 103.5t137.5 42q99 0 145.5 -52t46.5 -154v-151h-306zM201 1324h225v48q0 63 -21.5 92t-77.5 29q-47 0 -84.5 -24t-59 -64t-22.5 -85zM1116 160h323v-160h-1315v160h323l-284 918h182l284 -918h310v1200h177v-1200
z" />
    <glyph glyph-name="uni066E.init" unicode="&#x66e;" horiz-adv-x="660" 
d="M-10 160h328v857h177v-1017h-505v160z" />
    <glyph glyph-name="uni066E.medi" unicode="&#x66e;" horiz-adv-x="813" 
d="M-10 160h328v857h177v-857h327v-160h-832v160z" />
    <glyph glyph-name="uni066E.fina" unicode="&#x66e;" horiz-adv-x="2078" 
d="M2088 160v-160h-1395q-152 0 -272.5 72.5t-188 193.5t-67.5 261q0 102 41 203t125 182l125 -98q-54 -57 -83 -129t-29 -151q0 -100 48 -186t136 -137t202 -51h853v857h177v-857h328z" />
    <glyph glyph-name="uni066F.fina" unicode="&#x66f;" horiz-adv-x="2042" 
d="M2061 0h-332q-1 -132 -60.5 -228.5t-170 -148t-261.5 -51.5h-566q-158 0 -283.5 71t-196.5 193t-71 270q0 104 41 207t121 184l113 -115q-48 -54 -75 -124t-27 -151q0 -103 48.5 -189t135.5 -136t196 -50h550q102 0 175.5 33t113 93.5t40.5 141.5h-256
q-142 0 -259.5 70.5t-186 191t-68.5 265.5q0 135 68 247.5t185.5 177.5t258.5 65h434v-174h1v-683h332v-160zM1551 866h-258q-92 0 -169 -46t-121.5 -124.5t-44.5 -172.5q0 -102 44.5 -185t121.5 -130.5t170 -47.5h257v706z" />
    <glyph glyph-name="uni06A1.init" unicode="&#x6a1;" horiz-adv-x="1280" 
d="M1115 1017v-1017h-1154v160h351q-68 72 -105.5 166.5t-37.5 200.5q0 135 68 247.5t185.5 177.5t258.5 65h434zM938 160v706h-258q-92 0 -169 -46t-121.5 -124.5t-44.5 -172.5q0 -102 44.5 -185t121.5 -130.5t170 -47.5h257z" />
    <glyph glyph-name="uni06A1.medi" unicode="&#x6a1;" horiz-adv-x="1390" 
d="M1399 160v-160h-1438v160h350q-68 72 -105.5 166.5t-37.5 200.5q0 135 68 247.5t185.5 177.5t258.5 65h434v-857h285zM937 160v706h-258q-92 0 -169 -46t-121.5 -124.5t-44.5 -172.5q0 -102 44.5 -185t121.5 -130.5t170 -47.5h257z" />
    <glyph glyph-name="uni06A1.fina" unicode="&#x6a1;" horiz-adv-x="2211" 
d="M2220 160v-160h-1612q-152 0 -273 72t-188.5 193.5t-67.5 261.5q0 102 41.5 203t125.5 182l125 -98q-54 -57 -83.5 -129.5t-29.5 -150.5q0 -100 48 -186t136 -137t202 -51h444q-68 72 -105.5 166.5t-37.5 200.5q0 135 68 247.5t185.5 177.5t258.5 65h434v-857h329z
M1714 866h-258q-92 0 -169 -46t-121.5 -124.5t-44.5 -172.5q0 -102 44.5 -185t121.5 -130.5t170 -47.5h257v706z" />
    <glyph glyph-name="uni06C2.fina" unicode="&#x6c2;" horiz-adv-x="742" 
d="M611.5 38q-52.5 38 -87.5 137q-28 75 -55.5 108t-71.5 33q-42 0 -76 -38.5t-75 -131.5l-40 -89l-127 46l50 115q55 126 120 186t152 60q67 0 112 -36.5t82 -114.5q37 -74 69 -113.5t76 -39.5q11 0 11 -11v-138q0 -11 -11 -11q-76 0 -128.5 38zM380.5 653
q-80.5 -3 -228.5 -17v88l173 20q-38 22 -62 65t-24 94q0 91 60 139t169 48h107l-28 -91h-70q-81 0 -116 -26t-35 -92q0 -60 41.5 -98.5t106.5 -38.5h177v-88q-190 0 -270.5 -3z" />
    <glyph glyph-name="uni06C3.fina" unicode="&#x6c3;" horiz-adv-x="742" 
d="M611.5 38q-52.5 38 -87.5 137q-28 75 -55.5 108t-71.5 33q-42 0 -76 -38.5t-75 -131.5l-40 -89l-127 46l50 115q55 126 120 186t152 60q67 0 112 -36.5t82 -114.5q37 -74 69 -113.5t76 -39.5q11 0 11 -11v-138q0 -11 -11 -11q-76 0 -128.5 38zM465.5 634
q-27.5 29 -27.5 71t27.5 71t73.5 29q45 0 73 -29t28 -71t-28 -71t-74 -29q-45 0 -72.5 29zM190.5 631.5q-27.5 28.5 -27.5 71.5q0 42 27 71t73 29q45 0 73 -29t28 -71t-28 -71t-73 -29t-72.5 28.5z" />
    <glyph glyph-name="uniFB51" unicode="&#x671;" horiz-adv-x="560" arabic-form="final" 
d="M342 160h209v-160h-386v1360h177v-1200zM87 1665q-2 58 23.5 119.5t81 103.5t137.5 42q98 0 144.5 -52t46.5 -154v-151h-305q-94 0 -226 -19v94zM427 1670v48q0 63 -22 92t-78 29q-47 0 -84.5 -24.5t-59 -64t-22.5 -84.5l40 4h226z" />
    <glyph glyph-name="uniFB57" unicode="&#x67e;" horiz-adv-x="2078" arabic-form="final" 
d="M2088 160v-160h-1395q-152 0 -272.5 72.5t-188 193.5t-67.5 261q0 102 41 203t125 182l125 -98q-54 -57 -83 -129t-29 -151q0 -100 48 -186t136 -137t202 -51h853v857h177v-857h328zM791.5 -290.5q-27.5 28.5 -27.5 71.5q0 42 27 71t73 29q45 0 73 -29t28 -71t-28 -71
t-73 -29t-72.5 28.5zM1073.5 -290.5q-27.5 28.5 -27.5 71.5q0 42 27 71t73 29q45 0 73 -29t28 -71t-28 -71t-73 -29t-72.5 28.5zM931 -515q-28 29 -28 71t27.5 70.5t73.5 28.5q45 0 73 -28.5t28 -70.5t-28 -71t-73 -29t-73 29z" />
    <glyph glyph-name="uniFB58" unicode="&#x67e;" horiz-adv-x="660" arabic-form="initial" 
d="M-10 160h328v857h177v-1017h-505v160zM146.5 -290.5q-27.5 28.5 -27.5 71.5q0 42 27 71t73 29q45 0 73 -29t28 -71t-28 -71t-73 -29t-72.5 28.5zM428.5 -290.5q-27.5 28.5 -27.5 71.5q0 42 27 71t73 29q45 0 73 -29t28 -71t-28 -71t-73 -29t-72.5 28.5zM286 -515
q-28 29 -28 71t27.5 70.5t73.5 28.5q45 0 73 -28.5t28 -70.5t-28 -71t-73 -29t-73 29z" />
    <glyph glyph-name="uniFB59" unicode="&#x67e;" horiz-adv-x="813" arabic-form="medial" 
d="M-10 160h328v857h177v-857h327v-160h-832v160zM188.5 -290.5q-27.5 28.5 -27.5 71.5q0 42 27 71t73 29q45 0 73 -29t28 -71t-28 -71t-73 -29t-72.5 28.5zM470.5 -290.5q-27.5 28.5 -27.5 71.5q0 42 27 71t73 29q45 0 73 -29t28 -71t-28 -71t-73 -29t-72.5 28.5zM328 -515
q-28 29 -28 71t27.5 70.5t73.5 28.5q45 0 73 -28.5t28 -70.5t-28 -71t-73 -29t-73 29z" />
    <glyph glyph-name="uniFB67" unicode="&#x679;" horiz-adv-x="2078" arabic-form="final" 
d="M2088 160v-160h-1395q-152 0 -272.5 72.5t-188 193.5t-67.5 261q0 102 41 203t125 182l125 -98q-54 -57 -83 -129t-29 -151q0 -100 48 -186t136 -137t202 -51h853v857h177v-857h328zM1203.5 1265.5q30.5 -34.5 30.5 -91.5q0 -74 -53 -112t-157 -38h-217q-4 0 -4 5v80
q0 5 5 5h37l13 14v270h58v-211q56 55 102 84t85 29q70 0 100.5 -34.5zM1159 1187q0 24 -17 38t-50 14q-35 0 -77.5 -30.5t-101.5 -94.5h95q151 0 151 73z" />
    <glyph glyph-name="uniFB68" unicode="&#x679;" horiz-adv-x="660" arabic-form="initial" 
d="M-10 160h328v857h177v-1017h-505v160zM599.5 1377.5q30.5 -34.5 30.5 -91.5q0 -74 -53 -112t-157 -38h-217q-4 0 -4 5v80q0 5 5 5h37l13 14v270h58v-211q56 55 102 84t85 29q70 0 100.5 -34.5zM555 1299q0 24 -17 38t-50 14q-35 0 -77.5 -30.5t-101.5 -94.5h95
q151 0 151 73z" />
    <glyph glyph-name="uniFB69" unicode="&#x679;" horiz-adv-x="813" arabic-form="medial" 
d="M-10 160h328v857h177v-857h327v-160h-832v160zM605.5 1377.5q30.5 -34.5 30.5 -91.5q0 -74 -53 -112t-157 -38h-217q-4 0 -4 5v80q0 5 5 5h37l13 14v270h58v-211q56 55 102 84t85 29q70 0 100.5 -34.5zM561 1299q0 24 -17 38t-50 14q-35 0 -77.5 -30.5t-101.5 -94.5h95
q151 0 151 73z" />
    <glyph glyph-name="uniFB6B" unicode="&#x6a4;" horiz-adv-x="2211" arabic-form="final" 
d="M2220 160v-160h-1612q-152 0 -273 72t-188.5 193.5t-67.5 261.5q0 102 41.5 203t125.5 182l125 -98q-54 -57 -83.5 -129.5t-29.5 -150.5q0 -100 48 -186t136 -137t202 -51h444q-68 72 -105.5 166.5t-37.5 200.5q0 135 68 247.5t185.5 177.5t258.5 65h434v-857h329z
M1714 866h-258q-92 0 -169 -46t-121.5 -124.5t-44.5 -172.5q0 -102 44.5 -185t121.5 -130.5t170 -47.5h257v706zM1405.5 1407q-27.5 29 -27.5 71t27.5 70.5t73.5 28.5q45 0 73 -28.5t28 -70.5t-28 -71t-74 -29q-45 0 -72.5 29zM1272 1171.5q-28 28.5 -28 70.5
q0 43 27.5 71.5t73.5 28.5q45 0 73 -29t28 -71t-28 -70.5t-73 -28.5t-73 28.5zM1547.5 1171.5q-27.5 28.5 -27.5 70.5q0 43 27.5 71.5t73.5 28.5q45 0 73 -29t28 -71t-28 -70.5t-74 -28.5q-45 0 -72.5 28.5z" />
    <glyph glyph-name="uniFB6C" unicode="&#x6a4;" horiz-adv-x="1284" arabic-form="initial" 
d="M1115 1017v-1017h-1154v160h351q-68 72 -105.5 166.5t-37.5 200.5q0 135 68 247.5t185.5 177.5t258.5 65h434zM938 160v706h-258q-92 0 -169 -46t-121.5 -124.5t-44.5 -172.5q0 -102 44.5 -185t121.5 -130.5t170 -47.5h257zM581.5 1403q-27.5 29 -27.5 71t27.5 70.5
t73.5 28.5q45 0 73 -28.5t28 -70.5t-28 -71t-74 -29q-45 0 -72.5 29zM448 1167.5q-28 28.5 -28 70.5q0 43 27.5 71.5t73.5 28.5q45 0 73 -29t28 -71t-28 -70.5t-73 -28.5t-73 28.5zM723.5 1167.5q-27.5 28.5 -27.5 70.5q0 43 27.5 71.5t73.5 28.5q45 0 73 -29t28 -71
t-28 -70.5t-74 -28.5q-45 0 -72.5 28.5z" />
    <glyph glyph-name="uniFB6D" unicode="&#x6a4;" horiz-adv-x="1390" arabic-form="medial" 
d="M1399 160v-160h-1438v160h350q-68 72 -105.5 166.5t-37.5 200.5q0 135 68 247.5t185.5 177.5t258.5 65h434v-857h285zM937 160v706h-258q-92 0 -169 -46t-121.5 -124.5t-44.5 -172.5q0 -102 44.5 -185t121.5 -130.5t170 -47.5h257zM571.5 1403q-27.5 29 -27.5 71
t27.5 70.5t73.5 28.5q45 0 73 -28.5t28 -70.5t-28 -71t-74 -29q-45 0 -72.5 29zM438 1167.5q-28 28.5 -28 70.5q0 43 27.5 71.5t73.5 28.5q45 0 73 -29t28 -71t-28 -70.5t-73 -28.5t-73 28.5zM713.5 1167.5q-27.5 28.5 -27.5 70.5q0 43 27.5 71.5t73.5 28.5q45 0 73 -29
t28 -71t-28 -70.5t-74 -28.5q-45 0 -72.5 28.5z" />
    <glyph glyph-name="uniFB7B" unicode="&#x686;" horiz-adv-x="1362" arabic-form="final" 
d="M1111 335.5q38 -79.5 100.5 -127t159.5 -48.5v-160q-145 1 -242.5 71.5t-163.5 200.5q-66 95 -157 140t-207 45q-115 0 -211.5 -53.5t-154.5 -149t-62 -214.5q-1 -96 54 -178l-153 -13q-61 93 -60 206q7 153 88 279t212.5 198.5t285.5 72.5l30 -1q125 -5 234 -56
q-37 117 -83.5 193t-118 117.5t-177.5 41.5q-82 0 -158 -28.5t-128 -74.5l-86 109q79 71 180 107t202 36q164 0 266.5 -59.5t161.5 -166t112 -280.5q38 -128 76 -207.5zM566 -14.5q-26 -26.5 -68 -26.5t-67.5 26.5t-25.5 65.5t25.5 65.5t67.5 26.5t68 -26.5t26 -65.5
t-26 -65.5zM827 116.5q26 -26.5 26 -65.5t-26 -65.5t-68 -26.5t-67.5 26.5t-25.5 65.5t25.5 65.5t67.5 26.5t68 -26.5zM695.5 -92q26.5 -27 26.5 -65q0 -39 -26.5 -66t-68.5 -27t-67 27t-25 66t25.5 65.5t67.5 26.5q41 0 67.5 -27z" />
    <glyph glyph-name="uniFB7C" unicode="&#x686;" horiz-adv-x="1545" arabic-form="initial" 
d="M1380 160v-160h-1390v160h1066q-109 126 -171 350q-36 130 -83 212t-121.5 125.5t-187.5 43.5q-82 0 -158.5 -28t-128.5 -74l-86 109q80 70 181.5 106.5t201.5 36.5q167 0 269.5 -56.5t161.5 -160t109 -275.5q37 -133 75 -214.5t99.5 -128t158.5 -46.5h4zM347.5 -290.5
q-27.5 28.5 -27.5 71.5q0 42 27 71t73 29q45 0 73 -29t28 -71t-28 -71t-73 -29t-72.5 28.5zM629.5 -290.5q-27.5 28.5 -27.5 71.5q0 42 27 71t73 29q45 0 73 -29t28 -71t-28 -71t-73 -29t-72.5 28.5zM487 -515q-28 29 -28 71t27.5 70.5t73.5 28.5q45 0 73 -28.5t28 -70.5
t-28 -71t-73 -29t-73 29z" />
    <glyph glyph-name="uniFB7D" unicode="&#x686;" horiz-adv-x="1371" arabic-form="medial" 
d="M1380 160v-160h-1390v160h1069q-110 128 -174 358q-36 129 -82.5 209t-121 122t-188.5 42q-82 0 -158.5 -28t-128.5 -74l-86 109q80 70 181.5 106.5t201.5 36.5q167 0 268.5 -56.5t159.5 -159t112 -276.5q38 -132 75.5 -212.5t99.5 -128.5t158 -48h4zM312.5 -290.5
q-27.5 28.5 -27.5 71.5q0 42 27 71t73 29q45 0 73 -29t28 -71t-28 -71t-73 -29t-72.5 28.5zM594.5 -290.5q-27.5 28.5 -27.5 71.5q0 42 27 71t73 29q45 0 73 -29t28 -71t-28 -71t-73 -29t-72.5 28.5zM452 -515q-28 29 -28 71t27.5 70.5t73.5 28.5q45 0 73 -28.5t28 -70.5
t-28 -71t-73 -29t-73 29z" />
    <glyph glyph-name="uniFB89" unicode="&#x688;" horiz-adv-x="1281" arabic-form="final" 
d="M1290 160v-160h-1211v160h891q-25 172 -99.5 323.5t-188.5 261t-251 160.5l82 141q167 -60 302 -191t221.5 -311t112.5 -384h141zM837.5 1397.5q30.5 -34.5 30.5 -91.5q0 -74 -53 -112t-157 -38h-217q-4 0 -4 5v80q0 5 5 5h37l13 14v270h58v-211q56 55 102 84t85 29
q70 0 100.5 -34.5zM793 1319q0 24 -17 38t-50 14q-35 0 -77.5 -30.5t-101.5 -94.5h95q151 0 151 73z" />
    <glyph glyph-name="uniFB8B" unicode="&#x698;" horiz-adv-x="746" arabic-form="final" 
d="M755 0h-317q-1 -169 -83.5 -259.5t-244.5 -90.5h-108v168h89q83 0 129 55t46 144v1003h172v-860h317v-160zM284.5 1399q-27.5 29 -27.5 71t27.5 70.5t73.5 28.5q45 0 73 -28.5t28 -70.5t-28 -71t-74 -29q-45 0 -72.5 29zM151 1163.5q-28 28.5 -28 70.5q0 43 27.5 71.5
t73.5 28.5q45 0 73 -29t28 -71t-28 -70.5t-73 -28.5t-73 28.5zM426.5 1163.5q-27.5 28.5 -27.5 70.5q0 43 27.5 71.5t73.5 28.5q45 0 73 -29t28 -71t-28 -70.5t-74 -28.5q-45 0 -72.5 28.5z" />
    <glyph glyph-name="uniFB8D" unicode="&#x691;" horiz-adv-x="746" arabic-form="final" 
d="M755 0h-317q-1 -169 -83.5 -259.5t-244.5 -90.5h-108v168h89q83 0 129 55t46 144v1003h172v-860h317v-160zM556.5 1377.5q30.5 -34.5 30.5 -91.5q0 -74 -53 -112t-157 -38h-217q-4 0 -4 5v80q0 5 5 5h37l13 14v270h58v-211q56 55 102 84t85 29q70 0 100.5 -34.5z
M512 1299q0 24 -17 38t-50 14q-35 0 -77.5 -30.5t-101.5 -94.5h95q151 0 151 73z" />
    <glyph glyph-name="uniFB8F" unicode="&#x6a9;" horiz-adv-x="1947" arabic-form="final" 
d="M1957 160v-160h-1329q-152 0 -273 72t-188.5 193.5t-67.5 261.5q0 102 41.5 203t125.5 182l125 -98q-54 -57 -83.5 -129.5t-29.5 -150.5q0 -100 48 -186t136 -137t202 -51h958v232q0 83 -38.5 145t-109 95.5t-163.5 33.5h-511v151h1q31 170 140.5 304t279 213t373.5 87
l32 -154q-164 -8 -302 -65t-234.5 -156t-138.5 -229h359q143 0 254 -52.5t173 -148.5t62 -220v-236h158z" />
    <glyph glyph-name="uniFB90" unicode="&#x6a9;" horiz-adv-x="1304" arabic-form="initial" 
d="M884 764.5q111 -52.5 173 -148.5t62 -220v-396h-1129v160h952v232q0 83 -38.5 145t-109 95.5t-163.5 33.5h-511v151h1q31 170 140.5 304t279 213t374.5 87l31 -154q-163 -8 -301.5 -65t-235 -156t-138.5 -229h359q143 0 254 -52.5z" />
    <glyph glyph-name="uniFB91" unicode="&#x6a9;" horiz-adv-x="1268" arabic-form="medial" 
d="M1277 160v-160h-1287v160h952v232q0 83 -38.5 145t-109 95.5t-163.5 33.5h-511v151h1q31 170 140.5 304t279 213t374.5 87l31 -154q-163 -8 -301.5 -65t-235 -156t-138.5 -229h359q143 0 254 -52.5t173 -148.5t62 -220v-236h158z" />
    <glyph glyph-name="uniFB93" unicode="&#x6af;" horiz-adv-x="1947" arabic-form="final" 
d="M1957 160v-160h-1329q-152 0 -273 72t-188.5 193.5t-67.5 261.5q0 102 41.5 203t125.5 182l125 -98q-54 -57 -83.5 -129.5t-29.5 -150.5q0 -100 48 -186t136 -137t202 -51h958v232q0 83 -38.5 145t-109 95.5t-163.5 33.5h-511v151h1q31 170 140.5 304t279 213t373.5 87
l32 -154q-164 -8 -302 -65t-234.5 -156t-138.5 -229h359q143 0 254 -52.5t173 -148.5t62 -220v-236h158zM935.5 1326.5q-110.5 -88.5 -181.5 -201t-90 -233.5l-62 15q20 129 96.5 251.5t194 218.5t257.5 151l29 -62q-133 -51 -243.5 -139.5z" />
    <glyph glyph-name="uniFB94" unicode="&#x6af;" horiz-adv-x="1304" arabic-form="initial" 
d="M884 764.5q111 -52.5 173 -148.5t62 -220v-396h-1129v160h952v232q0 83 -38.5 145t-109 95.5t-163.5 33.5h-511v151h1q31 170 140.5 304t279 213t374.5 87l31 -154q-163 -8 -301.5 -65t-235 -156t-138.5 -229h359q143 0 254 -52.5zM265.5 1326.5
q-110.5 -88.5 -181.5 -201t-90 -233.5l-62 15q20 129 96.5 251.5t194 218.5t257.5 151l29 -62q-133 -51 -243.5 -139.5z" />
    <glyph glyph-name="uniFB95" unicode="&#x6af;" horiz-adv-x="1268" arabic-form="medial" 
d="M1277 160v-160h-1287v160h952v232q0 83 -38.5 145t-109 95.5t-163.5 33.5h-511v151h1q31 170 140.5 304t279 213t374.5 87l31 -154q-163 -8 -301.5 -65t-235 -156t-138.5 -229h359q143 0 254 -52.5t173 -148.5t62 -220v-236h158zM290.5 1326.5q-110.5 -88.5 -181.5 -201
t-90 -233.5l-62 15q20 129 96.5 251.5t194 218.5t257.5 151l29 -62q-133 -51 -243.5 -139.5z" />
    <glyph glyph-name="uniFB9F" unicode="&#x6ba;" horiz-adv-x="1522" arabic-form="final" 
d="M1531 160v-160h-345v28q-9 -151 -85 -256t-199 -157t-272 -52h-1q-157 1 -282.5 74t-196.5 197t-71 272q0 104 41 207t121 184l114 -115q-49 -53 -75.5 -123.5t-26.5 -151.5q0 -107 48 -195t134 -138.5t195 -50.5q103 0 189 37t138 114t52 191v778h178v-683h344z" />
    <glyph glyph-name="uniFBA7" unicode="&#x6c1;" horiz-adv-x="742" arabic-form="final" 
d="M611.5 38q-52.5 38 -87.5 137q-28 75 -55.5 108t-71.5 33q-42 0 -76 -38.5t-75 -131.5l-40 -89l-127 46l50 115q55 126 120 186t152 60q67 0 112 -36.5t82 -114.5q37 -74 69 -113.5t76 -39.5q11 0 11 -11v-138q0 -11 -11 -11q-76 0 -128.5 38z" />
    <glyph glyph-name="uniFBA8" unicode="&#x6c1;" horiz-adv-x="660" arabic-form="initial" 
d="M318 160v857h177v-1017h-505v160h328zM528 -127l-82 -283h-158l115 289z" />
    <glyph glyph-name="uniFBA9" unicode="&#x6c1;" horiz-adv-x="1037" arabic-form="medial" 
d="M238.5 47.5q-97.5 -47.5 -217.5 -47.5h-31v159h32q107 0 187 42.5t122.5 117t42.5 170.5v22l176 1l16 -502q59 72 156.5 110.5t223.5 38.5h77v-160h-78q-109 0 -188 -37.5t-121.5 -108.5t-42.5 -168v-33h-177l-18 518q-62 -75 -159.5 -122.5zM1018 -193l-82 -284h-158
l114 289z" />
    <glyph glyph-name="uniFBAB" unicode="&#x6be;" horiz-adv-x="1725" arabic-form="final" 
d="M1734 160v-160h-1655v160l306 -1q-38 49 -58 109.5t-20 127.5q0 119 58 218.5t161.5 158t233.5 58.5q137 0 239 -52.5t157.5 -148.5t56.5 -224v-248l176 -1v3h5v253q0 175 -70 307.5t-195.5 205.5t-289.5 74v169q217 0 382.5 -90t256.5 -256t91 -386v-277h165zM1039 158
v243q0 128 -74.5 200.5t-205.5 72.5q-81 0 -146 -34.5t-102 -96.5t-37 -142q0 -78 32.5 -141t91.5 -101z" />
    <glyph glyph-name="uniFBAC" unicode="&#x6be;" horiz-adv-x="1665" arabic-form="initial" 
d="M1480 0h-1490v160l306 -1q-38 49 -58 109.5t-20 127.5q0 119 58 218.5t161 158t233 58.5q137 0 239 -52.5t157.5 -148.5t57.5 -224v-248l180 -1v256q0 176 -69.5 308t-195.5 205t-290 74v169q217 0 383 -90t257 -256t91 -386v-437zM950 158v243q0 128 -75 200.5
t-206 72.5q-81 0 -145.5 -34.5t-101.5 -96.5t-37 -142q0 -78 32.5 -141t90.5 -101z" />
    <glyph glyph-name="uniFBAD" unicode="&#x6be;" horiz-adv-x="1622" arabic-form="medial" 
d="M1631 160v-160h-1641v160l306 -1q-38 49 -58 109.5t-20 127.5q0 119 58 218.5t161 158t233 58.5q137 0 239 -52.5t157.5 -148.5t57.5 -224v-248l163 -1v3h17v253q0 176 -69.5 308t-195.5 205t-290 74v169q217 0 383 -90t257 -256t91 -386v-277h151zM950 158v243
q0 128 -75 200.5t-206 72.5q-81 0 -145.5 -34.5t-101.5 -96.5t-37 -142q0 -78 32.5 -141t90.5 -101z" />
    <glyph glyph-name="uniFBAF" unicode="&#x6d2;" horiz-adv-x="1109" arabic-form="final" 
d="M1118 0h-830q-54 0 -90.5 -31t-36.5 -79q0 -47 37.5 -77.5t93.5 -30.5h488l-32 -162h-454q-85 0 -148.5 37.5t-98 100.5t-34.5 136q0 74 36.5 133t100 91.5t140.5 32.5h828v-151z" />
    <glyph glyph-name="uniFBB1" unicode="&#x6d3;" horiz-adv-x="1109" arabic-form="final" 
d="M1118 0h-830q-54 0 -90.5 -31t-36.5 -79q0 -47 37.5 -77.5t93.5 -30.5h488l-32 -162h-454q-85 0 -148.5 37.5t-98 100.5t-34.5 136q0 74 36.5 133t100 91.5t140.5 32.5h828v-151zM355.5 343q-80.5 -3 -228.5 -17v88l173 20q-38 22 -62 65t-24 94q0 91 60 139t169 48h107
l-28 -91h-70q-81 0 -116 -26t-35 -92q0 -60 41.5 -98.5t106.5 -38.5h177v-88q-190 0 -270.5 -3z" />
    <glyph glyph-name="uniFBFD" unicode="&#x6cc;" horiz-adv-x="2059" arabic-form="final" 
d="M206 313q41 102 120 184l114 -115q-50 -55 -76.5 -125t-26.5 -147q0 -99 47.5 -188t134 -144t197.5 -55h429q338 0 338 236v41h-223v160h579v-160h-179v-45q0 -121 -55 -208.5t-165.5 -135t-272.5 -47.5h-451q-158 0 -284 73t-196.5 198t-70.5 273q0 103 41 205z" />
    <glyph glyph-name="uniFBFE" unicode="&#x6cc;" horiz-adv-x="660" arabic-form="initial" 
d="M-10 160h328v857h177v-1017h-505v160zM128 -379q-28 29 -28 71t27.5 71t73.5 29q45 0 73 -29t28 -71t-28 -71t-73 -29t-73 29zM404 -379q-28 29 -28 71t27.5 71t73.5 29q45 0 73 -29t28 -71t-28 -71t-73 -29t-73 29z" />
    <glyph glyph-name="uniFBFF" unicode="&#x6cc;" horiz-adv-x="813" arabic-form="medial" 
d="M-10 160h328v857h177v-857h327v-160h-832v160zM187 -381q-28 29 -28 71t27.5 71t73.5 29q45 0 73 -29t28 -71t-28 -71t-73 -29t-73 29zM463 -381q-28 29 -28 71t27.5 71t73.5 29q45 0 73 -29t28 -71t-28 -71t-73 -29t-73 29z" />
    <glyph glyph-name="uniFC03" unicode="&#xfc03;" horiz-adv-x="2165" arabic-form="isolated" 
d="M2106 1209q-190 0 -270.5 -3t-228.5 -17v88l173 20q-38 22 -62 65t-24 94q0 91 60 139t169 48h107l-28 -91h-70q-81 0 -116 -26t-35 -92q0 -60 41.5 -98.5t106.5 -38.5h177v-88zM2139 162v-162h-78q-52 0 -113 9v-9h-314q1 -12 1 -39q-2 -184 -126.5 -287.5
t-366.5 -103.5h-426q-158 0 -284 73t-196.5 198t-70.5 273q0 103 41 205t120 184l114 -115q-50 -55 -76.5 -125t-26.5 -147q0 -102 47.5 -190.5t134 -142t197.5 -53.5h405q119 0 193 24t108.5 73.5t36.5 129.5q0 26 -4 43h-12v37q-18 36 -53 63t-77 45t-110 42
q-104 37 -168.5 71t-110 97t-45.5 163q0 113 54.5 199.5t153.5 135t229 48.5q124 0 197.5 -51t109 -124.5t72.5 -197.5q23 -74 38.5 -117.5t37.5 -83.5v690h177v-840q53 -15 109 -15h82zM1084.5 420q34.5 -42 86.5 -67.5t140 -56.5q95 -35 153 -63.5t100 -72.5h121
q-41 55 -64.5 119t-50.5 164q-28 106 -52.5 164.5t-73 97.5t-131.5 39q-82 0 -141.5 -29t-90.5 -78.5t-31 -110.5q0 -64 34.5 -106z" />
    <glyph glyph-name="uniFC04" unicode="&#xfc04;" horiz-adv-x="2165" arabic-form="isolated" 
d="M2106 1209q-190 0 -270.5 -3t-228.5 -17v88l173 20q-38 22 -62 65t-24 94q0 91 60 139t169 48h107l-28 -91h-70q-81 0 -116 -26t-35 -92q0 -60 41.5 -98.5t106.5 -38.5h177v-88zM2139 162v-162h-78q-52 0 -113 9v-9h-314q1 -12 1 -39q-2 -184 -126.5 -287.5
t-366.5 -103.5h-426q-158 0 -284 73t-196.5 198t-70.5 273q0 103 41 205t120 184l114 -115q-50 -55 -76.5 -125t-26.5 -147q0 -102 47.5 -190.5t134 -142t197.5 -53.5h405q119 0 193 24t108.5 73.5t36.5 129.5q0 26 -4 43h-12v37q-18 36 -53 63t-77 45t-110 42
q-104 37 -168.5 71t-110 97t-45.5 163q0 113 54.5 199.5t153.5 135t229 48.5q124 0 197.5 -51t109 -124.5t72.5 -197.5q23 -74 38.5 -117.5t37.5 -83.5v690h177v-840q53 -15 109 -15h82zM1084.5 420q34.5 -42 86.5 -67.5t140 -56.5q95 -35 153 -63.5t100 -72.5h121
q-41 55 -64.5 119t-50.5 164q-28 106 -52.5 164.5t-73 97.5t-131.5 39q-82 0 -141.5 -29t-90.5 -78.5t-31 -110.5q0 -64 34.5 -106zM857 -667.5q28 -28.5 28 -70.5q0 -43 -27.5 -71.5t-73.5 -28.5t-73.5 28.5t-27.5 71.5q0 42 27.5 70.5t73.5 28.5q45 0 73 -28.5z
M1133 -667.5q28 -28.5 28 -70.5q0 -43 -27.5 -71.5t-73.5 -28.5t-73.5 28.5t-27.5 71.5q0 42 27.5 70.5t73.5 28.5q45 0 73 -28.5z" />
    <glyph glyph-name="uniFC31" unicode="&#xfc31;" horiz-adv-x="2927" arabic-form="isolated" 
d="M2312.5 1197.5q-27.5 28.5 -27.5 70.5q0 43 27.5 71.5t73.5 28.5q45 0 73 -29t28 -71t-28 -70.5t-74 -28.5q-45 0 -72.5 28.5zM2791 1017v-1017h-1131v-45q0 -121 -55 -208.5t-165.5 -135t-272.5 -47.5h-451q-158 0 -284 73t-196.5 198t-70.5 273q0 103 41 205t120 184
l114 -115q-50 -55 -76.5 -125t-26.5 -147q0 -99 47.5 -188t134 -144t197.5 -55h429q338 0 338 236v41h-223v160h728q-68 72 -105.5 166.5t-37.5 200.5q0 135 68 247.5t185.5 177.5t258.5 65h434zM2614 160v706h-258q-92 0 -169 -46t-121.5 -124.5t-44.5 -172.5
q0 -102 44.5 -185t121.5 -130.5t170 -47.5h257z" />
    <glyph glyph-name="uniFC3D" unicode="&#xfc3d;" horiz-adv-x="3542" arabic-form="isolated" 
d="M3123 764.5q111 -52.5 173 -148.5t62 -220v-396h-1555v845l-496 -105q-95 -25 -154.5 -52t-93 -69t-33.5 -105q0 -66 34.5 -109t85.5 -69t139 -58q102 -38 164 -71t105.5 -94.5t43.5 -157.5q0 -183 -121.5 -284t-363.5 -101h-397q-158 0 -284 73t-196.5 198t-70.5 273
q0 102 40.5 201.5t120.5 181.5l114 -115q-103 -114 -103 -266q0 -102 47.5 -193t134 -146.5t197.5 -55.5h375q119 0 191.5 24.5t105.5 75t33 130.5q0 61 -32.5 101.5t-81 64.5t-133.5 55q-102 37 -165.5 71t-108 98t-44.5 165q0 169 115 258t339 129l670 124v-865h249v8h952
v232q0 83 -38.5 145t-109 95.5t-163.5 33.5h-511v151h1q31 170 140.5 304t279 213t373.5 87l32 -154q-164 -8 -302.5 -65t-235 -156t-138.5 -229h360q143 0 254 -52.5z" />
    <glyph glyph-name="uniFC3E" unicode="&#xfc3e;" horiz-adv-x="3517" arabic-form="isolated" 
d="M3332 1h-1024v-1h-505v845l-496 -105q-95 -25 -154.5 -52t-93 -69t-33.5 -105q0 -66 34.5 -109t85.5 -69t139 -58q102 -38 164 -71t105.5 -94.5t43.5 -157.5q0 -183 -121.5 -284t-363.5 -101h-397q-158 0 -284 73t-196.5 198t-70.5 273q0 102 40.5 201.5t120.5 181.5
l114 -115q-103 -114 -103 -266q0 -102 47.5 -193t134 -146.5t197.5 -55.5h375q119 0 191.5 24.5t105.5 75t33 130.5q0 61 -32.5 101.5t-81 64.5t-133.5 55q-102 37 -165.5 71t-108 98t-44.5 165q0 169 115 258t339 129l670 124v-865h223v9h953v232q0 83 -38.5 144.5t-109 95
t-163.5 33.5h-511v152h1q31 170 140.5 304t279 213t373.5 87l31 -154q-163 -8 -301 -65t-235 -156t-139 -229h360q143 0 254 -53t172.5 -148.5t61.5 -219.5v-396zM912 -685.5q28 -28.5 28 -70.5t-28 -71t-73 -29t-72.5 28.5t-27.5 71.5q0 42 27 70.5t73 28.5q45 0 73 -28.5z
M1188 -685.5q28 -28.5 28 -70.5t-28 -71t-73 -29t-73 29t-28 71t27.5 70.5t73.5 28.5q45 0 73 -28.5z" />
    <glyph glyph-name="uniFC64" unicode="&#xfc64;" horiz-adv-x="1473" arabic-form="final" 
d="M1150.5 1206q-80.5 -3 -228.5 -17v88l173 20q-38 22 -62 65t-24 94q0 91 60 139t169 48h107l-28 -91h-69q-81 0 -116 -26t-35 -92q0 -60 41 -98.5t107 -38.5h177v-88q-191 0 -271.5 -3zM84 -298q85 0 125 63.5t40 196.5v913l901 146v-861h328v-160h-506v845l-545 -99
v-785q0 -222 -83.5 -317t-248.5 -95h-93v153h82z" />
    <glyph glyph-name="uniFC65" unicode="&#xfc65;" horiz-adv-x="1469" arabic-form="final" 
d="M1113.5 1206q-80.5 -3 -228.5 -17v88l173 20q-38 22 -62 65t-24 94q0 91 60 139t169 48h107l-28 -91h-69q-81 0 -116 -26t-35 -92q0 -60 41 -98.5t107 -38.5h177v-88q-191 0 -271.5 -3zM254.5 1197.5q-27.5 28.5 -27.5 70.5q0 43 27.5 71.5t73.5 28.5q45 0 73 -29t28 -71
t-28 -70.5t-74 -28.5q-45 0 -72.5 28.5zM84 -298q85 0 125 63.5t40 196.5v913l901 146v-861h328v-160h-506v845l-545 -99v-785q0 -222 -83.5 -317t-248.5 -95h-93v153h82z" />
    <glyph glyph-name="uniFC67" unicode="&#xfc67;" horiz-adv-x="2281" arabic-form="final" 
d="M1836.5 1206q-80.5 -3 -228.5 -17v88l173 20q-38 22 -62 65t-24 94q0 91 60 139t169 48h107l-28 -91h-70q-81 0 -116 -26t-35 -92q0 -60 41.5 -98.5t106.5 -38.5h177v-88q-190 0 -270.5 -3zM632 1197.5q-28 28.5 -28 70.5q0 43 27.5 71.5t73.5 28.5q45 0 73 -29t28 -71
t-28 -70.5t-73 -28.5t-73 28.5zM171 313q41 103 121 184l113 -115q-48 -54 -74.5 -124t-26.5 -151q0 -107 48 -197t134 -142.5t195 -52.5q101 0 187.5 39t139 118t52.5 193v772l902 184v-861h328v-160h-506v826l-547 -114v-648q0 -163 -74.5 -276t-201 -169t-281.5 -56
q-158 0 -283.5 73t-196 197.5t-70.5 272.5q0 104 41 207z" />
    <glyph glyph-name="uniFC68" unicode="&#xfc68;" horiz-adv-x="2146" arabic-form="final" 
d="M280 -357q-126 73 -196.5 198t-70.5 273q0 102 40.5 201.5t120.5 181.5l114 -115q-103 -114 -103 -266q0 -102 47.5 -193t134 -146.5t197.5 -55.5h375q119 0 191.5 24.5t105.5 75t33 130.5q0 61 -32.5 101.5t-81 64.5t-133.5 55q-103 37 -166.5 71t-108 98t-44.5 165
q0 169 115.5 258t339.5 129l669 124v-865h328v-152h-505v845l-495 -105q-95 -25 -154.5 -52t-93 -69t-33.5 -105q0 -66 34.5 -109t85.5 -69t139 -58q102 -38 164 -71t105.5 -94.5t43.5 -157.5q0 -183 -121.5 -284t-363.5 -101h-397q-158 0 -284 73zM1792.5 1186
q-80.5 -3 -228.5 -17v88l173 20q-38 22 -62 65t-24 94q0 91 60 139t169 48h107l-28 -91h-70q-81 0 -116 -26t-35 -92q0 -60 41.5 -98.5t106.5 -38.5h177v-88q-190 0 -270.5 -3z" />
    <glyph glyph-name="uniFC69" unicode="&#xfc69;" horiz-adv-x="2146" arabic-form="final" 
d="M280 -357q-126 73 -196.5 198t-70.5 273q0 102 40.5 201.5t120.5 181.5l114 -115q-103 -114 -103 -266q0 -102 47.5 -193t134 -146.5t197.5 -55.5h375q119 0 191.5 24.5t105.5 75t33 130.5q0 61 -32.5 101.5t-81 64.5t-133.5 55q-103 37 -166.5 71t-108 98t-44.5 165
q0 169 115.5 258t339.5 129l669 124v-865h328v-152h-505v845l-495 -105q-95 -25 -154.5 -52t-93 -69t-33.5 -105q0 -66 34.5 -109t85.5 -69t139 -58q102 -38 164 -71t105.5 -94.5t43.5 -157.5q0 -183 -121.5 -284t-363.5 -101h-397q-158 0 -284 73zM1792.5 1186
q-80.5 -3 -228.5 -17v88l173 20q-38 22 -62 65t-24 94q0 91 60 139t169 48h107l-28 -91h-70q-81 0 -116 -26t-35 -92q0 -60 41.5 -98.5t106.5 -38.5h177v-88q-190 0 -270.5 -3zM631 -836q-28 29 -28 71t27.5 71t73.5 29q45 0 73 -29t28 -71t-28 -71t-73 -29t-73 29z
M907 -836q-28 29 -28 71t27.5 71t73.5 29q45 0 73 -29t28 -71t-28 -71t-73 -29t-73 29z" />
    <glyph glyph-name="uniFC6A" unicode="&#xfc6a;" horiz-adv-x="1507" arabic-form="final" 
d="M122 -298q85 0 125.5 63.5t40.5 196.5v913l900 146v-861h328v-160h-506v845l-544 -99v-785q0 -222 -84 -317t-248 -95h-93v153h81zM1028.5 -396.5q-27.5 28.5 -27.5 71.5q0 42 27 71t73 29q45 0 73 -29t28 -71t-28 -71t-73 -29t-72.5 28.5z" />
    <glyph glyph-name="uniFC6B" unicode="&#xfc6b;" horiz-adv-x="1507" arabic-form="final" 
d="M292 1197.5q-28 28.5 -28 70.5q0 43 27.5 71.5t73.5 28.5q45 0 73 -29t28 -71t-28 -70.5t-73 -28.5t-73 28.5zM122 -298q85 0 125.5 63.5t40.5 196.5v913l900 146v-861h328v-160h-506v845l-544 -99v-785q0 -222 -84 -317t-248 -95h-93v153h81zM1028.5 -396.5
q-27.5 28.5 -27.5 71.5q0 42 27 71t73 29q45 0 73 -29t28 -71t-28 -71t-73 -29t-72.5 28.5z" />
    <glyph glyph-name="uniFC6D" unicode="&#xfc6d;" horiz-adv-x="2281" arabic-form="final" 
d="M630.5 1197.5q-27.5 28.5 -27.5 70.5q0 43 27.5 71.5t73.5 28.5q45 0 73 -29t28 -71t-28 -70.5t-74 -28.5q-45 0 -72.5 28.5zM171 313q41 103 121 184l113 -115q-48 -54 -74.5 -124t-26.5 -151q0 -107 48 -197t134 -142.5t195 -52.5q101 0 187.5 39t139 118t52.5 193v772
l902 184v-861h328v-160h-506v826l-547 -114v-648q0 -163 -74.5 -276t-201 -169t-281.5 -56q-158 0 -283.5 73t-196 197.5t-70.5 272.5q0 104 41 207zM1807 -396q-28 29 -28 71t27.5 71t73.5 29q45 0 73 -29t28 -71t-28 -71t-73 -29t-73 29z" />
    <glyph glyph-name="uniFC6E" unicode="&#xfc6e;" horiz-adv-x="2146" arabic-form="final" 
d="M280 -357q-126 73 -196.5 198t-70.5 273q0 102 40.5 201.5t120.5 181.5l114 -115q-103 -114 -103 -266q0 -102 47.5 -193t134 -146.5t197.5 -55.5h375q119 0 191.5 24.5t105.5 75t33 130.5q0 61 -32.5 101.5t-81 64.5t-133.5 55q-103 37 -166.5 71t-108 98t-44.5 165
q0 169 115.5 258t339.5 129l669 124v-865h328v-152h-505v845l-495 -105q-95 -25 -154.5 -52t-93 -69t-33.5 -105q0 -66 34.5 -109t85.5 -69t139 -58q102 -38 164 -71t105.5 -94.5t43.5 -157.5q0 -183 -121.5 -284t-363.5 -101h-397q-158 0 -284 73zM1654.5 -396.5
q-27.5 28.5 -27.5 71.5q0 42 27 71t73 29q45 0 73 -29t28 -71t-28 -71t-73 -29t-72.5 28.5z" />
    <glyph glyph-name="uniFC6F" unicode="&#xfc6f;" horiz-adv-x="2146" arabic-form="final" 
d="M280 -357q-126 73 -196.5 198t-70.5 273q0 102 40.5 201.5t120.5 181.5l114 -115q-103 -114 -103 -266q0 -102 47.5 -193t134 -146.5t197.5 -55.5h375q119 0 191.5 24.5t105.5 75t33 130.5q0 61 -32.5 101.5t-81 64.5t-133.5 55q-103 37 -166.5 71t-108 98t-44.5 165
q0 169 115.5 258t339.5 129l669 124v-865h328v-152h-505v845l-495 -105q-95 -25 -154.5 -52t-93 -69t-33.5 -105q0 -66 34.5 -109t85.5 -69t139 -58q102 -38 164 -71t105.5 -94.5t43.5 -157.5q0 -183 -121.5 -284t-363.5 -101h-397q-158 0 -284 73zM1654.5 -396.5
q-27.5 28.5 -27.5 71.5q0 42 27 71t73 29q45 0 73 -29t28 -71t-28 -71t-73 -29t-72.5 28.5zM633 -822q-28 29 -28 71t27.5 71t73.5 29q45 0 73 -29t28 -71t-28 -71t-73 -29t-73 29zM909 -822q-28 29 -28 71t27.5 71t73.5 29q45 0 73 -29t28 -71t-28 -71t-73 -29t-73 29z" />
    <glyph glyph-name="uniFC70" unicode="&#xfc70;" horiz-adv-x="1507" arabic-form="final" 
d="M1177 1187q-28 29 -28 71t27.5 71t73.5 29q45 0 73 -29t28 -71t-28 -71t-73 -29t-73 29zM901.5 1185q-27.5 29 -27.5 71t27.5 71t73.5 29q45 0 73 -29t28 -71t-28 -71t-74 -29q-45 0 -72.5 29zM122 -298q85 0 125.5 63.5t40.5 196.5v913l900 146v-861h328v-160h-506v845
l-544 -99v-785q0 -222 -84 -317t-248 -95h-93v153h81z" />
    <glyph glyph-name="uniFC71" unicode="&#xfc71;" horiz-adv-x="1507" arabic-form="final" 
d="M292 1197.5q-28 28.5 -28 70.5q0 43 27.5 71.5t73.5 28.5q45 0 73 -29t28 -71t-28 -70.5t-73 -28.5t-73 28.5zM1158.5 1186.5q-27.5 28.5 -27.5 71.5q0 42 27.5 71t72.5 29t73.5 -29t28.5 -71t-28 -71t-74 -29q-45 0 -72.5 28.5zM883 1185q-28 29 -28 71t27.5 71t73.5 29
q45 0 73 -29t28 -71t-28 -71t-73 -29t-73 29zM122 -298q85 0 125.5 63.5t40.5 196.5v913l900 146v-861h328v-160h-506v845l-544 -99v-785q0 -222 -84 -317t-248 -95h-93v153h81z" />
    <glyph glyph-name="uniFC73" unicode="&#xfc73;" horiz-adv-x="2281" arabic-form="final" 
d="M586 1197.5q-28 28.5 -28 70.5q0 43 27.5 71.5t73.5 28.5q45 0 73 -29t28 -71t-28 -70.5t-73 -28.5t-73 28.5zM1933.5 1186.5q-27.5 28.5 -27.5 71.5q0 42 27.5 71t72.5 29t73.5 -29t28.5 -71t-28.5 -71t-73.5 -29t-72.5 28.5zM1657.5 1185q-27.5 29 -27.5 71t27.5 71
t73.5 29q45 0 73 -29t28 -71t-28 -71t-74 -29q-45 0 -72.5 29zM171 313q41 103 121 184l113 -115q-48 -54 -74.5 -124t-26.5 -151q0 -107 48 -197t134 -142.5t195 -52.5q101 0 187.5 39t139 118t52.5 193v772l902 184v-861h328v-160h-506v826l-547 -114v-648
q0 -163 -74.5 -276t-201 -169t-281.5 -56q-158 0 -283.5 73t-196 197.5t-70.5 272.5q0 104 41 207z" />
    <glyph glyph-name="uniFC74" unicode="&#xfc74;" horiz-adv-x="2146" arabic-form="final" 
d="M280 -357q-126 73 -196.5 198t-70.5 273q0 102 40.5 201.5t120.5 181.5l114 -115q-103 -114 -103 -266q0 -102 47.5 -193t134 -146.5t197.5 -55.5h375q119 0 191.5 24.5t105.5 75t33 130.5q0 61 -32.5 101.5t-81 64.5t-133.5 55q-103 37 -166.5 71t-108 98t-44.5 165
q0 169 115.5 258t339.5 129l669 124v-865h328v-152h-505v845l-495 -105q-95 -25 -154.5 -52t-93 -69t-33.5 -105q0 -66 34.5 -109t85.5 -69t139 -58q102 -38 164 -71t105.5 -94.5t43.5 -157.5q0 -183 -121.5 -284t-363.5 -101h-397q-158 0 -284 73zM1912.5 1192
q-27.5 29 -27.5 71t27.5 71t73.5 29q45 0 73 -29t28 -71t-28 -71t-74 -29q-45 0 -72.5 29zM1637.5 1189.5q-27.5 28.5 -27.5 71.5q0 42 27 71t73 29q45 0 73 -29t28 -71t-28 -71t-73 -29t-72.5 28.5z" />
    <glyph glyph-name="uniFC75" unicode="&#xfc75;" horiz-adv-x="2146" arabic-form="final" 
d="M280 -357q-126 73 -196.5 198t-70.5 273q0 102 40.5 201.5t120.5 181.5l114 -115q-103 -114 -103 -266q0 -102 47.5 -193t134 -146.5t197.5 -55.5h375q119 0 191.5 24.5t105.5 75t33 130.5q0 61 -32.5 101.5t-81 64.5t-133.5 55q-103 37 -166.5 71t-108 98t-44.5 165
q0 169 115.5 258t339.5 129l669 124v-865h328v-152h-505v845l-495 -105q-95 -25 -154.5 -52t-93 -69t-33.5 -105q0 -66 34.5 -109t85.5 -69t139 -58q102 -38 164 -71t105.5 -94.5t43.5 -157.5q0 -183 -121.5 -284t-363.5 -101h-397q-158 0 -284 73zM1912.5 1185
q-27.5 29 -27.5 71t27.5 71t73.5 29q45 0 73 -29t28 -71t-28 -71t-74 -29q-45 0 -72.5 29zM1637.5 1182.5q-27.5 28.5 -27.5 71.5q0 42 27 71t73 29q45 0 73 -29t28 -71t-28 -71t-73 -29t-72.5 28.5zM487 -830q-28 29 -28 71t27.5 71t73.5 29q45 0 73 -29t28 -71t-28 -71
t-73 -29t-73 29zM763 -830q-28 29 -28 71t27.5 71t73.5 29q45 0 73 -29t28 -71t-28 -71t-73 -29t-73 29z" />
    <glyph glyph-name="uniFC76" unicode="&#xfc76;" horiz-adv-x="1507" arabic-form="final" 
d="M929.5 1420.5q-27.5 28.5 -27.5 71.5q0 42 27.5 70.5t72.5 28.5t73.5 -28.5t28.5 -70.5t-28.5 -71t-73.5 -29t-72.5 28.5zM795.5 1185.5q-27.5 28.5 -27.5 70.5q0 43 27.5 71.5t73.5 28.5q45 0 73 -29t28 -71t-28 -70.5t-74 -28.5q-45 0 -72.5 28.5zM1071.5 1185.5
q-27.5 28.5 -27.5 70.5q0 43 27.5 71.5t73.5 28.5q45 0 73 -29t28 -71t-28 -70.5t-74 -28.5q-45 0 -72.5 28.5zM122 -298q85 0 125.5 63.5t40.5 196.5v913l900 146v-861h328v-160h-506v845l-544 -99v-785q0 -222 -84 -317t-248 -95h-93v153h81z" />
    <glyph glyph-name="uniFC77" unicode="&#xfc77;" horiz-adv-x="1507" arabic-form="final" 
d="M945.5 1420.5q-27.5 28.5 -27.5 71.5q0 42 27 70.5t73 28.5q45 0 73.5 -28.5t28.5 -70.5t-28.5 -71t-73.5 -29t-72.5 28.5zM292 1197.5q-28 28.5 -28 70.5q0 43 27.5 71.5t73.5 28.5q45 0 73 -29t28 -71t-28 -70.5t-73 -28.5t-73 28.5zM811.5 1185.5
q-27.5 28.5 -27.5 70.5q0 43 27.5 71.5t72.5 28.5t73.5 -29t28.5 -71t-28 -70.5t-74 -28.5q-45 0 -72.5 28.5zM1087.5 1185.5q-27.5 28.5 -27.5 70.5q0 43 27.5 71.5t72.5 28.5t73.5 -29t28.5 -71t-28 -70.5t-74 -28.5q-45 0 -72.5 28.5zM122 -298q85 0 125.5 63.5
t40.5 196.5v913l900 146v-861h328v-160h-506v845l-544 -99v-785q0 -222 -84 -317t-248 -95h-93v153h81z" />
    <glyph glyph-name="uniFC79" unicode="&#xfc79;" horiz-adv-x="2281" arabic-form="final" 
d="M1699.5 1421q-27.5 29 -27.5 71t27.5 70.5t73.5 28.5q45 0 73 -28.5t28 -70.5t-28 -71t-74 -29q-45 0 -72.5 29zM642.5 1197.5q-27.5 28.5 -27.5 70.5q0 43 27.5 71.5t73.5 28.5q45 0 73 -29t28 -71t-28 -70.5t-74 -28.5q-45 0 -72.5 28.5zM1566 1185.5
q-28 28.5 -28 70.5q0 43 27.5 71.5t73.5 28.5q45 0 73 -29t28 -71t-28 -70.5t-73 -28.5t-73 28.5zM1842 1185.5q-28 28.5 -28 70.5q0 43 27.5 71.5t73.5 28.5q45 0 73 -29t28 -71t-28 -70.5t-73 -28.5t-73 28.5zM171 313q41 103 121 184l113 -115q-48 -54 -74.5 -124
t-26.5 -151q0 -107 48 -197t134 -142.5t195 -52.5q101 0 187.5 39t139 118t52.5 193v772l902 184v-861h328v-160h-506v826l-547 -114v-648q0 -163 -74.5 -276t-201 -169t-281.5 -56q-158 0 -283.5 73t-196 197.5t-70.5 272.5q0 104 41 207z" />
    <glyph glyph-name="uniFC7A" unicode="&#xfc7a;" horiz-adv-x="2146" arabic-form="final" 
d="M280 -357q-126 73 -196.5 198t-70.5 273q0 102 40.5 201.5t120.5 181.5l114 -115q-103 -114 -103 -266q0 -102 47.5 -193t134 -146.5t197.5 -55.5h375q119 0 191.5 24.5t105.5 75t33 130.5q0 61 -32.5 101.5t-81 64.5t-133.5 55q-103 37 -166.5 71t-108 98t-44.5 165
q0 169 115.5 258t339.5 129l669 124v-865h328v-152h-505v845l-495 -105q-95 -25 -154.5 -52t-93 -69t-33.5 -105q0 -66 34.5 -109t85.5 -69t139 -58q102 -38 164 -71t105.5 -94.5t43.5 -157.5q0 -183 -121.5 -284t-363.5 -101h-397q-158 0 -284 73zM1682.5 1419
q-27.5 29 -27.5 71t27.5 70.5t73.5 28.5q45 0 73 -28.5t28 -70.5t-28 -71t-74 -29q-45 0 -72.5 29zM1549 1183.5q-28 28.5 -28 70.5q0 43 27.5 71.5t73.5 28.5q45 0 73 -29t28 -71t-28 -70.5t-73 -28.5t-73 28.5zM1824.5 1183.5q-27.5 28.5 -27.5 70.5q0 43 27.5 71.5
t73.5 28.5q45 0 73 -29t28 -71t-28 -70.5t-74 -28.5q-45 0 -72.5 28.5z" />
    <glyph glyph-name="uniFC7B" unicode="&#xfc7b;" horiz-adv-x="2146" arabic-form="final" 
d="M280 -357q-126 73 -196.5 198t-70.5 273q0 102 40.5 201.5t120.5 181.5l114 -115q-103 -114 -103 -266q0 -102 47.5 -193t134 -146.5t197.5 -55.5h375q119 0 191.5 24.5t105.5 75t33 130.5q0 61 -32.5 101.5t-81 64.5t-133.5 55q-103 37 -166.5 71t-108 98t-44.5 165
q0 169 115.5 258t339.5 129l669 124v-865h328v-152h-505v845l-495 -105q-95 -25 -154.5 -52t-93 -69t-33.5 -105q0 -66 34.5 -109t85.5 -69t139 -58q102 -38 164 -71t105.5 -94.5t43.5 -157.5q0 -183 -121.5 -284t-363.5 -101h-397q-158 0 -284 73zM1682.5 1419
q-27.5 29 -27.5 71t27.5 70.5t73.5 28.5q45 0 73 -28.5t28 -70.5t-28 -71t-74 -29q-45 0 -72.5 29zM1549 1183.5q-28 28.5 -28 70.5q0 43 27.5 71.5t73.5 28.5q45 0 73 -29t28 -71t-28 -70.5t-73 -28.5t-73 28.5zM1824.5 1183.5q-27.5 28.5 -27.5 70.5q0 43 27.5 71.5
t73.5 28.5q45 0 73 -29t28 -71t-28 -70.5t-74 -28.5q-45 0 -72.5 28.5zM631 -826q-28 29 -28 71t27.5 71t73.5 29q45 0 73 -29t28 -71t-28 -71t-73 -29t-73 29zM907 -826q-28 29 -28 71t27.5 71t73.5 29q45 0 73 -29t28 -71t-28 -71t-73 -29t-73 29z" />
    <glyph glyph-name="uniFC83" unicode="&#xfc83;" horiz-adv-x="3462" arabic-form="final" 
d="M3471 160v-160h-1781v845l-496 -105q-95 -25 -154.5 -52t-93 -69t-33.5 -105q0 -66 34.5 -109t85.5 -69t139 -58q102 -38 164 -71t105.5 -94.5t43.5 -157.5q0 -184 -121.5 -284.5t-363.5 -100.5h-397q-158 0 -284 73t-196.5 198t-70.5 273q0 103 41 202t121 181l113 -115
q-103 -114 -103 -266q0 -102 47.5 -193t134 -146.5t197.5 -55.5h375q119 0 191.5 24.5t105.5 75t33 130.5q0 61 -32.5 101.5t-81 64.5t-133.5 55q-102 37 -165.5 71t-108 98t-44.5 165q0 169 115 258t339 129l670 124v-865h318v8h952v232q0 83 -38.5 145t-109 95.5
t-163.5 33.5h-511v151h1q31 170 140.5 304t279 213t373.5 87l32 -154q-164 -8 -302.5 -65t-235 -156t-138.5 -229h360q143 0 254 -52.5t172.5 -148.5t61.5 -220v-236h158z" />
    <glyph glyph-name="uniFC84" unicode="&#xfc84;" horiz-adv-x="3610" arabic-form="final" 
d="M3619 160v-160h-1287v160h952v232q0 83 -38.5 145t-109 95.5t-163.5 33.5h-511v151h1q31 170 140.5 304t279 213t374.5 87l31 -154q-163 -8 -301.5 -65t-235 -156t-138.5 -229h359q143 0 254 -52.5t173 -148.5t62 -220v-236h158zM432 -357q-126 73 -196.5 198t-70.5 273
q0 102 40.5 201.5t120.5 181.5l114 -115q-103 -114 -103 -266q0 -102 47.5 -193t134 -146.5t197.5 -55.5h375q119 0 191.5 24.5t105.5 75t33 130.5q0 61 -32.5 101.5t-81 64.5t-133.5 55q-103 37 -166.5 71t-108 98t-44.5 165q0 169 115.5 258t339.5 129l669 124v-865h328
v-152h-505v845l-495 -105q-95 -25 -154.5 -52t-93 -69t-33.5 -105q0 -66 34.5 -109t85.5 -69t139 -58q102 -38 164 -71t105.5 -94.5t43.5 -157.5q0 -183 -121.5 -284t-363.5 -101h-397q-158 0 -284 73zM766 -827q-28 29 -28 71t27.5 71t73.5 29q45 0 73 -29t28 -71t-28 -71
t-73 -29t-73 29zM1042 -827q-28 29 -28 71t27.5 71t73.5 29q45 0 73 -29t28 -71t-28 -71t-73 -29t-73 29z" />
    <glyph glyph-name="uniFC8A" unicode="&#xfc8a;" horiz-adv-x="1474" arabic-form="final" 
d="M1059.5 1197.5q-27.5 28.5 -27.5 70.5q0 43 27 71.5t73 28.5q45 0 73 -29t28 -71t-28 -70.5t-73 -28.5t-72.5 28.5zM90 -298q85 0 125 63.5t40 196.5v913l901 146v-861h328v-160h-507v845l-544 -99v-785q0 -222 -83.5 -317t-248.5 -95h-93v153h82z" />
    <glyph glyph-name="uniFC8B" unicode="&#xfc8b;" horiz-adv-x="1469" arabic-form="final" 
d="M254.5 1197.5q-27.5 28.5 -27.5 70.5q0 43 27.5 71.5t73.5 28.5q45 0 73 -29t28 -71t-28 -70.5t-74 -28.5q-45 0 -72.5 28.5zM1053.5 1197.5q-27.5 28.5 -27.5 70.5q0 43 27 71.5t73 28.5q45 0 73 -29t28 -71t-28 -70.5t-73 -28.5t-72.5 28.5zM84 -298q85 0 125 63.5
t40 196.5v913l901 146v-861h328v-160h-506v845l-545 -99v-785q0 -222 -83.5 -317t-248.5 -95h-93v153h82z" />
    <glyph glyph-name="uniFC8D" unicode="&#xfc8d;" horiz-adv-x="2281" arabic-form="final" 
d="M586 1197.5q-28 28.5 -28 70.5q0 43 27.5 71.5t73.5 28.5q45 0 73 -29t28 -71t-28 -70.5t-73 -28.5t-73 28.5zM1796 1175.5q-28 28.5 -28 70.5q0 43 27.5 71.5t73.5 28.5q45 0 73 -29t28 -71t-28 -70.5t-73 -28.5t-73 28.5zM171 313q41 103 121 184l113 -115
q-48 -54 -74.5 -124t-26.5 -151q0 -107 48 -197t134 -142.5t195 -52.5q101 0 187.5 39t139 118t52.5 193v772l902 184v-861h328v-160h-506v826l-547 -114v-648q0 -163 -74.5 -276t-201 -169t-281.5 -56q-158 0 -283.5 73t-196 197.5t-70.5 272.5q0 104 41 207z" />
    <glyph glyph-name="uniFC8E" unicode="&#xfc8e;" horiz-adv-x="2146" arabic-form="final" 
d="M280 -357q-126 73 -196.5 198t-70.5 273q0 102 40.5 201.5t120.5 181.5l114 -115q-103 -114 -103 -266q0 -102 47.5 -193t134 -146.5t197.5 -55.5h375q119 0 191.5 24.5t105.5 75t33 130.5q0 61 -32.5 101.5t-81 64.5t-133.5 55q-103 37 -166.5 71t-108 98t-44.5 165
q0 169 115.5 258t339.5 129l669 124v-865h328v-152h-505v845l-495 -105q-95 -25 -154.5 -52t-93 -69t-33.5 -105q0 -66 34.5 -109t85.5 -69t139 -58q102 -38 164 -71t105.5 -94.5t43.5 -157.5q0 -183 -121.5 -284t-363.5 -101h-397q-158 0 -284 73zM1763 1177.5
q-28 28.5 -28 70.5q0 43 27.5 71.5t73.5 28.5q45 0 73 -29t28 -71t-28 -70.5t-73 -28.5t-73 28.5zM645 -822q-28 29 -28 71t27.5 71t73.5 29q45 0 73 -29t28 -71t-28 -71t-73 -29t-73 29zM921 -822q-28 29 -28 71t27.5 71t73.5 29q45 0 73 -29t28 -71t-28 -71t-73 -29
t-73 29z" />
    <glyph glyph-name="uniFC8F" unicode="&#xfc8f;" horiz-adv-x="2146" arabic-form="final" 
d="M280 -357q-126 73 -196.5 198t-70.5 273q0 102 40.5 201.5t120.5 181.5l114 -115q-103 -114 -103 -266q0 -102 47.5 -193t134 -146.5t197.5 -55.5h375q119 0 191.5 24.5t105.5 75t33 130.5q0 61 -32.5 101.5t-81 64.5t-133.5 55q-103 37 -166.5 71t-108 98t-44.5 165
q0 169 115.5 258t339.5 129l669 124v-865h328v-152h-505v845l-495 -105q-95 -25 -154.5 -52t-93 -69t-33.5 -105q0 -66 34.5 -109t85.5 -69t139 -58q102 -38 164 -71t105.5 -94.5t43.5 -157.5q0 -183 -121.5 -284t-363.5 -101h-397q-158 0 -284 73zM1766 1177.5
q-28 28.5 -28 70.5q0 43 27.5 71.5t73.5 28.5q45 0 73 -29t28 -71t-28 -70.5t-73 -28.5t-73 28.5zM645 -822q-28 29 -28 71t27.5 71t73.5 29q45 0 73 -29t28 -71t-28 -71t-73 -29t-73 29zM921 -822q-28 29 -28 71t27.5 71t73.5 29q45 0 73 -29t28 -71t-28 -71t-73 -29
t-73 29z" />
    <glyph glyph-name="uniFC91" unicode="&#xfc91;" horiz-adv-x="1507" arabic-form="final" 
d="M122 -298q85 0 125.5 63.5t40.5 196.5v913l900 146v-861h328v-160h-506v845l-544 -99v-785q0 -222 -84 -317t-248 -95h-93v153h81zM877 -381q-28 29 -28 71t27.5 71t73.5 29q45 0 73 -29t28 -71t-28 -71t-73 -29t-73 29zM1153 -381q-28 29 -28 71t27.5 71t73.5 29
q45 0 73 -29t28 -71t-28 -71t-73 -29t-73 29z" />
    <glyph glyph-name="uniFC92" unicode="&#xfc92;" horiz-adv-x="1507" arabic-form="final" 
d="M292 1197.5q-28 28.5 -28 70.5q0 43 27.5 71.5t73.5 28.5q45 0 73 -29t28 -71t-28 -70.5t-73 -28.5t-73 28.5zM122 -298q85 0 125.5 63.5t40.5 196.5v913l900 146v-861h328v-160h-506v845l-544 -99v-785q0 -222 -84 -317t-248 -95h-93v153h81zM877 -381q-28 29 -28 71
t27.5 71t73.5 29q45 0 73 -29t28 -71t-28 -71t-73 -29t-73 29zM1153 -381q-28 29 -28 71t27.5 71t73.5 29q45 0 73 -29t28 -71t-28 -71t-73 -29t-73 29z" />
    <glyph glyph-name="uniFC94" unicode="&#xfc94;" horiz-adv-x="2281" arabic-form="final" 
d="M638.5 1197.5q-27.5 28.5 -27.5 70.5q0 43 27.5 71.5t73.5 28.5q45 0 73 -29t28 -71t-28 -70.5t-74 -28.5q-45 0 -72.5 28.5zM171 313q41 103 121 184l113 -115q-48 -54 -74.5 -124t-26.5 -151q0 -107 48 -197t134 -142.5t195 -52.5q101 0 187.5 39t139 118t52.5 193v772
l902 184v-861h328v-160h-506v826l-547 -114v-648q0 -163 -74.5 -276t-201 -169t-281.5 -56q-158 0 -283.5 73t-196 197.5t-70.5 272.5q0 104 41 207zM1643.5 -381.5q-27.5 28.5 -27.5 71.5q0 42 27 71t73 29q45 0 73 -29t28 -71t-28 -71t-73 -29t-72.5 28.5zM1919 -381
q-28 29 -28 71t27.5 71t73.5 29q45 0 73 -29t28 -71t-28 -71t-73 -29t-73 29z" />
    <glyph glyph-name="uniFCFB" unicode="&#xfcfb;" horiz-adv-x="3280" arabic-form="isolated" 
d="M206 313q41 102 120 184l114 -115q-50 -55 -76.5 -125t-26.5 -147q0 -102 47.5 -193t134 -146.5t197.5 -55.5h315q119 0 191.5 24.5t105.5 75t33 130.5q0 61 -32.5 101.5t-81 64.5t-133.5 55q-102 37 -165.5 71t-108 98t-44.5 165q0 171 117 265.5t337 127.5l717 112
v-853h397v697h177v-697h397v865h177v-1017h-1325v833l-543 -93q-138 -30 -209.5 -84t-71.5 -148q0 -66 34.5 -109t85.5 -69t139 -58q102 -38 164 -71t105.5 -94.5t43.5 -157.5q0 -183 -122 -284t-363 -101h-337q-158 0 -284 73t-196.5 198t-70.5 273q0 103 41 205z" />
    <glyph glyph-name="uniFCFC" unicode="&#xfcfc;" horiz-adv-x="3280" arabic-form="isolated" 
d="M206 313q41 102 120 184l114 -115q-50 -55 -76.5 -125t-26.5 -147q0 -102 47.5 -193t134 -146.5t197.5 -55.5h315q119 0 191.5 24.5t105.5 75t33 130.5q0 61 -32.5 101.5t-81 64.5t-133.5 55q-102 37 -165.5 71t-108 98t-44.5 165q0 171 117 265.5t337 127.5l717 112
v-853h397v697h177v-697h397v865h177v-1017h-1325v833l-543 -93q-138 -30 -209.5 -84t-71.5 -148q0 -66 34.5 -109t85.5 -69t139 -58q102 -38 164 -71t105.5 -94.5t43.5 -157.5q0 -183 -122 -284t-363 -101h-337q-158 0 -284 73t-196.5 198t-70.5 273q0 103 41 205zM547 -821
q-28 29 -28 71t27.5 71t73.5 29q45 0 73 -29t28 -71t-28 -71t-73 -29t-73 29zM823 -821q-28 29 -28 71t27.5 71t73.5 29q45 0 73 -29t28 -71t-28 -71t-73 -29t-73 29z" />
    <glyph glyph-name="uniFCFD" unicode="&#xfcfd;" horiz-adv-x="3280" arabic-form="isolated" 
d="M206 313q41 102 120 184l114 -115q-50 -55 -76.5 -125t-26.5 -147q0 -102 47.5 -193t134 -146.5t197.5 -55.5h315q119 0 191.5 24.5t105.5 75t33 130.5q0 61 -32.5 101.5t-81 64.5t-133.5 55q-102 37 -165.5 71t-108 98t-44.5 165q0 171 117 265.5t337 127.5l717 112
v-853h397v697h177v-697h397v865h177v-1017h-1325v833l-543 -93q-138 -30 -209.5 -84t-71.5 -148q0 -66 34.5 -109t85.5 -69t139 -58q102 -38 164 -71t105.5 -94.5t43.5 -157.5q0 -183 -122 -284t-363 -101h-337q-158 0 -284 73t-196.5 198t-70.5 273q0 103 41 205z
M2341.5 1399q-27.5 29 -27.5 71t27.5 70.5t73.5 28.5q45 0 73 -28.5t28 -70.5t-28 -71t-74 -29q-45 0 -72.5 29zM2208 1163.5q-28 28.5 -28 70.5q0 43 27.5 71.5t73.5 28.5q45 0 73 -29t28 -71t-28 -70.5t-73 -28.5t-73 28.5zM2483.5 1163.5q-27.5 28.5 -27.5 70.5
q0 43 27.5 71.5t73.5 28.5q45 0 73 -29t28 -71t-28 -70.5t-74 -28.5q-45 0 -72.5 28.5z" />
    <glyph glyph-name="uniFCFE" unicode="&#xfcfe;" horiz-adv-x="3280" arabic-form="isolated" 
d="M206 313q41 102 120 184l114 -115q-50 -55 -76.5 -125t-26.5 -147q0 -102 47.5 -193t134 -146.5t197.5 -55.5h315q119 0 191.5 24.5t105.5 75t33 130.5q0 61 -32.5 101.5t-81 64.5t-133.5 55q-102 37 -165.5 71t-108 98t-44.5 165q0 171 117 265.5t337 127.5l717 112
v-853h397v697h177v-697h397v865h177v-1017h-1325v833l-543 -93q-138 -30 -209.5 -84t-71.5 -148q0 -66 34.5 -109t85.5 -69t139 -58q102 -38 164 -71t105.5 -94.5t43.5 -157.5q0 -183 -122 -284t-363 -101h-337q-158 0 -284 73t-196.5 198t-70.5 273q0 103 41 205z
M2343.5 1399q-27.5 29 -27.5 71t27.5 70.5t73.5 28.5q45 0 73 -28.5t28 -70.5t-28 -71t-74 -29q-45 0 -72.5 29zM2210 1163.5q-28 28.5 -28 70.5q0 43 27.5 71.5t73.5 28.5q45 0 73 -29t28 -71t-28 -70.5t-73 -28.5t-73 28.5zM2485.5 1163.5q-27.5 28.5 -27.5 70.5
q0 43 27.5 71.5t73.5 28.5q45 0 73 -29t28 -71t-28 -70.5t-74 -28.5q-45 0 -72.5 28.5zM547 -821q-28 29 -28 71t27.5 71t73.5 29q45 0 73 -29t28 -71t-28 -71t-73 -29t-73 29zM823 -821q-28 29 -28 71t27.5 71t73.5 29q45 0 73 -29t28 -71t-28 -71t-73 -29t-73 29z" />
    <glyph glyph-name="uniFD05" unicode="&#xfd05;" horiz-adv-x="3393" arabic-form="isolated" 
d="M3098.5 747.5q129.5 -116.5 129.5 -338.5v-409h-1425v845l-496 -105q-95 -25 -154.5 -52t-93 -69t-33.5 -105q0 -66 34.5 -109t85.5 -69t139 -58q102 -38 164 -71t105.5 -94.5t43.5 -157.5q0 -183 -121.5 -284t-363.5 -101h-397q-158 0 -284 73t-196.5 198t-70.5 273
q0 102 40.5 201.5t120.5 181.5l114 -115q-103 -114 -103 -266q0 -102 47.5 -193t134 -146.5t197.5 -55.5h375q119 0 191.5 24.5t105.5 75t33 130.5q0 61 -32.5 101.5t-81 64.5t-133.5 55q-102 37 -165.5 71t-108 98t-44.5 165q0 169 115 258t339 129l670 124v-751
q53 166 164 302.5t262 216t318 79.5q245 0 374.5 -116.5zM3051 414q0 144 -88 221.5t-251 77.5q-153 0 -289.5 -75.5t-232 -202.5t-131.5 -275h992v254z" />
    <glyph glyph-name="uniFD06" unicode="&#xfd06;" horiz-adv-x="3393" arabic-form="isolated" 
d="M3098.5 747.5q129.5 -116.5 129.5 -338.5v-409h-1425v845l-496 -105q-95 -25 -154.5 -52t-93 -69t-33.5 -105q0 -66 34.5 -109t85.5 -69t139 -58q102 -38 164 -71t105.5 -94.5t43.5 -157.5q0 -183 -121.5 -284t-363.5 -101h-397q-158 0 -284 73t-196.5 198t-70.5 273
q0 102 40.5 201.5t120.5 181.5l114 -115q-103 -114 -103 -266q0 -102 47.5 -193t134 -146.5t197.5 -55.5h375q119 0 191.5 24.5t105.5 75t33 130.5q0 61 -32.5 101.5t-81 64.5t-133.5 55q-102 37 -165.5 71t-108 98t-44.5 165q0 169 115 258t339 129l670 124v-751
q53 166 164 302.5t262 216t318 79.5q245 0 374.5 -116.5zM3051 414q0 144 -88 221.5t-251 77.5q-153 0 -289.5 -75.5t-232 -202.5t-131.5 -275h992v254zM596 -810q-28 29 -28 71t27.5 71t73.5 29q45 0 73 -29t28 -71t-28 -71t-73 -29t-73 29zM872 -810q-28 29 -28 71
t27.5 71t73.5 29q45 0 73 -29t28 -71t-28 -71t-73 -29t-73 29z" />
    <glyph glyph-name="uniFD07" unicode="&#xfd07;" horiz-adv-x="3405" arabic-form="isolated" 
d="M2602.5 1197.5q-27.5 28.5 -27.5 70.5q0 43 27 71.5t73 28.5q45 0 73 -29t28 -71t-28 -70.5t-73 -28.5t-72.5 28.5zM3090.5 747.5q129.5 -116.5 129.5 -338.5v-409h-1417v845l-496 -105q-95 -25 -154.5 -52t-93 -69t-33.5 -105q0 -66 34.5 -109t85.5 -69t139 -58
q102 -38 164 -71t105.5 -94.5t43.5 -157.5q0 -183 -121.5 -284t-363.5 -101h-397q-158 0 -284 73t-196.5 198t-70.5 273q0 102 40.5 201.5t120.5 181.5l114 -115q-103 -114 -103 -266q0 -102 47.5 -193t134 -146.5t197.5 -55.5h375q119 0 191.5 24.5t105.5 75t33 130.5
q0 61 -32.5 101.5t-81 64.5t-133.5 55q-102 37 -165.5 71t-108 98t-44.5 165q0 169 115 258t339 129l670 124v-727q56 160 166.5 291t258.5 207t311 76q245 0 374.5 -116.5zM3043 414q0 144 -88 221.5t-251 77.5q-153 0 -289.5 -75.5t-231.5 -202.5t-131 -275h991v254z" />
    <glyph glyph-name="uniFD08" unicode="&#xfd08;" horiz-adv-x="3405" arabic-form="isolated" 
d="M2602.5 1197.5q-27.5 28.5 -27.5 70.5q0 43 27 71.5t73 28.5q45 0 73 -29t28 -71t-28 -70.5t-73 -28.5t-72.5 28.5zM3090.5 747.5q129.5 -116.5 129.5 -338.5v-409h-1417v845l-496 -105q-95 -25 -154.5 -52t-93 -69t-33.5 -105q0 -66 34.5 -109t85.5 -69t139 -58
q102 -38 164 -71t105.5 -94.5t43.5 -157.5q0 -183 -121.5 -284t-363.5 -101h-397q-158 0 -284 73t-196.5 198t-70.5 273q0 102 40.5 201.5t120.5 181.5l114 -115q-103 -114 -103 -266q0 -102 47.5 -193t134 -146.5t197.5 -55.5h375q119 0 191.5 24.5t105.5 75t33 130.5
q0 61 -32.5 101.5t-81 64.5t-133.5 55q-102 37 -165.5 71t-108 98t-44.5 165q0 169 115 258t339 129l670 124v-727q56 160 166.5 291t258.5 207t311 76q245 0 374.5 -116.5zM3043 414q0 144 -88 221.5t-251 77.5q-153 0 -289.5 -75.5t-231.5 -202.5t-131 -275h991v254z
M905 -697q28 -29 28 -71t-28 -70.5t-73 -28.5t-73 28.5t-28 70.5q0 43 27.5 71.5t73.5 28.5q45 0 73 -29zM1181 -697q28 -29 28 -71t-28 -70.5t-73 -28.5t-73 28.5t-28 70.5q0 43 27.5 71.5t73.5 28.5q45 0 73 -29z" />
    <glyph glyph-name="uniFD0D" unicode="&#xfd0d;" horiz-adv-x="2452" arabic-form="isolated" 
d="M2287 1017v-1017h-1315v845l-545 -99v-785q0 -222 -83.5 -317t-248.5 -95h-93v153h82q85 0 125 63.5t40 196.5v913l901 146v-861h387v689h177v-689h396v857h177zM1516.5 1403q-27.5 29 -27.5 71t27.5 70.5t73.5 28.5q45 0 73 -28.5t28 -70.5t-28 -71t-74 -29
q-45 0 -72.5 29zM1383 1167.5q-28 28.5 -28 70.5q0 43 27.5 71.5t73.5 28.5q45 0 73 -29t28 -71t-28 -70.5t-73 -28.5t-73 28.5zM1658.5 1167.5q-27.5 28.5 -27.5 70.5q0 43 27.5 71.5t73.5 28.5q45 0 73 -29t28 -71t-28 -70.5t-74 -28.5q-45 0 -72.5 28.5z" />
    <glyph glyph-name="uniFD0E" unicode="&#xfd0e;" horiz-adv-x="2452" arabic-form="isolated" 
d="M2287 1017v-1017h-1315v845l-545 -99v-785q0 -222 -83.5 -317t-248.5 -95h-93v153h82q85 0 125 63.5t40 196.5v913l901 146v-861h387v689h177v-689h396v857h177z" />
    <glyph glyph-name="uniFD0F" unicode="&#xfd0f;" horiz-adv-x="2449" arabic-form="isolated" 
d="M2154.5 747.5q129.5 -116.5 129.5 -338.5v-409h-1312v845l-545 -99v-785q0 -222 -83.5 -317t-248.5 -95h-93v153h82q85 0 125 63.5t40 196.5v913l901 146v-521q112 166 277.5 265t352.5 99q245 0 374.5 -116.5zM2107 414q0 144 -88 221.5t-251 77.5q-134 0 -256.5 -59
t-216 -160.5t-145.5 -226.5v-107h957v254z" />
    <glyph glyph-name="uniFD10" unicode="&#xfd10;" horiz-adv-x="2478" arabic-form="isolated" 
d="M1635.5 1197.5q-27.5 28.5 -27.5 70.5q0 43 27.5 71.5t73.5 28.5q45 0 73 -29t28 -71t-28 -70.5t-74 -28.5q-45 0 -72.5 28.5zM2163.5 747.5q129.5 -116.5 129.5 -338.5v-409h-1321v845l-545 -99v-785q0 -222 -83.5 -317t-248.5 -95h-93v153h82q85 0 125 63.5t40 196.5
v913l901 146v-534q73 112 172.5 197t219 132.5t247.5 47.5q245 0 374.5 -116.5zM2116 414q0 144 -88 221.5t-251 77.5q-138 0 -263.5 -62.5t-219.5 -169.5t-144 -237v-84h966v254z" />
    <glyph glyph-name="uniFD17" unicode="&#xfd17;" horiz-adv-x="3386" arabic-form="final" 
d="M3395 160v-160h-1605v833l-543 -93q-138 -30 -209.5 -84t-71.5 -148q0 -66 34.5 -109t85.5 -69t139 -58q102 -38 164 -71t105.5 -94.5t43.5 -157.5q0 -183 -122 -284t-363 -101h-337q-158 0 -284 73t-196.5 198t-70.5 273q0 103 41 205t120 184l114 -115
q-50 -55 -76.5 -125t-26.5 -147q0 -102 47.5 -193t134 -146.5t197.5 -55.5h315q119 0 191.5 24.5t105.5 75t33 130.5q0 61 -32.5 101.5t-81 64.5t-133.5 55q-102 37 -165.5 71t-108 98t-44.5 165q0 171 117 265.5t337 127.5l717 112v-853h397v697h177v-697h397v865h177v-857
h280z" />
    <glyph glyph-name="uniFD18" unicode="&#xfd18;" horiz-adv-x="3387" arabic-form="final" 
d="M3396 160v-160h-1606v833l-543 -93q-138 -30 -209.5 -84t-71.5 -148q0 -66 34.5 -109t85.5 -69t139 -58q102 -38 164 -71t105.5 -94.5t43.5 -157.5q0 -183 -122 -284t-363 -101h-337q-158 0 -284 73t-196.5 198t-70.5 273q0 103 41 205t120 184l114 -115
q-50 -55 -76.5 -125t-26.5 -147q0 -102 47.5 -193t134 -146.5t197.5 -55.5h315q119 0 191.5 24.5t105.5 75t33 130.5q0 61 -32.5 101.5t-81 64.5t-133.5 55q-102 37 -165.5 71t-108 98t-44.5 165q0 171 117 265.5t337 127.5l717 112v-853h397v697h177v-697h397v865h177v-857
h281zM693 -679q28 -29 28 -71t-28 -71t-74 -29q-45 0 -72.5 29t-27.5 71q0 43 27.5 71.5t73.5 28.5q45 0 73 -29zM969 -679q28 -29 28 -71t-28 -71t-74 -29q-45 0 -72.5 29t-27.5 71q0 43 27.5 71.5t73.5 28.5q45 0 73 -29z" />
    <glyph glyph-name="uniFD19" unicode="&#xfd19;" horiz-adv-x="3389" arabic-form="final" 
d="M2335.5 1398.5q-27.5 28.5 -27.5 71.5q0 42 27 70.5t73 28.5q45 0 73 -28.5t28 -70.5t-28 -71t-73 -29t-72.5 28.5zM2201.5 1163.5q-27.5 28.5 -27.5 70.5q0 43 27 71.5t73 28.5q45 0 73.5 -29t28.5 -71t-28 -70.5t-74 -28.5q-45 0 -72.5 28.5zM2477 1305.5
q27 28.5 73 28.5q45 0 73.5 -29t28.5 -71t-28 -70.5t-74 -28.5q-45 0 -72.5 28.5t-27.5 70.5q0 43 27 71.5zM3398 160v-160h-1608v833l-543 -93q-138 -30 -209.5 -84t-71.5 -148q0 -66 34.5 -109t85.5 -69t139 -58q102 -38 164 -71t105.5 -94.5t43.5 -157.5
q0 -183 -122 -284t-363 -101h-337q-158 0 -284 73t-196.5 198t-70.5 273q0 103 41 205t120 184l114 -115q-50 -55 -76.5 -125t-26.5 -147q0 -102 47.5 -193t134 -146.5t197.5 -55.5h315q119 0 191.5 24.5t105.5 75t33 130.5q0 61 -32.5 101.5t-81 64.5t-133.5 55
q-102 37 -165.5 71t-108 98t-44.5 165q0 171 117 265.5t337 127.5l717 112v-853h397v697h177v-697h397v865h177v-857h283z" />
    <glyph glyph-name="uniFD1A" unicode="&#xfd1a;" horiz-adv-x="3389" arabic-form="final" 
d="M2341.5 1399q-27.5 29 -27.5 71t27.5 70.5t73.5 28.5q45 0 73 -28.5t28 -70.5t-28 -71t-74 -29q-45 0 -72.5 29zM2207.5 1163.5q-27.5 28.5 -27.5 70.5q0 43 27.5 71.5t73.5 28.5q45 0 73 -29t28 -71t-28 -70.5t-74 -28.5q-45 0 -72.5 28.5zM2483.5 1305.5
q27.5 28.5 73.5 28.5q45 0 73 -29t28 -71t-28 -70.5t-74 -28.5q-45 0 -72.5 28.5t-27.5 70.5q0 43 27.5 71.5zM3398 160v-160h-1608v833l-543 -93q-138 -30 -209.5 -84t-71.5 -148q0 -66 34.5 -109t85.5 -69t139 -58q102 -38 164 -71t105.5 -94.5t43.5 -157.5
q0 -183 -122 -284t-363 -101h-337q-158 0 -284 73t-196.5 198t-70.5 273q0 103 41 205t120 184l114 -115q-50 -55 -76.5 -125t-26.5 -147q0 -102 47.5 -193t134 -146.5t197.5 -55.5h315q119 0 191.5 24.5t105.5 75t33 130.5q0 61 -32.5 101.5t-81 64.5t-133.5 55
q-102 37 -165.5 71t-108 98t-44.5 165q0 171 117 265.5t337 127.5l717 112v-853h397v697h177v-697h397v865h177v-857h283zM693 -679q28 -29 28 -71t-28 -71t-74 -29q-45 0 -72.5 29t-27.5 71q0 43 27.5 71.5t73.5 28.5q45 0 73 -29zM969 -679q28 -29 28 -71t-28 -71t-74 -29
q-45 0 -72.5 29t-27.5 71q0 43 27.5 71.5t73.5 28.5q45 0 73 -29z" />
    <glyph glyph-name="uniFD21" unicode="&#xfd21;" horiz-adv-x="3546" arabic-form="final" 
d="M3555 160v-160h-1752v845l-496 -105q-95 -25 -154.5 -52t-93 -69t-33.5 -105q0 -66 34.5 -109t85.5 -69t139 -58q102 -38 164 -71t105.5 -94.5t43.5 -157.5q0 -183 -121.5 -284t-363.5 -101h-397q-158 0 -284 73t-196.5 198t-70.5 273q0 102 40.5 201.5t120.5 181.5
l114 -115q-103 -114 -103 -266q0 -102 47.5 -193t134 -146.5t197.5 -55.5h375q119 0 191.5 24.5t105.5 75t33 130.5q0 61 -32.5 101.5t-81 64.5t-133.5 55q-102 37 -165.5 71t-108 98t-44.5 165q0 169 115 258t339 129l670 124v-736q55 162 166 295t260 210.5t313 77.5
q245 0 374.5 -116.5t129.5 -338.5v-249h332zM3046 414q0 144 -88 221.5t-251 77.5q-153 0 -289.5 -75.5t-231.5 -202.5t-131 -275h991v254z" />
    <glyph glyph-name="uniFD22" unicode="&#xfd22;" horiz-adv-x="3394" arabic-form="final" 
d="M3403 160v-160h-1600v845l-496 -105q-95 -25 -154.5 -52t-93 -69t-33.5 -105q0 -66 34.5 -109t85.5 -69t139 -58q102 -38 164 -71t105.5 -94.5t43.5 -157.5q0 -183 -121.5 -284t-363.5 -101h-397q-158 0 -284 73t-196.5 198t-70.5 273q0 102 40.5 201.5t120.5 181.5
l114 -115q-103 -114 -103 -266q0 -102 47.5 -193t134 -146.5t197.5 -55.5h375q119 0 191.5 24.5t105.5 75t33 130.5q0 61 -32.5 101.5t-81 64.5t-133.5 55q-102 37 -165.5 71t-108 98t-44.5 165q0 169 115 258t339 129l670 124v-751q53 166 164 302.5t262 216t318 79.5
q245 0 374.5 -116.5t129.5 -338.5v-249h175zM3051 414q0 144 -88 221.5t-251 77.5q-153 0 -289.5 -75.5t-232 -202.5t-131.5 -275h992v254zM742 -667.5q28 -28.5 28 -70.5q0 -43 -28 -71.5t-74 -28.5q-45 0 -72.5 28.5t-27.5 71.5q0 42 27.5 70.5t73.5 28.5q45 0 73 -28.5z
M1018 -667.5q28 -28.5 28 -70.5q0 -43 -28 -71.5t-74 -28.5q-45 0 -72.5 28.5t-27.5 71.5q0 42 27.5 70.5t73.5 28.5q45 0 73 -28.5z" />
    <glyph glyph-name="uniFD23" unicode="&#xfd23;" horiz-adv-x="3536" arabic-form="final" 
d="M2564.5 1197.5q-27.5 28.5 -27.5 70.5q0 43 27.5 71.5t72.5 28.5t73.5 -29t28.5 -71t-28 -70.5t-74 -28.5q-45 0 -72.5 28.5zM3555 160v-160h-1752v845l-496 -105q-95 -25 -154.5 -52t-93 -69t-33.5 -105q0 -66 34.5 -109t85.5 -69t139 -58q102 -38 164 -71t105.5 -94.5
t43.5 -157.5q0 -183 -121.5 -284t-363.5 -101h-397q-158 0 -284 73t-196.5 198t-70.5 273q0 102 40.5 201.5t120.5 181.5l114 -115q-103 -114 -103 -266q0 -102 47.5 -193t134 -146.5t197.5 -55.5h375q119 0 191.5 24.5t105.5 75t33 130.5q0 61 -32.5 101.5t-81 64.5
t-133.5 55q-102 37 -165.5 71t-108 98t-44.5 165q0 169 115 258t339 129l670 124v-739q55 163 166 296.5t260.5 211.5t314.5 78q245 0 374.5 -116.5t129.5 -338.5v-249h330zM3048 414q0 144 -88.5 221.5t-251.5 77.5q-153 0 -289.5 -75.5t-231.5 -202.5t-131 -275h992v254z
" />
    <glyph glyph-name="uniFD24" unicode="&#xfd24;" horiz-adv-x="3641" arabic-form="final" 
d="M2726 1197.5q-28 28.5 -28 70.5q0 43 27.5 71.5t73.5 28.5q45 0 73 -29t28 -71t-28 -70.5t-73 -28.5t-73 28.5zM3651 160v-160h-1848v845l-496 -105q-95 -25 -154.5 -52t-93 -69t-33.5 -105q0 -66 34.5 -109t85.5 -69t139 -58q102 -38 164 -71t105.5 -94.5t43.5 -157.5
q0 -183 -121.5 -284t-363.5 -101h-397q-158 0 -284 73t-196.5 198t-70.5 273q0 102 40.5 201.5t120.5 181.5l114 -115q-103 -114 -103 -266q0 -102 47.5 -193t134 -146.5t197.5 -55.5h375q119 0 191.5 24.5t105.5 75t33 130.5q0 61 -32.5 101.5t-81 64.5t-133.5 55
q-102 37 -165.5 71t-108 98t-44.5 165q0 169 115 258t339 129l670 124v-865h37v8h18q36 188 147.5 349.5t275.5 258t349 96.5q245 0 374.5 -116.5t129.5 -338.5v-249h340zM3134 414q0 144 -88.5 221.5t-251.5 77.5q-153 0 -289.5 -75.5t-231.5 -202.5t-131 -275h992v254z
M899 -698.5q28 -28.5 28 -70.5t-28 -71t-73 -29t-72.5 28.5t-27.5 71.5q0 42 27 70.5t73 28.5q45 0 73 -28.5zM1175 -698.5q28 -28.5 28 -70.5t-28 -71t-73 -29t-73 29t-28 71t27.5 70.5t73.5 28.5q45 0 73 -28.5z" />
    <glyph glyph-name="uniFD29" unicode="&#xfd29;" horiz-adv-x="2624" arabic-form="final" 
d="M1520.5 1402.5q-27.5 28.5 -27.5 70.5q0 43 27 71.5t73 28.5q45 0 73 -29t28 -71t-28 -70.5t-73 -28.5t-72.5 28.5zM1386.5 1166.5q-27.5 28.5 -27.5 71.5q0 42 27.5 71t72.5 29t73.5 -29t28.5 -71t-28.5 -71t-73.5 -29t-72.5 28.5zM1662.5 1309q27.5 29 72.5 29
t73.5 -29t28.5 -71t-28.5 -71t-73.5 -29t-72.5 28.5t-27.5 71.5q0 42 27.5 71zM2110 1017h177v-1017h-1315v845l-545 -99v-785q0 -222 -83.5 -317t-248.5 -95h-93v153h82q85 0 125 63.5t40 196.5v913l901 146v-861h387v689h177v-689h396v857zM2288 160h345v-160h-345v160z
" />
    <glyph glyph-name="uniFD2A" unicode="&#xfd2a;" horiz-adv-x="2600" arabic-form="final" 
d="M2610 160v-160h-1638v845l-545 -99v-785q0 -222 -83.5 -317t-248.5 -95h-93v153h82q85 0 125 63.5t40 196.5v913l901 146v-861h387v689h177v-689h396v857h177v-857h323z" />
    <glyph glyph-name="uniFD2B" unicode="&#xfd2b;" horiz-adv-x="2614" arabic-form="final" 
d="M2623 160v-160h-1651v845l-545 -99v-785q0 -222 -83.5 -317t-248.5 -95h-93v153h82q85 0 125 63.5t40 196.5v913l901 146v-521q112 166 277.5 265t352.5 99q245 0 374.5 -116.5t129.5 -338.5v-249h339zM2107 414q0 144 -88 221.5t-251 77.5q-134 0 -256.5 -59
t-216 -160.5t-145.5 -226.5v-107h957v254z" />
    <glyph glyph-name="uniFD2C" unicode="&#xfd2c;" horiz-adv-x="2616" arabic-form="final" 
d="M1745 1197.5q-28 28.5 -28 70.5q0 43 27.5 71.5t73.5 28.5q45 0 73 -29t28 -71t-28 -70.5t-73 -28.5t-73 28.5zM2625 160v-160h-1653v845l-545 -99v-785q0 -222 -83.5 -317t-248.5 -95h-93v153h82q85 0 125 63.5t40 196.5v913l901 146v-521q112 166 277.5 265t352.5 99
q245 0 374.5 -116.5t129.5 -338.5v-249h341zM2107 414q0 144 -88 221.5t-251 77.5q-134 0 -256.5 -59t-216 -160.5t-145.5 -226.5v-107h957v254z" />
    <glyph glyph-name="uniFE82" unicode="&#x622;" horiz-adv-x="582" arabic-form="final" 
d="M342 160h209v-160h-386v1360h177v-1200zM476.5 1608q-55.5 -38 -120.5 -38q-42 0 -80 11t-89 32q-38 16 -60.5 23t-43.5 7q-28 0 -54.5 -18.5t-49.5 -56.5l-72 37q30 61 77.5 95t108.5 34q18 0 38 -3q46 -8 117 -37q42 -16 64.5 -23t45.5 -7q39 0 73 23t66 77l79 -46
q-44 -72 -99.5 -110z" />
    <glyph glyph-name="uniFE84" unicode="&#x623;" horiz-adv-x="565" arabic-form="final" 
d="M342 160h209v-160h-386v1360h177v-1200zM235.5 1549q-80.5 -3 -228.5 -17v88l173 20q-38 22 -62 65t-24 94q0 91 60 139t169 48h107l-28 -91h-70q-81 0 -116 -26t-35 -92q0 -60 41.5 -98.5t106.5 -38.5h177v-88q-190 0 -270.5 -3z" />
    <glyph glyph-name="uniFE86" unicode="&#x624;" horiz-adv-x="1219" arabic-form="final" 
d="M1228 0h-201q-1 -204 -126.5 -305.5t-355.5 -101.5q-100 0 -182.5 25.5t-189.5 79.5l17 154q78 -45 172.5 -72t182.5 -27q150 0 226.5 59t77.5 188h-255q-142 0 -260 70.5t-186.5 191t-68.5 265.5q0 135 68.5 247.5t186 177.5t258.5 65h435v-857h201v-160zM849 160v706
h-258q-92 0 -169 -46t-121.5 -124.5t-44.5 -172.5q0 -102 44.5 -185t121.5 -130.5t170 -47.5h257zM603.5 1206q-80.5 -3 -228.5 -17v88l173 20q-38 22 -62 65t-24 94q0 91 60 139t169 48h107l-28 -91h-70q-81 0 -116 -26t-35 -92q0 -60 41.5 -98.5t106.5 -38.5h177v-88
q-190 0 -270.5 -3z" />
    <glyph glyph-name="uniFE88" unicode="&#x625;" horiz-adv-x="606" arabic-form="final" 
d="M342 160h209v-160h-386v1360h177v-1200zM459 -625q-110 0 -181 -4t-184 -20v91l173 24q-37 22 -60 64.5t-23 94.5q0 101 58.5 152t167.5 51h108l-28 -104h-70q-80 0 -115.5 -27t-35.5 -93q0 -60 41.5 -99t106.5 -39h177v-91h-135z" />
    <glyph glyph-name="uniFE8A" unicode="&#x626;" horiz-adv-x="1829" arabic-form="final" 
d="M206 313q41 102 120 184l114 -115q-50 -55 -76.5 -125t-26.5 -147q0 -99 47.5 -188t134 -144t197.5 -55h429q338 0 338 236v41h-223v160h579v-160h-179v-45q0 -121 -55 -208.5t-165.5 -135t-272.5 -47.5h-451q-158 0 -284 73t-196.5 198t-70.5 273q0 103 41 205z
M263.5 686q-80.5 -3 -228.5 -17v88l173 20q-38 22 -62 65t-24 94q0 91 60 139t169 48h107l-28 -91h-70q-81 0 -116 -26t-35 -92q0 -60 41.5 -98.5t106.5 -38.5h177v-88q-190 0 -270.5 -3z" />
    <glyph glyph-name="uniFE8B" unicode="&#x626;" horiz-adv-x="660" arabic-form="initial" 
d="M-10 160h328v857h177v-1017h-505v160zM382.5 1206q-80.5 -3 -228.5 -17v88l173 20q-38 22 -62 65t-24 94q0 91 60 139t169 48h107l-28 -91h-70q-81 0 -116 -26t-35 -92q0 -60 41.5 -98.5t106.5 -38.5h177v-88q-190 0 -270.5 -3z" />
    <glyph glyph-name="uniFE8C" unicode="&#x626;" horiz-adv-x="813" arabic-form="medial" 
d="M-10 160h328v857h177v-857h327v-160h-832v160zM388.5 1206q-80.5 -3 -228.5 -17v88l173 20q-38 22 -62 65t-24 94q0 91 60 139t169 48h107l-28 -91h-70q-81 0 -116 -26t-35 -92q0 -60 41.5 -98.5t106.5 -38.5h177v-88q-190 0 -270.5 -3z" />
    <glyph glyph-name="uniFE8E" unicode="&#x627;" horiz-adv-x="542" arabic-form="final" 
d="M342 160h209v-160h-386v1360h177v-1200z" />
    <glyph glyph-name="uniFE90" unicode="&#x628;" horiz-adv-x="2078" arabic-form="final" 
d="M2088 160v-160h-1395q-152 0 -272.5 72.5t-188 193.5t-67.5 261q0 102 41 203t125 182l125 -98q-54 -57 -83 -129t-29 -151q0 -100 48 -186t136 -137t202 -51h853v857h177v-857h328zM890.5 -396.5q-27.5 28.5 -27.5 71.5q0 42 27 71t73 29q45 0 73 -29t28 -71t-28 -71
t-73 -29t-72.5 28.5z" />
    <glyph glyph-name="uniFE91" unicode="&#x628;" horiz-adv-x="660" arabic-form="initial" 
d="M-10 160h328v857h177v-1017h-505v160zM268.5 -396.5q-27.5 28.5 -27.5 71.5q0 42 27 71t73 29q45 0 73 -29t28 -71t-28 -71t-73 -29t-72.5 28.5z" />
    <glyph glyph-name="uniFE92" unicode="&#x628;" horiz-adv-x="813" arabic-form="medial" 
d="M-10 160h328v857h177v-857h327v-160h-832v160zM339.5 -396.5q-27.5 28.5 -27.5 71.5q0 42 27 71t73 29q45 0 73 -29t28 -71t-28 -71t-73 -29t-72.5 28.5z" />
    <glyph glyph-name="uniFE94" unicode="&#x629;" horiz-adv-x="1211" arabic-form="final" 
d="M1220 160v-160h-701q-120 0 -221 58.5t-160 159.5t-59 222q0 112 58.5 205.5t159 147.5t219.5 54h199v170h177v-857h328zM715 701h-205q-74 0 -135.5 -33.5t-97 -93t-35.5 -132.5q0 -79 35.5 -143.5t97 -101.5t135.5 -37h205v541zM610.5 1187q-27.5 29 -27.5 71t27.5 71
t73.5 29q45 0 73 -29t28 -71t-28 -71t-74 -29q-45 0 -72.5 29zM335.5 1184.5q-27.5 28.5 -27.5 71.5q0 42 27 71t73 29q45 0 73 -29t28 -71t-28 -71t-73 -29t-72.5 28.5z" />
    <glyph glyph-name="uniFE96" unicode="&#x62a;" horiz-adv-x="2078" arabic-form="final" 
d="M2088 160v-160h-1395q-152 0 -272.5 72.5t-188 193.5t-67.5 261q0 102 41 203t125 182l125 -98q-54 -57 -83 -129t-29 -151q0 -100 48 -186t136 -137t202 -51h853v857h177v-857h328zM1072.5 1075q-27.5 29 -27.5 71t27.5 71t73.5 29q45 0 73 -29t28 -71t-28 -71t-74 -29
q-45 0 -72.5 29zM797.5 1072.5q-27.5 28.5 -27.5 71.5q0 42 27 71t73 29q45 0 73 -29t28 -71t-28 -71t-73 -29t-72.5 28.5z" />
    <glyph glyph-name="uniFE97" unicode="&#x62a;" horiz-adv-x="660" arabic-form="initial" 
d="M-10 160h328v857h177v-1017h-505v160zM468.5 1187q-27.5 29 -27.5 71t27.5 71t73.5 29q45 0 73 -29t28 -71t-28 -71t-74 -29q-45 0 -72.5 29zM193.5 1184.5q-27.5 28.5 -27.5 71.5q0 42 27 71t73 29q45 0 73 -29t28 -71t-28 -71t-73 -29t-72.5 28.5z" />
    <glyph glyph-name="uniFE98" unicode="&#x62a;" horiz-adv-x="813" arabic-form="medial" 
d="M-10 160h328v857h177v-857h327v-160h-832v160zM474.5 1187q-27.5 29 -27.5 71t27.5 71t73.5 29q45 0 73 -29t28 -71t-28 -71t-74 -29q-45 0 -72.5 29zM199.5 1184.5q-27.5 28.5 -27.5 71.5q0 42 27 71t73 29q45 0 73 -29t28 -71t-28 -71t-73 -29t-72.5 28.5z" />
    <glyph glyph-name="uniFE9A" unicode="&#x62b;" horiz-adv-x="2078" arabic-form="final" 
d="M2088 160v-160h-1395q-152 0 -272.5 72.5t-188 193.5t-67.5 261q0 102 41 203t125 182l125 -98q-54 -57 -83 -129t-29 -151q0 -100 48 -186t136 -137t202 -51h853v857h177v-857h328zM841.5 1358q-27.5 29 -27.5 71t27.5 70.5t73.5 28.5q45 0 73 -28.5t28 -70.5t-28 -71
t-74 -29q-45 0 -72.5 29zM708 1122.5q-28 28.5 -28 70.5q0 43 27.5 71.5t73.5 28.5q45 0 73 -29t28 -71t-28 -70.5t-73 -28.5t-73 28.5zM983.5 1122.5q-27.5 28.5 -27.5 70.5q0 43 27.5 71.5t73.5 28.5q45 0 73 -29t28 -71t-28 -70.5t-74 -28.5q-45 0 -72.5 28.5z" />
    <glyph glyph-name="uniFE9B" unicode="&#x62b;" horiz-adv-x="660" arabic-form="initial" 
d="M-10 160h328v857h177v-1017h-505v160zM327.5 1399q-27.5 29 -27.5 71t27.5 70.5t73.5 28.5q45 0 73 -28.5t28 -70.5t-28 -71t-74 -29q-45 0 -72.5 29zM194 1163.5q-28 28.5 -28 70.5q0 43 27.5 71.5t73.5 28.5q45 0 73 -29t28 -71t-28 -70.5t-73 -28.5t-73 28.5z
M469.5 1163.5q-27.5 28.5 -27.5 70.5q0 43 27.5 71.5t73.5 28.5q45 0 73 -29t28 -71t-28 -70.5t-74 -28.5q-45 0 -72.5 28.5z" />
    <glyph glyph-name="uniFE9C" unicode="&#x62b;" horiz-adv-x="813" arabic-form="medial" 
d="M-10 160h328v857h177v-857h327v-160h-832v160zM333.5 1399q-27.5 29 -27.5 71t27.5 70.5t73.5 28.5q45 0 73 -28.5t28 -70.5t-28 -71t-74 -29q-45 0 -72.5 29zM200 1163.5q-28 28.5 -28 70.5q0 43 27.5 71.5t73.5 28.5q45 0 73 -29t28 -71t-28 -70.5t-73 -28.5t-73 28.5z
M475.5 1163.5q-27.5 28.5 -27.5 70.5q0 43 27.5 71.5t73.5 28.5q45 0 73 -29t28 -71t-28 -70.5t-74 -28.5q-45 0 -72.5 28.5z" />
    <glyph glyph-name="uniFE9E" unicode="&#x62c;" horiz-adv-x="1340" arabic-form="final" 
d="M1089 335q38 -79 100.5 -126.5t159.5 -48.5v-160q-156 1 -257.5 81.5t-167.5 229.5q-62 56 -101 85t-91 46t-125 17q-99 0 -180 -44.5t-128 -125t-47 -182.5q0 -101 49.5 -181t133.5 -125t184 -45q124 0 211 67l105 -112q-72 -53 -153.5 -81t-167.5 -28
q-148 0 -270.5 67.5t-193.5 182t-71 252.5q0 140 67.5 254.5t186.5 180t267 65.5q135 0 242 -59q-37 117 -83 193.5t-117.5 119t-176.5 42.5h-2q-82 0 -158 -28.5t-128 -74.5l-87 109q80 71 181.5 107t201.5 36h1q164 0 266 -60t161.5 -166t111.5 -280q38 -129 76 -208z
M530.5 42.5q-27.5 28.5 -27.5 70.5q0 43 27 71.5t73 28.5q45 0 73 -29t28 -71t-28 -70.5t-73 -28.5t-72.5 28.5z" />
    <glyph glyph-name="uniFE9F" unicode="&#x62c;" horiz-adv-x="1545" arabic-form="initial" 
d="M1380 160v-160h-1390v160h1066q-109 126 -171 350q-36 130 -83 212t-121.5 125.5t-187.5 43.5q-82 0 -158.5 -28t-128.5 -74l-86 109q80 70 181.5 106.5t201.5 36.5q167 0 269.5 -56.5t161.5 -160t109 -275.5q37 -133 75 -214.5t99.5 -128t158.5 -46.5h4zM498.5 -396.5
q-27.5 28.5 -27.5 71.5q0 42 27 71t73 29q45 0 73 -29t28 -71t-28 -71t-73 -29t-72.5 28.5z" />
    <glyph glyph-name="uniFEA0" unicode="&#x62c;" horiz-adv-x="1371" arabic-form="medial" 
d="M1380 160v-160h-1390v160h1066q-109 126 -171 350q-36 130 -83 212t-121.5 125.5t-187.5 43.5q-82 0 -158.5 -28t-128.5 -74l-86 109q80 70 181.5 106.5t201.5 36.5q167 0 269.5 -56.5t161.5 -160t109 -275.5q37 -133 75 -214.5t99.5 -128t158.5 -46.5h4zM498.5 -396.5
q-27.5 28.5 -27.5 71.5q0 42 27 71t73 29q45 0 73 -29t28 -71t-28 -71t-73 -29t-72.5 28.5z" />
    <glyph glyph-name="uniFEA2" unicode="&#x62d;" horiz-adv-x="1340" arabic-form="final" 
d="M1089 335q38 -79 100.5 -126.5t159.5 -48.5v-160q-156 1 -257.5 81.5t-167.5 229.5q-62 56 -101 85t-91 46t-125 17q-99 0 -180 -44.5t-128 -125t-47 -182.5q0 -101 49.5 -181t133.5 -125t184 -45q124 0 211 67l105 -112q-72 -53 -153.5 -81t-167.5 -28
q-148 0 -270.5 67.5t-193.5 182t-71 252.5q0 140 67.5 254.5t186.5 180t267 65.5q135 0 242 -59q-37 117 -83 193.5t-117.5 119t-176.5 42.5h-2q-82 0 -158 -28.5t-128 -74.5l-87 109q80 71 181.5 107t201.5 36h1q164 0 266 -60t161.5 -166t111.5 -280q38 -129 76 -208z" />
    <glyph glyph-name="uniFEA3" unicode="&#x62d;" horiz-adv-x="1545" arabic-form="initial" 
d="M1380 160v-160h-1390v160h1066q-109 126 -171 350q-36 130 -83 212t-121.5 125.5t-187.5 43.5q-82 0 -158.5 -28t-128.5 -74l-86 109q80 70 181.5 106.5t201.5 36.5q167 0 269.5 -56.5t161.5 -160t109 -275.5q37 -133 75 -214.5t99.5 -128t158.5 -46.5h4z" />
    <glyph glyph-name="uniFEA4" unicode="&#x62d;" horiz-adv-x="1371" arabic-form="medial" 
d="M1380 160v-160h-1390v160h1069q-110 128 -174 358q-36 129 -82.5 209t-121 122t-188.5 42q-82 0 -158.5 -28t-128.5 -74l-86 109q80 70 181.5 106.5t201.5 36.5q167 0 268.5 -56.5t159.5 -159t112 -276.5q38 -132 75.5 -212.5t99.5 -128.5t158 -48h4z" />
    <glyph glyph-name="uniFEA6" unicode="&#x62e;" horiz-adv-x="1340" arabic-form="final" 
d="M1089 335q38 -79 100.5 -126.5t159.5 -48.5v-160q-156 1 -257.5 81.5t-167.5 229.5q-62 56 -101 85t-91 46t-125 17q-99 0 -180 -44.5t-128 -125t-47 -182.5q0 -101 49.5 -181t133.5 -125t184 -45q124 0 211 67l105 -112q-72 -53 -153.5 -81t-167.5 -28
q-148 0 -270.5 67.5t-193.5 182t-71 252.5q0 140 67.5 254.5t186.5 180t267 65.5q135 0 242 -59q-37 117 -83 193.5t-117.5 119t-176.5 42.5h-2q-82 0 -158 -28.5t-128 -74.5l-87 109q80 71 181.5 107t201.5 36h1q164 0 266 -60t161.5 -166t111.5 -280q38 -129 76 -208z
M444 1202.5q-28 28.5 -28 70.5q0 43 27.5 71.5t73.5 28.5q45 0 73 -29t28 -71t-28 -70.5t-73 -28.5t-73 28.5z" />
    <glyph glyph-name="uniFEA7" unicode="&#x62e;" horiz-adv-x="1545" arabic-form="initial" 
d="M1380 160v-160h-1390v160h1066q-109 126 -171 350q-36 130 -83 212t-121.5 125.5t-187.5 43.5q-82 0 -158.5 -28t-128.5 -74l-86 109q80 70 181.5 106.5t201.5 36.5q167 0 269.5 -56.5t161.5 -160t109 -275.5q37 -133 75 -214.5t99.5 -128t158.5 -46.5h4zM428 1201.5
q-28 28.5 -28 70.5q0 43 27.5 71.5t73.5 28.5q45 0 73 -29t28 -71t-28 -70.5t-73 -28.5t-73 28.5z" />
    <glyph glyph-name="uniFEA8" unicode="&#x62e;" horiz-adv-x="1371" arabic-form="medial" 
d="M1380 160v-160h-1390v160h1069q-110 128 -174 358q-36 129 -82.5 209t-121 122t-188.5 42q-82 0 -158.5 -28t-128.5 -74l-86 109q80 70 181.5 106.5t201.5 36.5q167 0 268.5 -56.5t159.5 -159t112 -276.5q38 -132 75.5 -212.5t99.5 -128.5t158 -48h4zM428 1212.5
q-28 28.5 -28 70.5q0 43 27.5 71.5t73.5 28.5q45 0 73 -29t28 -71t-28 -70.5t-73 -28.5t-73 28.5z" />
    <glyph glyph-name="uniFEAA" unicode="&#x62f;" horiz-adv-x="1281" arabic-form="final" 
d="M1290 160v-160h-1211v160h891q-25 172 -99.5 323.5t-188.5 261t-251 160.5l82 141q167 -60 302 -191t221.5 -311t112.5 -384h141z" />
    <glyph glyph-name="uniFEAC" unicode="&#x630;" horiz-adv-x="1281" arabic-form="final" 
d="M1290 160v-160h-1211v160h891q-25 172 -99.5 323.5t-188.5 261t-251 160.5l82 141q167 -60 302 -191t221.5 -311t112.5 -384h141zM565 1217.5q-28 28.5 -28 70.5q0 43 27.5 71.5t73.5 28.5q45 0 73 -29t28 -71t-28 -70.5t-73 -28.5t-73 28.5z" />
    <glyph glyph-name="uniFEAE" unicode="&#x631;" horiz-adv-x="746" arabic-form="final" 
d="M755 0h-317q-1 -169 -83.5 -259.5t-244.5 -90.5h-108v168h89q83 0 129 55t46 144v1003h172v-860h317v-160z" />
    <glyph glyph-name="uniFEB0" unicode="&#x632;" horiz-adv-x="746" arabic-form="final" 
d="M755 0h-317q-1 -169 -83.5 -259.5t-244.5 -90.5h-108v168h89q83 0 129 55t46 144v1003h172v-860h317v-160zM289 1197.5q-28 28.5 -28 70.5q0 43 27.5 71.5t73.5 28.5q45 0 73 -29t28 -71t-28 -70.5t-73 -28.5t-73 28.5z" />
    <glyph glyph-name="uniFEB2" unicode="&#x633;" horiz-adv-x="2511" arabic-form="final" 
d="M2520 160v-160h-1403q-15 -143 -92 -241t-197 -147t-265 -49q-158 0 -283.5 73t-196 197.5t-70.5 272.5q-1 104 40 206.5t121 184.5l114 -115q-49 -53 -75.5 -123.5t-26.5 -151.5q0 -107 48 -195t134.5 -138.5t195.5 -50.5q102 0 188 37t138.5 114t52.5 191v778h177v-683
h390v689h177v-689h396v857h177v-857h260z" />
    <glyph glyph-name="uniFEB3" unicode="&#x633;" horiz-adv-x="1808" arabic-form="initial" 
d="M1466 1017h177v-1017h-1653v160h327v684h177v-684h399v689h177v-689h396v857z" />
    <glyph glyph-name="uniFEB4" unicode="&#x633;" horiz-adv-x="1975" arabic-form="medial" 
d="M1643 160h341v-160h-1994v160h327v684h177v-684h399v689h177v-689h396v857h177v-857z" />
    <glyph glyph-name="uniFEB6" unicode="&#x634;" horiz-adv-x="2530" arabic-form="final" 
d="M2539 160v-160h-1403q-15 -143 -92 -241t-197 -147t-265 -49q-158 0 -283.5 73t-196 197.5t-70.5 272.5q-1 104 40 206.5t121 184.5l114 -115q-49 -53 -75.5 -123.5t-26.5 -151.5q0 -107 48 -195t134.5 -138.5t195.5 -50.5q102 0 188 37t138.5 114t52.5 191v778h177v-683
h390v689h177v-689h396v857h177v-857h260zM1597.5 1329q-27.5 29 -27.5 71t27.5 70.5t73.5 28.5q45 0 73 -28.5t28 -70.5t-28 -71t-74 -29q-45 0 -72.5 29zM1464 1093.5q-28 28.5 -28 70.5q0 43 27.5 71.5t73.5 28.5q45 0 73 -29t28 -71t-28 -70.5t-73 -28.5t-73 28.5z
M1739.5 1093.5q-27.5 28.5 -27.5 70.5q0 43 27.5 71.5t73.5 28.5q45 0 73 -29t28 -71t-28 -70.5t-74 -28.5q-45 0 -72.5 28.5z" />
    <glyph glyph-name="uniFEB7" unicode="&#x634;" horiz-adv-x="1808" arabic-form="initial" 
d="M1466 1017h177v-1017h-1653v160h327v684h177v-684h399v689h177v-689h396v857zM904.5 1327q-27.5 29 -27.5 71t27.5 70.5t73.5 28.5q45 0 73 -28.5t28 -70.5t-28 -71t-74 -29q-45 0 -72.5 29zM771 1091.5q-28 28.5 -28 70.5q0 43 27.5 71.5t73.5 28.5q45 0 73 -29t28 -71
t-28 -70.5t-73 -28.5t-73 28.5zM1046.5 1091.5q-27.5 28.5 -27.5 70.5q0 43 27.5 71.5t73.5 28.5q45 0 73 -29t28 -71t-28 -70.5t-74 -28.5q-45 0 -72.5 28.5z" />
    <glyph glyph-name="uniFEB8" unicode="&#x634;" horiz-adv-x="1975" arabic-form="medial" 
d="M1643 160h341v-160h-1994v160h327v684h177v-684h399v689h177v-689h396v857h177v-857zM901.5 1328q-27.5 29 -27.5 71t27.5 70.5t73.5 28.5q45 0 73 -28.5t28 -70.5t-28 -71t-74 -29q-45 0 -72.5 29zM768 1092.5q-28 28.5 -28 70.5q0 43 27.5 71.5t73.5 28.5q45 0 73 -29
t28 -71t-28 -70.5t-73 -28.5t-73 28.5zM1043.5 1092.5q-27.5 28.5 -27.5 70.5q0 43 27.5 71.5t73.5 28.5q45 0 73 -29t28 -71t-28 -70.5t-74 -28.5q-45 0 -72.5 28.5z" />
    <glyph glyph-name="uniFEBA" unicode="&#x635;" horiz-adv-x="2481" arabic-form="final" 
d="M2490 160v-160h-1306q-15 -142 -92 -240.5t-197.5 -147.5t-264.5 -49h-1q-157 1 -282.5 74t-196.5 197t-71 272q0 104 41 207t121 184l114 -115q-49 -53 -75.5 -123.5t-26.5 -151.5q0 -107 48 -195t134 -138.5t195 -50.5q103 0 189 37t138 114t52 191v778h178v-356
q73 112 172.5 197t219 132.5t247.5 47.5q245 0 374.5 -116.5t129.5 -338.5v-249h160zM2153 414q0 144 -88 221.5t-251 77.5q-138 0 -264 -62.5t-220 -170t-143 -238.5v-82h966v254z" />
    <glyph glyph-name="uniFEBB" unicode="&#x635;" horiz-adv-x="1797" arabic-form="initial" 
d="M1502.5 747.5q129.5 -116.5 129.5 -338.5v-409h-1642v160h328v683h177v-346q112 167 278.5 267t354.5 100q245 0 374.5 -116.5zM1455 414q0 144 -88.5 221.5t-251.5 77.5q-135 0 -258.5 -60t-217 -163.5t-144.5 -230.5v-99h960v254z" />
    <glyph glyph-name="uniFEBC" unicode="&#x635;" horiz-adv-x="1940" arabic-form="medial" 
d="M1949 160v-160h-1959v160h328v683h177v-346q112 167 278.5 267t354.5 100q245 0 374.5 -116.5t129.5 -338.5v-249h317zM1455 414q0 144 -88.5 221.5t-251.5 77.5q-135 0 -258.5 -60t-217 -163.5t-144.5 -230.5v-99h960v254z" />
    <glyph glyph-name="uniFEBE" unicode="&#x636;" horiz-adv-x="2481" arabic-form="final" 
d="M2490 160v-160h-1306q-15 -142 -92 -240.5t-197.5 -147.5t-264.5 -49h-1q-157 1 -282.5 74t-196.5 197t-71 272q0 104 41 207t121 184l114 -115q-49 -53 -75.5 -123.5t-26.5 -151.5q0 -107 48 -195t134 -138.5t195 -50.5q103 0 189 37t138 114t52 191v778h178v-356
q73 112 172.5 197t219 132.5t247.5 47.5q245 0 374.5 -116.5t129.5 -338.5v-249h160zM2153 414q0 144 -88 221.5t-251 77.5q-138 0 -264 -62.5t-220 -170t-143 -238.5v-82h966v254zM1602 1049.5q-28 28.5 -28 70.5q0 43 27.5 71.5t73.5 28.5q45 0 73 -29t28 -71t-28 -70.5
t-73 -28.5t-73 28.5z" />
    <glyph glyph-name="uniFEBF" unicode="&#x636;" horiz-adv-x="1817" arabic-form="initial" 
d="M1502.5 747.5q129.5 -116.5 129.5 -338.5v-409h-1642v160h328v683h177v-346q112 167 278.5 267t354.5 100q245 0 374.5 -116.5zM1455 414q0 144 -88.5 221.5t-251.5 77.5q-135 0 -258.5 -60t-217 -163.5t-144.5 -230.5v-99h960v254zM999 1039.5q-28 28.5 -28 70.5
q0 43 27.5 71.5t73.5 28.5q45 0 73 -29t28 -71t-28 -70.5t-73 -28.5t-73 28.5z" />
    <glyph glyph-name="uniFEC0" unicode="&#x636;" horiz-adv-x="1940" arabic-form="medial" 
d="M1949 160v-160h-1959v160h328v683h177v-346q112 167 278.5 267t354.5 100q245 0 374.5 -116.5t129.5 -338.5v-249h317zM1455 414q0 144 -88.5 221.5t-251.5 77.5q-135 0 -258.5 -60t-217 -163.5t-144.5 -230.5v-99h960v254zM964 1128.5q-28 28.5 -28 70.5q0 43 27.5 71.5
t73.5 28.5q45 0 73 -29t28 -71t-28 -70.5t-73 -28.5t-73 28.5z" />
    <glyph glyph-name="uniFEC2" unicode="&#x637;" horiz-adv-x="2018" arabic-form="final" 
d="M2028 160v-160h-1908v160h269v1200h177v-888q72 116 173 204.5t223 138t253 49.5q245 0 374.5 -116.5t129.5 -338.5v-249h309zM1542 414q0 144 -88.5 221.5t-251.5 77.5q-143 0 -272 -66.5t-224 -180t-140 -250.5v-56h976v254z" />
    <glyph glyph-name="uniFEC3" unicode="&#x637;" horiz-adv-x="1740" arabic-form="initial" 
d="M1445.5 747.5q129.5 -116.5 129.5 -338.5v-409h-1585v160h269v1200h177v-867q73 110 172 193.5t217.5 130.5t245.5 47q245 0 374.5 -116.5zM1398 414q0 144 -88 221.5t-251 77.5q-137 0 -261 -61t-217.5 -165.5t-144.5 -232.5v-94h962v254z" />
    <glyph glyph-name="uniFEC4" unicode="&#x637;" horiz-adv-x="1898" arabic-form="medial" 
d="M1908 160v-160h-1918v160h269v1200h177v-888q72 116 173 204.5t223 138t253 49.5q245 0 374.5 -116.5t129.5 -338.5v-249h319zM1412 414q0 144 -88.5 221.5t-251.5 77.5q-143 0 -272 -66.5t-224 -180t-140 -250.5v-56h976v254z" />
    <glyph glyph-name="uniFEC6" unicode="&#x638;" horiz-adv-x="2018" arabic-form="final" 
d="M2028 160v-160h-1908v160h269v1200h177v-888q72 116 173 204.5t223 138t253 49.5q245 0 374.5 -116.5t129.5 -338.5v-249h309zM1542 414q0 144 -88.5 221.5t-251.5 77.5q-143 0 -272 -66.5t-224 -180t-140 -250.5v-56h976v254zM1094 1043.5q-28 28.5 -28 70.5
q0 43 27.5 71.5t73.5 28.5q45 0 73 -29t28 -71t-28 -70.5t-73 -28.5t-73 28.5z" />
    <glyph glyph-name="uniFEC7" unicode="&#x638;" horiz-adv-x="1760" arabic-form="initial" 
d="M1445.5 747.5q129.5 -116.5 129.5 -338.5v-409h-1585v160h269v1200h177v-867q73 110 172 193.5t217.5 130.5t245.5 47q245 0 374.5 -116.5zM1398 414q0 144 -88 221.5t-251 77.5q-137 0 -261 -61t-217.5 -165.5t-144.5 -232.5v-94h962v254zM988 1053.5q-28 28.5 -28 70.5
q0 43 27.5 71.5t73.5 28.5q45 0 73 -29t28 -71t-28 -70.5t-73 -28.5t-73 28.5z" />
    <glyph glyph-name="uniFEC8" unicode="&#x638;" horiz-adv-x="1898" arabic-form="medial" 
d="M1908 160v-160h-1918v160h269v1200h177v-888q72 116 173 204.5t223 138t253 49.5q245 0 374.5 -116.5t129.5 -338.5v-249h319zM1412 414q0 144 -88.5 221.5t-251.5 77.5q-143 0 -272 -66.5t-224 -180t-140 -250.5v-56h976v254zM955 1035.5q-28 28.5 -28 70.5
q0 43 27.5 71.5t73.5 28.5q45 0 73 -29t28 -71t-28 -70.5t-73 -28.5t-73 28.5z" />
    <glyph glyph-name="uniFECA" unicode="&#x639;" horiz-adv-x="1342" arabic-form="final" 
d="M1351 160v-160q-96 0 -164.5 28t-118.5 75t-110 126q-57 105 -146 161.5t-203 56.5q-98 0 -179.5 -45.5t-128.5 -124t-47 -174.5q0 -101 49.5 -181t133.5 -125t184 -45q124 0 211 67l104 -108q-71 -53 -152.5 -81t-167.5 -28q-148 0 -270.5 67.5t-193.5 182t-71 252.5
q0 105 39.5 196.5t110.5 159t163 103.5q-13 42 -13 93q0 178 121.5 271t348.5 93h199v-153h-196q-103 0 -176 -30t-111 -83.5t-38 -124.5q0 -11 2 -33q28 3 56 3q160 0 280.5 -69.5t200.5 -199.5q96 -168 283 -170z" />
    <glyph glyph-name="uniFECB" unicode="&#x639;" horiz-adv-x="1474" arabic-form="initial" 
d="M1289 159v-159h-1299v159l430 -1q-65 34 -117.5 93.5t-83 135t-30.5 155.5q0 146 67 259t190 176t286 63q100 0 201 -36.5t181 -106.5l-108 -114q-54 48 -125 73.5t-149 25.5q-115 0 -199 -46t-129 -129.5t-45 -194.5q0 -92 48.5 -173.5t132.5 -130.5t185 -49h564z" />
    <glyph glyph-name="uniFECC" unicode="&#x639;" horiz-adv-x="1279" arabic-form="medial" 
d="M1288 159v-159h-1298v159l442 -1q-65 34 -117.5 93.5t-83 135t-30.5 155.5q0 146 67 259t190 176t286 63q99 0 200.5 -36.5t181.5 -106.5l-108 -114q-54 48 -125 73.5t-149 25.5q-115 0 -199 -46t-129 -129.5t-45 -194.5q0 -92 48.5 -173.5t132.5 -130.5t185 -49h551z
" />
    <glyph glyph-name="uniFECE" unicode="&#x63a;" horiz-adv-x="1342" arabic-form="final" 
d="M1351 160v-160q-96 0 -164.5 28t-118.5 75t-110 126q-57 105 -146 161.5t-203 56.5q-98 0 -179.5 -45.5t-128.5 -124t-47 -174.5q0 -101 49.5 -181t133.5 -125t184 -45q124 0 211 67l104 -108q-71 -53 -152.5 -81t-167.5 -28q-148 0 -270.5 67.5t-193.5 182t-71 252.5
q0 105 39.5 196.5t110.5 159t163 103.5q-13 42 -13 93q0 178 121.5 271t348.5 93h199v-153h-196q-103 0 -176 -30t-111 -83.5t-38 -124.5q0 -11 2 -33q28 3 56 3q160 0 280.5 -69.5t200.5 -199.5q96 -168 283 -170zM636 1197.5q-28 28.5 -28 70.5q0 43 27.5 71.5t73.5 28.5
q45 0 73 -29t28 -71t-28 -70.5t-73 -28.5t-73 28.5z" />
    <glyph glyph-name="uniFECF" unicode="&#x63a;" horiz-adv-x="1474" arabic-form="initial" 
d="M1289 159v-159h-1299v159l430 -1q-65 34 -117.5 93.5t-83 135t-30.5 155.5q0 146 67 259t190 176t286 63q100 0 201 -36.5t181 -106.5l-108 -114q-54 48 -125 73.5t-149 25.5q-115 0 -199 -46t-129 -129.5t-45 -194.5q0 -92 48.5 -173.5t132.5 -130.5t185 -49h564z
M645 1212.5q-28 28.5 -28 70.5q0 43 27.5 71.5t73.5 28.5q45 0 73 -29t28 -71t-28 -70.5t-73 -28.5t-73 28.5z" />
    <glyph glyph-name="uniFED0" unicode="&#x63a;" horiz-adv-x="1279" arabic-form="medial" 
d="M1288 159v-159h-1298v159l442 -1q-65 34 -117.5 93.5t-83 135t-30.5 155.5q0 146 67 259t190 176t286 63q99 0 200.5 -36.5t181.5 -106.5l-108 -114q-54 48 -125 73.5t-149 25.5q-115 0 -199 -46t-129 -129.5t-45 -194.5q0 -92 48.5 -173.5t132.5 -130.5t185 -49h551z
M662 1212.5q-28 28.5 -28 70.5q0 43 27.5 71.5t73.5 28.5q45 0 73 -29t28 -71t-28 -70.5t-73 -28.5t-73 28.5z" />
    <glyph glyph-name="uniFED2" unicode="&#x641;" horiz-adv-x="2170" arabic-form="final" 
d="M2179 160v-160h-1612q-152 0 -273 72t-188.5 193.5t-67.5 261.5q0 102 41.5 203t125.5 182l125 -98q-54 -57 -83.5 -129.5t-29.5 -150.5q0 -100 48 -186t136 -137t202 -51h444q-68 72 -105.5 166.5t-37.5 200.5q0 135 68 247.5t185.5 177.5t258.5 65h434v-857h329z
M1673 866h-258q-92 0 -169 -46t-121.5 -124.5t-44.5 -172.5q0 -102 44.5 -185t121.5 -130.5t170 -47.5h257v706zM1490 1202.5q-28 28.5 -28 70.5q0 43 27.5 71.5t73.5 28.5q45 0 73 -29t28 -71t-28 -70.5t-73 -28.5t-73 28.5z" />
    <glyph glyph-name="uniFED3" unicode="&#x641;" horiz-adv-x="1251" arabic-form="initial" 
d="M1115 1017v-1017h-1154v160h351q-68 72 -105.5 166.5t-37.5 200.5q0 135 68 247.5t185.5 177.5t258.5 65h434zM938 160v706h-258q-92 0 -169 -46t-121.5 -124.5t-44.5 -172.5q0 -102 44.5 -185t121.5 -130.5t170 -47.5h257zM637 1197.5q-28 28.5 -28 70.5q0 43 27.5 71.5
t73.5 28.5q45 0 73 -29t28 -71t-28 -70.5t-73 -28.5t-73 28.5z" />
    <glyph glyph-name="uniFED4" unicode="&#x641;" horiz-adv-x="1390" arabic-form="medial" 
d="M1399 160v-160h-1438v160h350q-68 72 -105.5 166.5t-37.5 200.5q0 135 68 247.5t185.5 177.5t258.5 65h434v-857h285zM937 160v706h-258q-92 0 -169 -46t-121.5 -124.5t-44.5 -172.5q0 -102 44.5 -185t121.5 -130.5t170 -47.5h257zM672 1197.5q-28 28.5 -28 70.5
q0 43 27.5 71.5t73.5 28.5q45 0 73 -29t28 -71t-28 -70.5t-73 -28.5t-73 28.5z" />
    <glyph glyph-name="uniFED6" unicode="&#x642;" horiz-adv-x="2052" arabic-form="final" 
d="M2061 0h-332q-1 -132 -60.5 -228.5t-170 -148t-261.5 -51.5h-566q-158 0 -283.5 71t-196.5 193t-71 270q0 104 41 207t121 184l113 -115q-48 -54 -75 -124t-27 -151q0 -103 48.5 -189t135.5 -136t196 -50h550q102 0 175.5 33t113 93.5t40.5 141.5h-256
q-142 0 -259.5 70.5t-186 191t-68.5 265.5q0 135 68 247.5t185.5 177.5t258.5 65h434v-174h1v-683h332v-160zM1551 866h-258q-92 0 -169 -46t-121.5 -124.5t-44.5 -172.5q0 -102 44.5 -185t121.5 -130.5t170 -47.5h257v706zM1509.5 1187q-27.5 29 -27.5 71t27.5 71t73.5 29
q45 0 73 -29t28 -71t-28 -71t-74 -29q-45 0 -72.5 29zM1234.5 1184.5q-27.5 28.5 -27.5 71.5q0 42 27 71t73 29q45 0 73 -29t28 -71t-28 -71t-73 -29t-72.5 28.5z" />
    <glyph glyph-name="uniFED7" unicode="&#x642;" horiz-adv-x="1251" arabic-form="initial" 
d="M1115 1017v-1017h-1154v160h351q-68 72 -105.5 166.5t-37.5 200.5q0 135 68 247.5t185.5 177.5t258.5 65h434zM938 160v706h-258q-92 0 -169 -46t-121.5 -124.5t-44.5 -172.5q0 -102 44.5 -185t121.5 -130.5t170 -47.5h257zM731.5 1187q-27.5 29 -27.5 71t27.5 71
t73.5 29q45 0 73 -29t28 -71t-28 -71t-74 -29q-45 0 -72.5 29zM456.5 1184.5q-27.5 28.5 -27.5 71.5q0 42 27 71t73 29q45 0 73 -29t28 -71t-28 -71t-73 -29t-72.5 28.5z" />
    <glyph glyph-name="uniFED8" unicode="&#x642;" horiz-adv-x="1390" arabic-form="medial" 
d="M1399 160v-160h-1438v160h350q-68 72 -105.5 166.5t-37.5 200.5q0 135 68 247.5t185.5 177.5t258.5 65h434v-857h285zM937 160v706h-258q-92 0 -169 -46t-121.5 -124.5t-44.5 -172.5q0 -102 44.5 -185t121.5 -130.5t170 -47.5h257zM787.5 1187q-27.5 29 -27.5 71t27.5 71
t73.5 29q45 0 73 -29t28 -71t-28 -71t-74 -29q-45 0 -72.5 29zM512.5 1184.5q-27.5 28.5 -27.5 71.5q0 42 27 71t73 29q45 0 73 -29t28 -71t-28 -71t-73 -29t-72.5 28.5z" />
    <glyph glyph-name="uniFEDA" unicode="&#x643;" horiz-adv-x="2094" arabic-form="final" 
d="M2103 160v-160h-1410q-152 0 -272.5 72.5t-188 193.5t-67.5 261q0 102 41 203t125 182l125 -98q-54 -57 -83 -129t-29 -151q0 -100 48 -186t136 -137t202 -51h857v1200h177v-1200h339zM1247 553q-190 0 -270.5 -3t-228.5 -17v89l173 19q-38 23 -62 65.5t-24 94.5
q0 90 60 138t169 48h107l-28 -91h-70q-80 0 -115.5 -25.5t-35.5 -91.5q0 -60 41.5 -98.5t106.5 -38.5h177v-89z" />
    <glyph glyph-name="uniFEDB" unicode="&#x643;" horiz-adv-x="1304" arabic-form="initial" 
d="M884 764.5q111 -52.5 173 -148.5t62 -220v-396h-1129v160h952v232q0 83 -38.5 145t-109 95.5t-163.5 33.5h-511v151h1q31 170 140.5 304t279 213t374.5 87l31 -154q-163 -8 -301.5 -65t-235 -156t-138.5 -229h359q143 0 254 -52.5z" />
    <glyph glyph-name="uniFEDC" unicode="&#x643;" horiz-adv-x="1268" arabic-form="medial" 
d="M1277 160v-160h-1287v160h952v232q0 83 -38.5 145t-109 95.5t-163.5 33.5h-511v151h1q31 170 140.5 304t279 213t374.5 87l31 -154q-163 -8 -301.5 -65t-235 -156t-138.5 -229h359q143 0 254 -52.5t173 -148.5t62 -220v-236h158z" />
    <glyph glyph-name="uniFEDE" unicode="&#x644;" horiz-adv-x="1598" arabic-form="final" 
d="M1607 0h-339q-15 -141 -92 -239t-197 -146.5t-264 -48.5q-158 0 -283.5 73.5t-196 198t-70.5 272.5q-1 104 40 206.5t121 184.5l114 -115q-48 -54 -75 -124.5t-27 -150.5q0 -107 48 -195t134.5 -138.5t195.5 -50.5q102 0 188 37t138.5 113.5t52.5 190.5v1292h177v-1200
h335v-160z" />
    <glyph glyph-name="uniFEDF" unicode="&#x644;" horiz-adv-x="672" arabic-form="initial" 
d="M-10 160h269v1200h177v-1360h-446v160z" />
    <glyph glyph-name="uniFEE0" unicode="&#x644;" horiz-adv-x="695" arabic-form="medial" 
d="M-10 160h269v1200h177v-1200h268v-160h-714v160z" />
    <glyph glyph-name="uniFEE2" unicode="&#x645;" horiz-adv-x="1539" arabic-form="final" 
d="M1548 159v-159h-58q-113 0 -185.5 49.5t-109.5 132.5q-74 -87 -184 -134.5t-242 -47.5h-7h-1h-330q-87 0 -130 -58t-43 -157v-206h-179v211q0 156 73 253.5t216 112.5q-68 65 -104.5 160t-36.5 211q0 149 71.5 267t196 184t277.5 66t278 -66t197 -184t72 -267v-5v-141
q0 -114 42.5 -168t139.5 -54h47zM968.5 206.5q84.5 46.5 134.5 131t50 193.5q0 106 -50.5 189t-137 129t-192.5 46t-192.5 -46.5t-136.5 -130t-50 -189.5q0 -126 56.5 -224.5t153.5 -145.5h170v1h10q100 0 184.5 46.5z" />
    <glyph glyph-name="uniFEE3" unicode="&#x645;" horiz-adv-x="1285" arabic-form="initial" 
d="M1135.5 253q-70.5 -119 -195 -186t-282.5 -67h-1h-7v0h-1h-659v160h270q-70 67 -108 160.5t-38 202.5q0 144 71.5 262t196 186t277.5 68q154 0 279 -67.5t196.5 -185.5t71.5 -263q0 -151 -70.5 -270zM855.5 206q84.5 46 134.5 130.5t50 194.5q0 108 -50.5 190.5t-137 128
t-191.5 45.5t-192 -46t-137.5 -130t-50.5 -192q0 -117 52 -217t140 -150h172h11h15q100 0 184.5 46z" />
    <glyph glyph-name="uniFEE4" unicode="&#x645;" horiz-adv-x="1469" arabic-form="medial" 
d="M1479 159v-159h-82q-114 0 -191 51t-118 135q-75 -88 -185.5 -137t-244.5 -49h-1h-7v0h-1h-659v160h270q-70 67 -108 160.5t-38 202.5q0 144 71.5 262t196 186t277.5 68q154 0 279 -67.5t196.5 -185.5t71.5 -263v-1h3v-141q0 -107 50.5 -164.5t148.5 -57.5h71zM855.5 206
q84.5 46 134.5 130.5t50 194.5q0 108 -50.5 190.5t-137 128t-191.5 45.5t-192 -46t-137.5 -130t-50.5 -192q0 -117 52 -217t140 -150h172h11h15q100 0 184.5 46z" />
    <glyph glyph-name="uniFEE6" unicode="&#x646;" horiz-adv-x="1510" arabic-form="final" 
d="M568.5 1020.5q-27.5 28.5 -27.5 71.5q0 42 27.5 70.5t73.5 28.5q45 0 73 -28.5t28 -70.5q0 -43 -27.5 -71.5t-73.5 -28.5t-73.5 28.5zM1519 0h-335q-15 -142 -92 -240.5t-197.5 -147.5t-264.5 -49h-1q-157 1 -282.5 74t-196.5 197t-71 272q0 104 41 207t121 184l114 -115
q-49 -53 -75.5 -123.5t-26.5 -151.5q0 -107 48 -195t134 -138.5t195 -50.5q103 0 189 37t138 114t52 191v778h178v-683h332v-160z" />
    <glyph glyph-name="uniFEE7" unicode="&#x646;" horiz-adv-x="660" arabic-form="initial" 
d="M-10 160h328v857h177v-1017h-505v160zM326 1197.5q-28 28.5 -28 70.5q0 43 27.5 71.5t73.5 28.5q45 0 73 -29t28 -71t-28 -70.5t-73 -28.5t-73 28.5z" />
    <glyph glyph-name="uniFEE8" unicode="&#x646;" horiz-adv-x="813" arabic-form="medial" 
d="M-10 160h328v857h177v-857h327v-160h-832v160zM332 1197.5q-28 28.5 -28 70.5q0 43 27.5 71.5t73.5 28.5q45 0 73 -29t28 -71t-28 -70.5t-73 -28.5t-73 28.5z" />
    <glyph glyph-name="uniFEEA" unicode="&#x647;" horiz-adv-x="1211" arabic-form="final" 
d="M1220 160v-160h-701q-120 0 -221 58.5t-160 159.5t-59 222q0 112 58.5 205.5t159 147.5t219.5 54h199v170h177v-857h328zM715 701h-205q-74 0 -135.5 -33.5t-97 -93t-35.5 -132.5q0 -79 35.5 -143.5t97 -101.5t135.5 -37h205v541z" />
    <glyph glyph-name="uniFEEB" unicode="&#x647;" horiz-adv-x="1645" arabic-form="initial" 
d="M1480 0h-1490v160l306 -1q-38 49 -58 109.5t-20 127.5q0 119 58 218.5t161 158t233 58.5q137 0 239 -52.5t157.5 -148.5t57.5 -224v-248l180 -1v256q0 176 -69.5 308t-195.5 205t-290 74v169q217 0 383 -90t257 -256t91 -386v-437zM950 158v243q0 128 -75 200.5
t-206 72.5q-81 0 -145.5 -34.5t-101.5 -96.5t-37 -142q0 -78 32.5 -141t90.5 -101z" />
    <glyph glyph-name="uniFEEC" unicode="&#x647;" horiz-adv-x="1752" arabic-form="medial" 
d="M1761 160v-160h-1771v160l306 -1q-38 49 -58 109.5t-20 127.5q0 119 58 218.5t161 158t233 58.5q137 0 239 -52.5t157.5 -148.5t57.5 -224v-248l180 -1v256q0 176 -69.5 308t-195.5 205t-290 74v169q217 0 383 -90t257 -256t91 -386v-277h281zM950 158v243
q0 128 -75 200.5t-206 72.5q-81 0 -145.5 -34.5t-101.5 -96.5t-37 -142q0 -78 32.5 -141t90.5 -101z" />
    <glyph glyph-name="uniFEEE" unicode="&#x648;" horiz-adv-x="1219" arabic-form="final" 
d="M1228 0h-201q-1 -204 -126.5 -305.5t-355.5 -101.5q-100 0 -182.5 25.5t-189.5 79.5l17 154q78 -45 172.5 -72t182.5 -27q150 0 226.5 59t77.5 188h-255q-142 0 -260 70.5t-186.5 191t-68.5 265.5q0 135 68.5 247.5t186 177.5t258.5 65h435v-857h201v-160zM849 160v706
h-258q-92 0 -169 -46t-121.5 -124.5t-44.5 -172.5q0 -102 44.5 -185t121.5 -130.5t170 -47.5h257z" />
    <glyph glyph-name="uniFEF0" unicode="&#x649;" horiz-adv-x="1829" arabic-form="final" 
d="M206 313q41 102 120 184l114 -115q-50 -55 -76.5 -125t-26.5 -147q0 -99 47.5 -188t134 -144t197.5 -55h429q338 0 338 236v41h-223v160h579v-160h-179v-45q0 -121 -55 -208.5t-165.5 -135t-272.5 -47.5h-451q-158 0 -284 73t-196.5 198t-70.5 273q0 103 41 205z" />
    <glyph glyph-name="uniFEF2" unicode="&#x64a;" horiz-adv-x="1829" arabic-form="final" 
d="M206 313q41 102 120 184l114 -115q-50 -55 -76.5 -125t-26.5 -147q0 -99 47.5 -188t134 -144t197.5 -55h429q338 0 338 236v41h-223v160h579v-160h-179v-45q0 -121 -55 -208.5t-165.5 -135t-272.5 -47.5h-451q-158 0 -284 73t-196.5 198t-70.5 273q0 103 41 205z
M671 -810q-28 29 -28 71t27.5 71t73.5 29q45 0 73 -29t28 -71t-28 -71t-73 -29t-73 29zM947 -810q-28 29 -28 71t27.5 71t73.5 29q45 0 73 -29t28 -71t-28 -71t-73 -29t-73 29z" />
    <glyph glyph-name="uniFEF3" unicode="&#x64a;" horiz-adv-x="660" arabic-form="initial" 
d="M-10 160h328v857h177v-1017h-505v160zM128 -379q-28 29 -28 71t27.5 71t73.5 29q45 0 73 -29t28 -71t-28 -71t-73 -29t-73 29zM404 -379q-28 29 -28 71t27.5 71t73.5 29q45 0 73 -29t28 -71t-28 -71t-73 -29t-73 29z" />
    <glyph glyph-name="uniFEF4" unicode="&#x64a;" horiz-adv-x="813" arabic-form="medial" 
d="M-10 160h328v857h177v-857h327v-160h-832v160zM187 -381q-28 29 -28 71t27.5 71t73.5 29q45 0 73 -29t28 -71t-28 -71t-73 -29t-73 29zM463 -381q-28 29 -28 71t27.5 71t73.5 29q45 0 73 -29t28 -71t-28 -71t-73 -29t-73 29z" />
    <glyph glyph-name=".notdef" horiz-adv-x="457" 
 />
    <glyph glyph-name="uni0000" 
 />
    <glyph glyph-name="uni0000" 
 />
    <glyph glyph-name="nonmarkingreturn" horiz-adv-x="682" 
 />
    <glyph glyph-name="uni0010" horiz-adv-x="1670" 
 />
    <glyph glyph-name="space" unicode=" " horiz-adv-x="506" 
 />
    <glyph glyph-name="exclam" unicode="!" horiz-adv-x="595" 
d="M207 673v687h177v-688l-24 -281h-129zM216.5 11q-31.5 31 -31.5 75q0 45 31.5 76.5t80.5 31.5t81 -31.5t32 -76.5t-31.5 -75.5t-81.5 -30.5q-49 0 -80.5 31z" />
    <glyph glyph-name="quotedbl" unicode="&#x22;" horiz-adv-x="718" 
d="M130 1360h164l-17 -438h-133zM436 1360h164l-17 -438h-133z" />
    <glyph glyph-name="numbersign" unicode="#" horiz-adv-x="1242" 
d="M290 349h-203l3 131h221l58 325h-214l3 129h232l75 418h155l-74 -418h232l74 418h154l-73 -418h194l-2 -129h-213l-58 -325h205l-2 -131h-224l-60 -341h-155l59 341h-231l-60 -341h-156zM699 480l58 325h-232l-58 -325h232z" />
    <glyph glyph-name="dollar" unicode="$" horiz-adv-x="1217" 
d="M1094.5 177.5q-52.5 -85.5 -151 -137t-235.5 -64.5v-187h-164v184q-154 11 -260 73.5t-157.5 154.5t-51.5 193h177q0 -73 43 -135t124 -99t189 -37q175 0 267.5 64t92.5 189q0 111 -92 166.5t-263 81.5q-140 23 -248 62.5t-181.5 118.5t-73.5 207q0 100 45 181.5
t142.5 133.5t246.5 61v195h164v-199q124 -16 210.5 -67.5t130.5 -132t44 -181.5h-178q0 68 -36.5 120.5t-107 81.5t-170.5 29q-170 0 -242 -63t-72 -160q0 -103 94 -157t287 -80q211 -34 345 -122t134 -276q0 -113 -52.5 -198.5z" />
    <glyph glyph-name="percent" unicode="%" horiz-adv-x="1728" 
d="M266 769.5q-78 42.5 -123 117t-45 165.5t44.5 166t122.5 118t174 43t174.5 -43t123.5 -118t45 -167q0 -91 -45 -165t-123.5 -116.5t-174.5 -42.5q-95 0 -173 42.5zM1214 1359h163l-834 -1360h-160zM540.5 876q44.5 26 70 72t25.5 102q0 59 -25.5 106t-70.5 73.5
t-101 26.5t-100.5 -26.5t-69.5 -73t-25 -104.5q0 -57 25 -103.5t70 -72.5t101 -26t100.5 26zM1098 26.5q-78 42.5 -123 116.5t-45 165q0 92 45 167t123.5 118t174.5 43q95 0 173 -43t123 -118t45 -167q0 -91 -45 -165t-123 -116.5t-174 -42.5t-174 42.5zM1374 133
q45 26 70 71.5t25 102.5q0 58 -25.5 105t-70.5 74t-101 27q-55 0 -99.5 -26.5t-70 -73t-25.5 -104.5q0 -57 25.5 -103t70 -72.5t100.5 -26.5t101 26z" />
    <glyph glyph-name="ampersand" unicode="&#x26;" horiz-adv-x="1455" 
d="M999 148q-95 -83 -207.5 -129t-227.5 -46q-131 0 -237.5 49.5t-167.5 138.5t-61 201q0 98 47.5 173t117.5 126.5t170 106.5q-70 62 -120.5 144t-50.5 166q0 90 45.5 161t128 111t190.5 40q106 0 186 -36.5t124 -104.5t44 -160q0 -119 -79 -200.5t-217 -152.5l334 -368
q100 134 119 289l160 -1q-11 -111 -57 -214t-120 -191l72 -81q78 -86 152 -170h-209zM689 897.5q46 27.5 82.5 75t36.5 113.5q0 73 -48.5 119t-127.5 46q-63 0 -107.5 -25.5t-67 -68t-22.5 -93.5q0 -59 36.5 -114t96.5 -116q75 36 121 63.5zM740 158q87 36 158 102l-366 403
q-79 -41 -132 -77.5t-91 -91.5t-38 -128q0 -72 38 -127.5t103.5 -86t146.5 -30.5q94 0 181 36z" />
    <glyph glyph-name="quotesingle" unicode="'" horiz-adv-x="412" 
d="M130 1360h164l-17 -438h-133z" />
    <glyph glyph-name="parenleft" unicode="(" horiz-adv-x="694" 
d="M139 554q0 272 77 503t256 415l181 1q-105 -101 -181 -250.5t-116 -322.5t-40 -345v-21q2 -170 41.5 -336t115 -311t180.5 -249h-179q-335 334 -335 916z" />
    <glyph glyph-name="parenright" unicode=")" horiz-adv-x="695" 
d="M41 -362q106 104 181 249t114.5 311t41.5 336v21q0 172 -40 345t-115.5 322.5t-180.5 250.5l180 -1q179 -184 256 -415t77 -503q0 -582 -335 -916h-179z" />
    <glyph glyph-name="asterisk" unicode="*" horiz-adv-x="844" 
d="M376 1171l-6 232h111l-6 -230l195 119l55 -95l-201 -109l201 -110l-55 -94l-195 119l5 -228h-110l6 230l-196 -120l-55 94l201 108l-201 111l56 94z" />
    <glyph glyph-name="plus" unicode="+" horiz-adv-x="1157" 
d="M504 547l-386 1v141h386v393h146l1 -393h388v-142h-388v-395h-147v395z" />
    <glyph glyph-name="comma" unicode="," horiz-adv-x="484" 
d="M205 178h171l-155 -359h-129z" />
    <glyph glyph-name="hyphen" unicode="-" horiz-adv-x="883" 
d="M118 617h647v-144h-647v144z" />
    <glyph glyph-name="period" unicode="." horiz-adv-x="517" 
d="M177 10q-32 31 -32 76q0 44 32 75.5t81 31.5t81 -31.5t32 -75.5q0 -45 -32 -76t-81 -31t-81 31z" />
    <glyph glyph-name="slash" unicode="/" horiz-adv-x="809" 
d="M613 1426h187l-655 -1634h-189z" />
    <glyph glyph-name="zero" unicode="0" horiz-adv-x="1298" 
d="M339 65q-128 94 -193 254t-65 355q0 200 68 363t196 257.5t303 94.5q191 0 319 -97.5t189 -258.5t61 -354q0 -197 -66 -358t-194 -255.5t-308 -94.5q-182 0 -310 94zM857.5 206q88.5 70 135.5 193.5t47 279.5q0 154 -45 277.5t-134 196t-214 72.5q-116 0 -204 -70.5
t-136.5 -195.5t-48.5 -284q0 -155 47 -277.5t135.5 -192t208.5 -69.5t208.5 70z" />
    <glyph glyph-name="one" unicode="1" horiz-adv-x="660" 
d="M297 1191l-261 -105v158l289 117h150v-1361h-178v1191z" />
    <glyph glyph-name="two" unicode="2" horiz-adv-x="1096" 
d="M548 538q98 88 154.5 149t89 124.5t32.5 133.5q0 77 -36 138.5t-99 96t-139 34.5q-77 0 -143 -36t-105.5 -109.5t-39.5 -180.5h-176q0 133 54.5 245t158.5 178.5t246 66.5q134 0 237.5 -57t161 -155.5t57.5 -220.5q0 -89 -33.5 -166.5t-92 -146t-147.5 -146.5l-390 -347
l86 15h598v-154h-948v107z" />
    <glyph glyph-name="three" unicode="3" horiz-adv-x="1088" 
d="M316 19q-109 48 -179 152.5t-71 265.5h176q2 -108 49 -176t116.5 -97.5t144.5 -29.5q80 0 150 39.5t111.5 108t41.5 152.5q0 82 -41.5 146.5t-118 101t-177.5 36.5h-142v91l318 399l4 6h-564v146h779v-97l-331 -401l-12 -15q217 -12 340 -116.5t123 -300.5
q0 -127 -63 -232t-174 -166t-248 -61q-123 0 -232 48z" />
    <glyph glyph-name="four" unicode="4" horiz-adv-x="1186" 
d="M738 312h-714l-11 128l710 927h192v-907h235v-148h-235v-312h-177v312zM738 458v680l-530 -681z" />
    <glyph glyph-name="five" unicode="5" horiz-adv-x="1160" 
d="M374 12.5q-104 41.5 -178.5 136t-92.5 243.5h174q17 -91 68 -148.5t116 -83.5t130 -26q85 0 155.5 40t111 109.5t40.5 154.5q0 87 -43 150.5t-122.5 97t-186.5 33.5l-274 1l-83 66l77 575h716v-147h-566l-48 -364h220q149 0 259 -50.5t169 -144t59 -218.5t-61 -232
t-171.5 -170.5t-251.5 -63.5q-113 0 -217 41.5z" />
    <glyph glyph-name="six" unicode="6" horiz-adv-x="1113" 
d="M319.5 33q-108.5 60 -170 163.5t-61.5 229.5q0 67 18 128t55.5 130t107.5 178l320 498h204l-358 -545q83 52 173 52q115 0 215 -58t159.5 -159t59.5 -224q0 -126 -61.5 -229.5t-170 -163.5t-245.5 -60t-245.5 60zM713 173.5q66 37.5 103.5 103t37.5 147.5
q0 81 -37.5 147.5t-103.5 105t-147 38.5q-90 0 -156.5 -45.5t-100.5 -113t-34 -132.5q0 -82 38 -147.5t104.5 -103t148.5 -37.5q81 0 147 37.5z" />
    <glyph glyph-name="seven" unicode="7" horiz-adv-x="1032" 
d="M766 1213h-707v147h917v-96l-613 -1264h-189z" />
    <glyph glyph-name="eight" unicode="8" horiz-adv-x="1125" 
d="M308.5 24.5q-111.5 53.5 -173 148t-61.5 211.5q0 90 36.5 165.5t98.5 127t138 73.5q-56 19 -101 61.5t-70.5 100.5t-25.5 121q0 105 55 186t149.5 125.5t208.5 44.5q115 0 209 -43.5t148 -123.5t54 -185q0 -64 -26 -123.5t-71.5 -103t-99.5 -60.5q77 -20 139.5 -71.5
t98.5 -127.5t36 -167q0 -117 -62 -211.5t-173 -148t-253 -53.5q-143 0 -254.5 53.5zM684.5 844.5q54.5 28.5 85.5 77.5t31 107t-31.5 107t-86 78t-120.5 29q-67 0 -122.5 -29t-87 -78t-31.5 -107t31 -107t85.5 -77.5t123.5 -28.5q68 0 122.5 28.5zM720.5 154.5
q72.5 35.5 115 97.5t42.5 138q0 78 -42.5 142t-115 100.5t-158.5 36.5t-158.5 -36.5t-115 -100.5t-42.5 -142q0 -76 42.5 -138t115 -97.5t158.5 -35.5t158.5 35.5z" />
    <glyph glyph-name="nine" unicode="9" horiz-adv-x="1113" 
d="M793.5 1327q108.5 -60 170 -163.5t61.5 -229.5q0 -67 -18 -128t-55.5 -130t-107.5 -178l-320 -498h-204l358 545q-83 -52 -173 -52q-115 0 -215 58t-159.5 159t-59.5 224q0 126 61.5 229.5t170 163.5t245.5 60t245.5 -60zM400 1186.5q-66 -37.5 -103.5 -103t-37.5 -147.5
q0 -81 37.5 -147.5t103.5 -105t147 -38.5q90 0 156.5 45.5t100.5 113t34 132.5q0 82 -38 147.5t-104.5 103t-148.5 37.5q-81 0 -147 -37.5z" />
    <glyph glyph-name="colon" unicode=":" horiz-adv-x="517" 
d="M177 865q-32 31 -32 76q0 44 32 75.5t81 31.5t81 -31.5t32 -75.5q0 -45 -32 -76t-81 -31t-81 31zM177 1q-32 31 -32 76q0 44 32 75.5t81 31.5t81 -31.5t32 -75.5q0 -45 -32 -76t-81 -31t-81 31z" />
    <glyph glyph-name="semicolon" unicode=";" horiz-adv-x="497" 
d="M205 178h171l-155 -359h-129zM186 864q-32 31 -32 76q0 44 32 75.5t81 31.5t81 -31.5t32 -75.5q0 -45 -32 -76t-81 -31t-81 31z" />
    <glyph glyph-name="less" unicode="&#x3c;" horiz-adv-x="1225" 
d="M166 495v114l826 388v-164l-621 -282l621 -280v-164z" />
    <glyph glyph-name="equal" unicode="=" horiz-adv-x="1157" 
d="M118 856l921 -1v-142l-921 1v142zM118 387h921v-142h-921v142z" />
    <glyph glyph-name="greater" unicode="&#x3e;" horiz-adv-x="1061" 
d="M118 237l621 280l-621 282v164l825 -388v-114l-825 -389v165z" />
    <glyph glyph-name="question" unicode="?" horiz-adv-x="941" 
d="M387 624q48 76 133 153l34 30q53 47 83 77.5t50 65.5t20 72q0 96 -66 152t-190 56q-119 0 -186 -58.5t-67 -162.5h-174q0 111 50 197t147.5 135t234.5 49q124 0 220.5 -45t150 -126.5t53.5 -187.5q0 -79 -33 -142t-79 -108t-123 -107q-71 -57 -106 -110t-35 -117v-55
h-165v59q0 97 48 173zM348 10.5q-32 31.5 -32 75.5q0 45 32 76.5t81 31.5t81.5 -31.5t32.5 -76.5t-32 -76t-82 -31q-49 0 -81 31.5z" />
    <glyph glyph-name="at" unicode="@" horiz-adv-x="1860" 
d="M482 -236q-198 108 -299.5 295.5t-101.5 423.5t116.5 425.5t317.5 297t445 107.5q229 0 416 -92t295 -256.5t108 -373.5q0 -171 -61 -295t-165 -188.5t-230 -64.5q-64 0 -116.5 23t-82 68t-23.5 109q-32 -49 -86.5 -85.5t-117.5 -56t-119 -19.5q-18 0 -27 1
q-70 9 -125 53.5t-86 117.5t-31 164q0 125 46 224.5t124 158.5t169 69q46 4 102.5 -13t105.5 -51t72 -77l18 113l168 -1l-81 -510q-4 -23 -4 -45q0 -58 28.5 -80.5t77.5 -22.5q69 0 132 49.5t102.5 142t39.5 214.5q0 173 -84.5 305t-232.5 204t-334 72q-195 0 -357.5 -89.5
t-257.5 -246.5t-95 -351q0 -177 70.5 -321.5t201 -236.5t305.5 -117q63 -9 130 -9l426 2v-144h-211.5t-211.5 -1q-278 0 -476 108zM931.5 239.5q54.5 30.5 95.5 76.5t48 90l35 210q-27 42 -64.5 69.5t-74 40.5t-63.5 11q-61 -4 -114.5 -44t-86.5 -110.5t-34 -163.5
q0 -58 20 -106t56.5 -76t82.5 -28q45 0 99.5 30.5z" />
    <glyph glyph-name="A" unicode="A" horiz-adv-x="1347" 
d="M1146 0l-129 308h-687l-129 -308h-188l576 1360h170l575 -1360h-188zM393 458h561l-274 653l-5 23h-2l-6 -23z" />
    <glyph glyph-name="B" unicode="B" horiz-adv-x="1313" 
d="M766 1360q112 0 200.5 -45t138 -126.5t49.5 -186.5q0 -61 -23.5 -118t-64.5 -100t-92 -65q72 -21 131 -70.5t93.5 -118t34.5 -146.5q0 -118 -57 -205.5t-151 -133t-202 -45.5h-638v1360h581zM867.5 799q49.5 29 78.5 79.5t29 110.5t-29 109.5t-78.5 78.5t-108.5 29h-395
v-436h394q60 0 109.5 29zM931.5 187.5q55.5 31.5 87.5 86.5t32 123q0 64 -32 118t-87 86t-121 32h-447v-477h445q67 0 122.5 31.5z" />
    <glyph glyph-name="C" unicode="C" horiz-adv-x="1509" 
d="M431.5 67.5q-162.5 94.5 -256.5 257t-94 356.5q0 195 94 357.5t256.5 257t358.5 94.5q148 0 281 -56t228 -167t128 -269h-180q-45 161 -168.5 245t-293.5 84q-147 0 -267.5 -70t-190 -195t-69.5 -281q0 -157 69.5 -281t190 -193.5t267.5 -69.5q169 0 292.5 84t168.5 244
h181q-33 -159 -127.5 -270t-227.5 -166.5t-282 -55.5q-196 0 -358.5 94.5z" />
    <glyph glyph-name="D" unicode="D" horiz-adv-x="1481" 
d="M682 1360q213 0 375.5 -85t252 -239t89.5 -355q0 -202 -89 -356.5t-251 -239.5t-374 -85h-500v1360h497zM967.5 223.5q121.5 63.5 187 180t65.5 273.5t-65.5 276t-188 184t-289.5 65h-318v-1042h322q165 0 286.5 63.5z" />
    <glyph glyph-name="E" unicode="E" horiz-adv-x="1170" 
d="M185 1360h904v-161h-727v-431h632v-152h-632v-456h736v-160h-913v1360z" />
    <glyph glyph-name="F" unicode="F" horiz-adv-x="1150" 
d="M185 1360h904v-161h-727v-478h632v-151h-632v-570h-177v1360z" />
    <glyph glyph-name="G" unicode="G" horiz-adv-x="1571" 
d="M436.5 68.5q-163.5 94.5 -259 257t-95.5 355.5q0 195 95.5 357.5t259 257t359.5 94.5q146 0 282 -55t234 -159t133 -245h-180q-57 139 -182.5 217.5t-290.5 78.5q-147 0 -269 -70.5t-193 -195t-71 -280.5q0 -157 71 -281t193 -193.5t269 -69.5q149 0 258 55t172.5 149.5
t82.5 214.5h-519v160h703q1 -208 -81.5 -377t-239.5 -267t-372 -98q-196 0 -359.5 94.5z" />
    <glyph glyph-name="H" unicode="H" horiz-adv-x="1511" 
d="M185 1360h177v-599h786v599h178v-1360h-178v602h-786v-602h-177v1360z" />
    <glyph glyph-name="I" unicode="I" horiz-adv-x="547" 
d="M185 1360h177v-1360h-177v1360z" />
    <glyph glyph-name="J" unicode="J" horiz-adv-x="867" 
d="M230 160q90 0 159 38.5t106.5 110t37.5 166.5v885h175v-894q0 -142 -61 -247.5t-169.5 -162t-248.5 -56.5h-192v160h193z" />
    <glyph glyph-name="K" unicode="K" horiz-adv-x="1324" 
d="M732 760l570 -760h-212l-474 630l-254 -312v-318h-177v1360h177v-806l655 806h209z" />
    <glyph glyph-name="L" unicode="L" horiz-adv-x="1063" 
d="M185 1360h177v-1200h661v-160h-838v1360z" />
    <glyph glyph-name="M" unicode="M" horiz-adv-x="1712" 
d="M185 1360h153l517 -686h1l516 686h155v-1360h-177v1074l-470 -627h-51l-467 628v-1075h-177v1360z" />
    <glyph glyph-name="N" unicode="N" horiz-adv-x="1534" 
d="M1173 1360h176v-1360h-150l-837 1063v-1063h-177v1360h149l838 -1066h1v1066z" />
    <glyph glyph-name="O" unicode="O" horiz-adv-x="1616" 
d="M443 68q-167 95 -264.5 257.5t-97.5 355.5q0 195 97.5 357.5t264 257t364.5 94.5t365 -94.5t265 -257t98 -357.5q0 -193 -98 -355.5t-265 -257.5t-365 -95q-197 0 -364 95zM1084 208.5q126 71.5 200 196t74 276.5t-74 277t-200 197t-277 72q-150 0 -276 -72t-199.5 -197
t-73.5 -277t73.5 -276.5t199.5 -196t276 -71.5q151 0 277 71.5z" />
    <glyph glyph-name="P" unicode="P" horiz-adv-x="1236" 
d="M743 1360q130 0 233 -57.5t161 -158.5t58 -228q0 -131 -57.5 -233.5t-159.5 -160t-231 -57.5h-385v-465h-177v1360h558zM881 663q64 38 100.5 104.5t36.5 147.5q0 77 -37 143t-101.5 104.5t-142.5 38.5h-375v-576h377q78 0 142 38z" />
    <glyph glyph-name="Q" unicode="Q" horiz-adv-x="1632" 
d="M1457.5 362q-77.5 -148 -211.5 -247l227 -309l-163 -95l-215 319q-137 -57 -288 -57q-197 0 -364 95t-264.5 257.5t-97.5 355.5q0 195 97.5 357.5t264 257t364.5 94.5t365 -94.5t265 -257t98 -357.5q0 -171 -77.5 -319zM331.5 404.5q73.5 -124.5 199.5 -196t276 -71.5
q151 0 277 71.5t200 196t74 276.5t-74 277t-200 197t-277 72q-150 0 -276 -72t-199.5 -197t-73.5 -277t73.5 -276.5z" />
    <glyph glyph-name="R" unicode="R" horiz-adv-x="1306" 
d="M763 1360q131 0 233.5 -53.5t160 -150.5t57.5 -223q0 -98 -37 -179t-104 -136.5t-157 -79.5l328 -538h-204l-302 512q-15 -1 -44 -1h-332v-511h-177v1360h578zM901.5 696.5q63.5 34.5 99.5 95.5t36 140q0 76 -37 137.5t-101 96.5t-143 35h-394v-539h397q79 0 142.5 34.5z
" />
    <glyph glyph-name="S" unicode="S" horiz-adv-x="1217" 
d="M313.5 31.5q-120.5 60.5 -179.5 157.5t-59 205h177q0 -73 43 -135t124 -99t189 -37q175 0 267.5 64t92.5 189q0 111 -92 166.5t-263 81.5q-140 23 -248 62.5t-181.5 118.5t-73.5 207q0 107 51.5 192t161.5 135.5t280 50.5q156 0 266.5 -49t167 -136t56.5 -202h-178
q0 68 -36.5 120.5t-107 81.5t-170.5 29q-170 0 -242 -63t-72 -160q0 -103 94 -157t287 -80q211 -34 345 -122t134 -276q0 -126 -64.5 -217.5t-186 -139.5t-287.5 -48q-175 0 -295.5 60.5z" />
    <glyph glyph-name="T" unicode="T" horiz-adv-x="1137" 
d="M479 1201h-430v159h1038v-159h-431v-1201h-177v1201z" />
    <glyph glyph-name="U" unicode="U" horiz-adv-x="1444" 
d="M435.5 41q-128.5 69 -202.5 195t-74 291v834h176v-821q0 -112 46 -204t133.5 -146t207.5 -54q118 0 205.5 53.5t134 145t46.5 203.5v823h177v-834q0 -162 -72 -288t-200 -196.5t-291 -70.5q-158 0 -286.5 69z" />
    <glyph glyph-name="V" unicode="V" horiz-adv-x="1362" 
d="M20 1360h188l472 -1131l3 3l470 1128h188l-578 -1360h-164z" />
    <glyph glyph-name="W" unicode="W" horiz-adv-x="2030" 
d="M20 1360h188l346 -1044l20 -80h4l16 82l327 1042h187l327 -1041l18 -83h3l21 88l345 1036h187l-462 -1360h-174l-358 1115l-359 -1115h-173z" />
    <glyph glyph-name="X" unicode="X" horiz-adv-x="1321" 
d="M550 707l-486 653h210l386 -528l387 528h210l-486 -653l521 -707h-211l-421 583l-420 -583h-211z" />
    <glyph glyph-name="Y" unicode="Y" horiz-adv-x="1317" 
d="M570 521l-550 839h209l429 -680h1l427 680h210l-550 -838l1 -522h-177v521z" />
    <glyph glyph-name="Z" unicode="Z" horiz-adv-x="1247" 
d="M74 136l836 1073h-793v151h1026v-133l-837 -1076h875v-151h-1105z" />
    <glyph glyph-name="bracketleft" unicode="[" horiz-adv-x="684" 
d="M185 1471h462v-143h-287v-1533h287v-143h-462v1819z" />
    <glyph glyph-name="backslash" unicode="\" horiz-adv-x="809" 
d="M853 -208h-189l-655 1634h187z" />
    <glyph glyph-name="bracketright" unicode="]" horiz-adv-x="684" 
d="M499 -348h-462v143h287v1533h-287v143h462v-1819z" />
    <glyph glyph-name="asciicircum" unicode="^" horiz-adv-x="926" 
d="M441 1430h67l331 -615l-165 -11l-199 413l-200 -413l-164 11z" />
    <glyph glyph-name="underscore" unicode="_" horiz-adv-x="932" 
d="M0 -115h932v-145h-932v145z" />
    <glyph glyph-name="grave" unicode="`" horiz-adv-x="521" 
d="M102 1387l130 45l154 -283h-119z" />
    <glyph glyph-name="a" unicode="a" horiz-adv-x="1306" 
d="M322 43q-113 72 -178 195.5t-65 271.5q0 147 65 270.5t178 195.5t249 72q137 0 245 -66t160 -181v219h165v-1020h-165v217q-52 -114 -160 -180t-244 -66q-137 0 -250 72zM791.5 182q82.5 50 130.5 136.5t48 191.5q0 104 -48.5 190.5t-130.5 136.5t-180 50
q-99 0 -181.5 -48.5t-131 -134.5t-48.5 -194q0 -110 48.5 -196t131 -134t180.5 -48q99 0 181.5 50z" />
    <glyph glyph-name="b" unicode="b" horiz-adv-x="1329" 
d="M491.5 37q-106.5 66 -161.5 180v-217h-165v1408h172v-463l-3 -140q34 70 92 125t134.5 86.5t162.5 31.5q141 0 256 -72t181 -195.5t66 -270.5q0 -148 -66 -271.5t-180.5 -195.5t-254.5 -72q-127 0 -233.5 66zM875.5 179q82.5 48 131 134.5t48.5 196.5q0 108 -48 194
t-130.5 135t-181.5 49q-98 0 -180.5 -50.5t-130.5 -137t-48 -190.5q0 -106 48.5 -193t131 -136.5t179.5 -49.5q98 0 180.5 48z" />
    <glyph glyph-name="c" unicode="c" horiz-adv-x="1153" 
d="M336 43.5q-119 72.5 -188 196t-69 270.5t69 270.5t188 196t264 72.5q119 0 219 -46.5t169.5 -128.5t100.5 -188h-177q-39 97 -122 149t-189 52q-90 0 -170.5 -46.5t-130 -132.5t-49.5 -198q0 -113 49.5 -199t130 -132.5t170.5 -46.5q106 0 189 54t122 156h176
q-29 -110 -98.5 -194t-170 -130.5t-219.5 -46.5q-145 0 -264 72.5z" />
    <glyph glyph-name="d" unicode="d" horiz-adv-x="1305" 
d="M325 43q-115 72 -180.5 195.5t-65.5 271.5t65 271.5t180 195.5t258 72q91 0 169 -34t134 -89.5t87 -120.5l-4 99v504h172v-1408h-165v217q-33 -70 -91 -126t-135.5 -88t-167.5 -32q-141 0 -256 72zM790.5 181q82.5 50 131 137t48.5 192q0 104 -48 191t-131 137t-182 50
t-181.5 -49.5t-130 -136t-47.5 -192.5t47 -192.5t129 -136.5t183 -50q99 0 181.5 50z" />
    <glyph glyph-name="e" unicode="e" horiz-adv-x="1165" 
d="M1099 465h-846q10 -100 59 -175.5t123.5 -116.5t158.5 -41q103 0 176 44.5t107 130.5h193q-29 -94 -97 -170.5t-165 -120.5t-210 -44q-145 0 -264 72t-187 195t-68 271q0 147 68.5 271t187 196t263.5 72q143 0 258.5 -70.5t180.5 -188.5t65 -255q0 -14 -3 -70zM926 617
q-5 72 -51 134t-120.5 99t-159.5 37q-78 0 -147 -31.5t-118.5 -92.5t-68.5 -146h665z" />
    <glyph glyph-name="f" unicode="f" horiz-adv-x="722" 
d="M22 870v150h218v72q0 87 33 160.5t100.5 118.5t166.5 45h171v-145h-131q-77 0 -122 -54.5t-45 -138.5v-58h290v-150h-290v-870h-173v870h-218z" />
    <glyph glyph-name="g" unicode="g" horiz-adv-x="1306" 
d="M341 -330.5q-108 53.5 -160.5 139t-58.5 185.5h163q17 -103 94.5 -167t232.5 -64q126 0 207.5 51t119 134t37.5 184v126q-53 -114 -158.5 -176.5t-237.5 -62.5q-141 0 -255.5 68.5t-180 185.5t-65.5 256q0 138 65 257.5t178.5 190.5t252.5 71q94 0 174 -33t138 -89
t89 -125v219h165v-883q0 -146 -59 -264t-178.5 -187.5t-291.5 -69.5q-163 0 -271 53.5zM790.5 219.5q82.5 48.5 131 130.5t48.5 179q0 96 -48 178t-130.5 131t-180.5 49q-99 0 -182 -47t-131 -128.5t-48 -182.5q0 -100 48 -182t130.5 -129t181.5 -47q98 0 180.5 48.5z" />
    <glyph glyph-name="h" unicode="h" horiz-adv-x="1272" 
d="M337 1408v-473l-3 -109q47 101 146 162t226 61q203 0 308 -126t105 -370v-553h-172v550q0 172 -74 255t-211 83q-85 0 -160 -45t-120 -125.5t-45 -181.5v-536h-172v1408h172z" />
    <glyph glyph-name="i" unicode="i" horiz-adv-x="502" 
d="M166 1250.5q-32 31.5 -32 78.5q0 46 32 77.5t85 31.5t85.5 -31.5t32.5 -77.5q0 -47 -32.5 -78.5t-86.5 -31.5q-52 0 -84 31.5zM165 1020h172v-1020h-172v1020z" />
    <glyph glyph-name="j" unicode="j" horiz-adv-x="513" 
d="M178 1250.5q-32 31.5 -32 78.5q0 46 32 77.5t85 31.5t85.5 -31.5t32.5 -77.5q0 -47 -32.5 -78.5t-86.5 -31.5q-52 0 -84 31.5zM1 -206q83 0 128.5 55t45.5 144v1027h173v-1016q0 -170 -83 -262t-246 -92h-123v144h105z" />
    <glyph glyph-name="k" unicode="k" horiz-adv-x="1054" 
d="M843 0l-315 498l-191 -211v-287h-172v1408h172v-931l438 543h211l-332 -409l384 -611h-195z" />
    <glyph glyph-name="l" unicode="l" horiz-adv-x="502" 
d="M165 1410h172v-1410h-172v1410z" />
    <glyph glyph-name="m" unicode="m" horiz-adv-x="1951" 
d="M1699.5 923q98.5 -126 98.5 -370v-553h-171v550q0 171 -68.5 254.5t-194.5 83.5q-78 0 -146.5 -45t-110 -125.5t-41.5 -181.5v-536h-170v550q0 172 -68 255t-194 83q-78 0 -147 -45t-110.5 -125.5t-41.5 -181.5v-536h-170v1020h162l2 -197q26 64 78 115.5t122.5 81
t150.5 29.5q137 0 226.5 -66t129.5 -196q58 128 156 195t219 67q190 0 288.5 -126z" />
    <glyph glyph-name="n" unicode="n" horiz-adv-x="1272" 
d="M330 1020v-197q29 66 85 117t131 80t160 29q203 0 308 -126t105 -370v-553h-172v550q0 172 -74 255t-211 83q-86 0 -160.5 -43t-119.5 -123.5t-45 -185.5v-536h-172v1020h165z" />
    <glyph glyph-name="o" unicode="o" horiz-adv-x="1220" 
d="M339.5 43q-121.5 72 -191 195.5t-69.5 271.5q0 147 69.5 271t190.5 196t270 72t271 -72t191.5 -195.5t69.5 -271.5t-69.5 -271.5t-191 -195.5t-271.5 -72q-148 0 -269.5 72zM793 182q82 49 129 135t47 193q0 106 -47 192t-129 135.5t-182 49.5t-182.5 -49.5t-130 -135.5
t-47.5 -192q0 -107 47.5 -193t130 -135t182.5 -49t182 49z" />
    <glyph glyph-name="p" unicode="p" horiz-adv-x="1306" 
d="M330 1020v-218q55 110 159.5 178t233.5 68q141 0 256 -72t181 -195.5t66 -270.5q0 -148 -66 -271.5t-180.5 -195.5t-254.5 -72q-126 0 -231.5 65.5t-159.5 176.5l3 -115v-446h-172v1368h165zM875.5 179q82.5 48 131 134.5t48.5 196.5q0 108 -48 194t-130.5 135t-181.5 49
q-98 0 -180.5 -50.5t-130.5 -137t-48 -190.5q0 -106 48.5 -193t131 -136.5t179.5 -49.5q98 0 180.5 48z" />
    <glyph glyph-name="q" unicode="q" horiz-adv-x="1305" 
d="M970 213q-31 -68 -87.5 -123t-134 -87t-167.5 -32q-141 0 -256 72t-180.5 195.5t-65.5 271.5t65 271.5t180 195.5t258 72q91 0 169 -34.5t134.5 -90.5t89.5 -122v218h165v-1368h-173v467zM790.5 181q82.5 50 131 137t48.5 192q0 104 -48 191t-131 137t-182 50
t-181.5 -49.5t-130 -136t-47.5 -192.5t47 -192.5t129 -136.5t183 -50q99 0 181.5 50z" />
    <glyph glyph-name="r" unicode="r" horiz-adv-x="776" 
d="M331 1020v-228q38 107 119 167.5t191 60.5h99v-151h-90q-90 0 -161 -46.5t-111 -134.5t-40 -208v-480h-173v1020h166z" />
    <glyph glyph-name="s" unicode="s" horiz-adv-x="986" 
d="M272.5 19q-96.5 48 -145 126t-48.5 168l166 -1q1 -56 32 -102t90 -72.5t140 -26.5q114 0 174 44.5t60 123.5q0 55 -29.5 87.5t-83.5 50t-144 32.5q-165 24 -261 91.5t-96 209.5q0 85 41.5 153t123.5 107t200 39q116 0 205 -39t138 -109t49 -158h-169q-4 74 -63 118
t-160 44q-95 0 -145 -43t-50 -108q0 -49 22 -79t74 -50t149 -36q113 -18 192 -46t130.5 -89.5t51.5 -165.5q0 -102 -51.5 -173.5t-144 -107.5t-215.5 -36q-136 0 -232.5 48z" />
    <glyph glyph-name="t" unicode="t" horiz-adv-x="804" 
d="M328 81q-90 81 -90 297v491h-227v151h227v303l172 1v-304h337v-151h-337v-499q0 -129 50.5 -176.5t132.5 -47.5h154v-146h-188q-141 0 -231 81z" />
    <glyph glyph-name="u" unicode="u" horiz-adv-x="1203" 
d="M358.5 24.5q-104.5 53.5 -163 166t-58.5 284.5v545h171v-540q0 -170 76 -258.5t217 -88.5q142 0 217.5 88t75.5 259v540h172v-545q0 -171 -59 -284t-163 -166.5t-241 -53.5q-140 0 -244.5 53.5z" />
    <glyph glyph-name="v" unicode="v" horiz-adv-x="1018" 
d="M13 1020h183l288 -720l25 -91l24 91l288 720h184l-415 -1020h-163z" />
    <glyph glyph-name="w" unicode="w" horiz-adv-x="1555" 
d="M13 1020h185l242 -737l19 -61h2l20 60l232 738h132l225 -725l23 -73h3l27 76l237 722h182l-351 -1020h-162l-252 764h-1l-254 -764h-158z" />
    <glyph glyph-name="x" unicode="x" horiz-adv-x="1026" 
d="M393 520l-345 500h204l260 -384h1l261 384h203l-345 -500l355 -520h-207l-269 398l-270 -398h-202z" />
    <glyph glyph-name="y" unicode="y" horiz-adv-x="1048" 
d="M220 -203q60 0 98 21.5t64 63.5t55 119l11 29l-405 990h183l289 -721l24 -90l26 89l287 721l183 1l-402 -992q-61 -151 -112.5 -229.5t-121 -112.5t-180.5 -34h-168v145h169z" />
    <glyph glyph-name="z" unicode="z" horiz-adv-x="967" 
d="M70 111l591 762h-562v147h795v-113l-588 -760h612v-147h-848v111z" />
    <glyph glyph-name="braceleft" unicode="{" horiz-adv-x="707" 
d="M408.5 -320q-82.5 38 -120.5 123.5t-38 230.5v187q0 120 -43 184t-139 84v136q97 24 139.5 88.5t42.5 179.5v187q0 146 38 231t120 123t222 40v-139q-92 -7 -134 -30t-56.5 -74.5t-14.5 -159.5v-208q0 -109 -42 -185.5t-118 -120.5q78 -43 119 -123.5t41 -182.5v-199
q0 -114 14 -167t56 -76t135 -30v-139q-139 2 -221.5 40z" />
    <glyph glyph-name="bar" unicode="|" horiz-adv-x="538" 
d="M185 1595h168v-1954h-168v1954z" />
    <glyph glyph-name="braceright" unicode="}" horiz-adv-x="707" 
d="M77 -221q93 7 135 30t56 76t14 167v199q0 102 41 182.5t119 123.5q-76 44 -118 120.5t-42 185.5v208q0 108 -14.5 159.5t-56.5 74.5t-134 30v139q140 -2 222 -40t120 -123t38 -231v-187q0 -115 42.5 -179.5t139.5 -88.5v-136q-96 -20 -139 -84t-43 -184v-187
q0 -145 -38 -230.5t-120.5 -123.5t-221.5 -40v139z" />
    <glyph glyph-name="asciitilde" unicode="~" horiz-adv-x="1194" 
d="M118 639q51 48 117.5 77.5t138.5 29.5q59 0 111.5 -15t127.5 -45q67 -27 110.5 -40t88.5 -13q69 0 125 22.5t105 66.5l18 -62q13 -47 17 -62q-50 -49 -118.5 -78.5t-143.5 -29.5q-56 0 -106.5 15t-128.5 45q-67 28 -112 41.5t-92 13.5q-63 0 -120 -23.5t-105 -67.5z" />
    <glyph glyph-name="uni00A0" unicode="&#xa0;" horiz-adv-x="343" 
 />
    <glyph glyph-name="exclamdown" unicode="&#xa1;" horiz-adv-x="575" 
d="M378 1018q32 -31 32 -76q0 -44 -32 -75.5t-81 -31.5t-80.5 31t-31.5 76t31.5 76t80.5 31t81 -31zM231 637h129l24 -281v-687h-177v686z" />
    <glyph glyph-name="cent" unicode="&#xa2;" horiz-adv-x="1181" 
d="M790 186q83 54 122 156h176q-38 -143 -142 -240t-249 -123v-161h-164v157q-129 17 -232.5 92t-162.5 191t-59 252t59 252t162.5 191t232.5 92v149h164v-153q144 -26 248 -121.5t144 -233.5h-177q-39 97 -122 149t-189 52q-90 0 -170.5 -46.5t-130 -132.5t-49.5 -198
q0 -113 49.5 -199t130 -132.5t170.5 -46.5q106 0 189 54z" />
    <glyph glyph-name="sterling" unicode="&#xa3;" horiz-adv-x="1206" 
d="M236 240q54 78 82 161.5t30 145.5h-135v145l138 -1q-5 48 -15 87t-26 89q-18 55 -27 95t-9 87q0 110 49.5 186.5t139 115.5t207.5 39q81 0 171.5 -39.5t154.5 -127.5t64 -224l-170 -1q0 75 -35 131t-85.5 85t-92.5 29q-106 0 -166.5 -52.5t-60.5 -152.5q0 -42 8 -77.5
t25 -90.5q16 -48 26 -89t15 -90h323l1 -144h-326q2 -60 -24.5 -143t-71.5 -155t-96 -103h778v-146h-1002v118q76 44 130 122z" />
    <glyph glyph-name="currency" unicode="&#xa4;" horiz-adv-x="1309" 
d="M233 321q-49 63 -75 139t-26 156q0 82 25.5 159.5t74.5 140.5l-123 123l125 122l127 -127q62 48 136.5 73t154.5 25t155.5 -24.5t138.5 -71.5l126 125l124 -123l-120 -120q50 -64 76 -142t26 -161q0 -81 -26 -157t-76 -139l120 -120l-125 -122l-124 124
q-62 -46 -136.5 -70t-154.5 -25q-81 0 -157 24.5t-139 72.5l-126 -127l-124 123zM835.5 298.5q81.5 48.5 129 133t47.5 187.5q0 102 -47.5 186.5t-129.5 133.5t-179 49q-98 0 -179.5 -48.5t-129 -133t-47.5 -187.5t47.5 -187.5t129.5 -133t179 -48.5q98 0 179.5 48.5z" />
    <glyph glyph-name="yen" unicode="&#xa5;" horiz-adv-x="1249" 
d="M146 698h341l-435 662h195l372 -588l373 588h195l-436 -662h343v-136h-948v136zM536 293l-390 1v135l948 -1v-135h-391v-293l-167 1v292z" />
    <glyph glyph-name="brokenbar" unicode="&#xa6;" horiz-adv-x="504" 
d="M173 1595h168v-818h-168v818zM173 459h168v-818h-168v818z" />
    <glyph glyph-name="section" unicode="&#xa7;" horiz-adv-x="1121" 
d="M308 -534.5q-101 29.5 -205 87.5l81 138q73 -45 159 -74t179 -29q76 0 139 23.5t101 72t38 120.5q0 76 -41 125t-102.5 77t-167.5 62q-122 38 -209.5 84t-144 122t-56.5 188q0 94 38.5 169t105.5 122.5t151 63.5q-111 56 -166 128.5t-55 180.5q0 113 55.5 195.5
t156.5 126.5t234 44q113 0 214.5 -29.5t204.5 -86.5l-81 -138q-73 44 -159 73t-179 29q-76 0 -139 -23.5t-101 -72t-38 -119.5q0 -76 41 -125t103.5 -77.5t166.5 -61.5q122 -39 209.5 -85t144 -122t56.5 -188q0 -94 -39 -169t-106.5 -122.5t-151.5 -63.5q113 -56 168 -128
t55 -181q0 -113 -55.5 -196t-156.5 -126.5t-235 -43.5q-112 0 -213 29.5zM730 245.5q61 29.5 97.5 86t36.5 135.5q0 197 -339 247q-73 -1 -134 -31t-98 -87t-37 -135q0 -111 99.5 -170t240.5 -76q73 1 134 30.5z" />
    <glyph glyph-name="dieresis" unicode="&#xa8;" horiz-adv-x="855" 
d="M211.5 1211q-26.5 24 -26.5 59q0 36 26.5 60t67.5 24q42 0 68.5 -24t26.5 -60q0 -35 -26.5 -59t-68.5 -24q-41 0 -67.5 24zM549 1211q-26 24 -26 59q0 36 26 60t67 24q42 0 68.5 -24t26.5 -60q0 -35 -26.5 -59t-68.5 -24q-41 0 -67 24z" />
    <glyph glyph-name="copyright" unicode="&#xa9;" horiz-adv-x="1621" 
d="M442 63q-167 96 -264 260t-97 358q0 195 97 359t264 260t368 96t368 -96t264 -260t97 -359q0 -194 -97 -358t-264.5 -260t-367.5 -96q-201 0 -368 96zM1121.5 144.5q141.5 80.5 224.5 221.5t83 315t-82.5 315.5t-224.5 222t-312 80.5q-169 0 -311 -80.5t-225 -222
t-83 -315.5t83 -315t225 -221.5t311 -80.5q170 0 311.5 80.5zM569 274q-109 63 -172 171t-63 236t63 236.5t172.5 172t242.5 63.5q92 0 159.5 -29t121.5 -81l-76 -64q-3 7 -29.5 25.5t-71 34.5t-101.5 16q-99 0 -182 -49.5t-131 -135t-48 -189.5q0 -103 48.5 -188.5
t131.5 -135t182 -49.5q67 0 120.5 19.5t85.5 47.5l72 -67q-61 -48 -127 -72.5t-156 -24.5q-133 0 -242 63z" />
    <glyph glyph-name="ordfeminine" unicode="&#xaa;" horiz-adv-x="945" 
d="M254.5 729.5q-82.5 44.5 -128 123.5t-45.5 180t45.5 180t128 123.5t190.5 44.5q80 0 147.5 -38t107.5 -99l13 114h123v-651h-123l-13 114q-41 -61 -108.5 -98.5t-147.5 -37.5q-107 0 -189.5 44.5zM577 842.5q52 28.5 82.5 78.5t30.5 113q0 61 -30.5 111t-83 78.5
t-115.5 28.5q-64 0 -115.5 -26t-81.5 -75.5t-30 -116.5q0 -68 30 -118t82 -76t116 -26q63 0 115 28.5z" />
    <glyph glyph-name="guillemotleft" unicode="&#xab;" horiz-adv-x="1125" 
d="M101 501l276 363h191l-277 -363l276 -365l-190 -1zM547 501l276 363h191l-277 -363l276 -365l-190 -1z" />
    <glyph glyph-name="logicalnot" unicode="&#xac;" horiz-adv-x="1135" 
d="M849 556h-731v143h899v-447h-168v304z" />
    <glyph glyph-name="uni00AD" unicode="&#xad;" horiz-adv-x="883" 
d="M118 617h647v-144h-647v144z" />
    <glyph glyph-name="registered" unicode="&#xae;" horiz-adv-x="1621" 
d="M442 63q-167 96 -264 260t-97 358q0 195 97 359t264 260t368 96t368 -96t264 -260t97 -359q0 -194 -97 -358t-264.5 -260t-367.5 -96q-201 0 -368 96zM1122 145q142 81 224.5 222t82.5 314q0 174 -82.5 315.5t-224.5 222t-312 80.5q-169 0 -311 -80.5t-225 -222
t-83 -315.5t83 -315t225 -221.5t311 -80.5q170 0 312 81zM871 1144q80 0 146.5 -37.5t105.5 -103t39 -145.5q0 -87 -46.5 -156.5t-122.5 -100.5l186 -373h-126l-171 348q-14 -2 -43 -2h-211v-346h-119v916h362zM954.5 695q41.5 25 65.5 68.5t24 94.5q0 50 -24.5 93.5
t-66 69.5t-91.5 26h-234v-377h235q50 0 91.5 25z" />
    <glyph glyph-name="macron" unicode="&#xaf;" horiz-adv-x="845" 
d="M155 1309h557v-107h-557v107z" />
    <glyph glyph-name="degree" unicode="&#xb0;" horiz-adv-x="793" 
d="M238.5 857q-70.5 41 -112 111t-41.5 153t41.5 153.5t112 111.5t153.5 41t153.5 -41t111.5 -111.5t41 -153.5t-41 -153t-111.5 -111t-153.5 -41t-153.5 41zM479.5 968.5q40.5 23.5 64.5 64t24 88.5t-24 88.5t-64.5 64.5t-87.5 24q-48 0 -88.5 -24t-64 -64.5t-23.5 -88.5
t23.5 -88.5t64 -64t88.5 -23.5q47 0 87.5 23.5z" />
    <glyph glyph-name="plusminus" unicode="&#xb1;" horiz-adv-x="1160" 
d="M505 647l-386 1v141h386v393h146l1 -393h388v-142h-388v-384h-147v384zM120 166l921 -1v-142l-921 1v142z" />
    <glyph glyph-name="uni00B2" unicode="&#xb2;" horiz-adv-x="708" 
d="M326 1085q60 47 94 80t53 68t19 76q0 61 -39.5 98.5t-99.5 37.5t-100.5 -39t-39.5 -105h-137q0 63 29.5 121t91.5 95.5t155 37.5q85 0 148.5 -32.5t97.5 -88.5t34 -124q0 -146 -160 -256l-188 -159q19 4 40 4q33 0 58 1q104 2 264 2v-112h-580v81z" />
    <glyph glyph-name="uni00B3" unicode="&#xb3;" horiz-adv-x="706" 
d="M176.5 820q-82.5 55 -94.5 175h138q12 -60 55.5 -90t96.5 -30q44 0 81 18.5t59 51.5t22 74q0 61 -45.5 99.5t-115.5 38.5l-125 1v70l95 97l83 104l-319 -4v110h488v-69l-176 -210l14 -2q51 -2 106.5 -27t94 -77t38.5 -129q0 -72 -38 -130.5t-105.5 -92t-150.5 -33.5
q-119 0 -201.5 55z" />
    <glyph glyph-name="acute" unicode="&#xb4;" horiz-adv-x="521" 
d="M223 1432l131 -45l-165 -238h-120z" />
    <glyph glyph-name="uni00B5" unicode="&#xb5;" horiz-adv-x="1285" 
d="M337 1020v-540q0 -171 78.5 -259t226.5 -88q147 0 226.5 86.5t79.5 260.5v540h172v-1020h-173l6 172q-42 -103 -122.5 -152t-186.5 -49q-241 0 -318 193l11 -512h-172v1368h172z" />
    <glyph glyph-name="paragraph" unicode="&#xb6;" horiz-adv-x="1336" 
d="M1151 104q0 -246 -121 -365t-350 -119q-127 0 -226 19t-184.5 55t-187.5 96l62 122q305 -144 503 -149v803h-137q-115 0 -212 53.5t-153.5 146t-56.5 203.5q0 104 57 194t155 143.5t213 53.5h638v-1256zM1008 1217h-218v-1441q107 25 162.5 104t55.5 224v1113z" />
    <glyph glyph-name="periodcentered" unicode="&#xb7;" horiz-adv-x="517" 
d="M177 413q-32 31 -32 76q0 44 32 75.5t81 31.5t81 -31.5t32 -75.5q0 -45 -32 -76t-81 -31t-81 31z" />
    <glyph glyph-name="cedilla" unicode="&#xb8;" horiz-adv-x="485" 
d="M196 -358q-35 11 -64 31l35 81q27 -15 48 -22t47 -7q27 0 53.5 18t26.5 56q0 42 -39.5 58.5t-91.5 17.5l45 153l81 -2l-37 -93q56 -10 98.5 -46t42.5 -93q0 -52 -25.5 -89t-65.5 -55.5t-84 -18.5q-35 0 -70 11z" />
    <glyph glyph-name="uni00B9" unicode="&#xb9;" horiz-adv-x="464" 
d="M201 1428l-145 -53l-2 96l168 64h114v-753h-137z" />
    <glyph glyph-name="ordmasculine" unicode="&#xba;" horiz-adv-x="925" 
d="M269.5 732q-85.5 44 -134 122.5t-48.5 178.5t48.5 178.5t134 122.5t193.5 44t194.5 -44t135.5 -122.5t49 -178.5q0 -101 -49 -179.5t-135 -122t-195 -43.5q-108 0 -193.5 44zM579 843q51 25 80.5 74t29.5 117q0 67 -29.5 115t-81 73.5t-114.5 25.5t-114 -25t-80.5 -73.5
t-29.5 -115.5q0 -68 29.5 -117t80.5 -74t114 -25q64 0 115 25z" />
    <glyph glyph-name="guillemotright" unicode="&#xbb;" horiz-adv-x="1126" 
d="M113 136l276 365l-277 363h191l276 -363l-276 -366zM559 136l276 365l-277 363h190l277 -363l-277 -366z" />
    <glyph glyph-name="onequarter" unicode="&#xbc;" horiz-adv-x="904" 
d="M228 1324l-2 96l169 65h114v-753h-138l2 645zM66 642h784v-128h-784v128zM43 -174l-8 88l390 508l160 -12v-474h126v-110l-126 1v-161h-139v161zM450 263h-2l-262 -328l262 1z" />
    <glyph glyph-name="onehalf" unicode="&#xbd;" horiz-adv-x="903" 
d="M241 1340l-2 96l169 64h114v-753h-138l2 645zM59 654h785v-128h-785v128zM504 22.5q34 32.5 53 67.5t19 76q0 61 -39.5 98.5t-99.5 37.5t-100.5 -39t-39.5 -106h-137q0 64 29.5 122t91.5 95.5t155 37.5q85 0 148.5 -32.5t97.5 -88.5t34 -124q0 -147 -161 -256l-187 -159
q19 4 40 4q32 0 57 1q104 2 265 2v-112h-580v81l260 214q60 48 94 80.5z" />
    <glyph glyph-name="questiondown" unicode="&#xbf;" horiz-adv-x="941" 
d="M593 1016.5q32 -31.5 32 -75.5q0 -45 -32 -76.5t-81 -31.5t-81 31.5t-32 76.5t32 76t82 31q48 0 80 -31.5zM554 403q-48 -76 -133 -153q-33 -30 -32 -29q-53 -46 -83.5 -77t-50.5 -66t-20 -73q0 -96 65.5 -152t189.5 -56q119 0 186 58.5t67 162.5h174q0 -111 -50 -197
t-147.5 -135t-234.5 -49q-124 0 -220.5 45t-150 126.5t-53.5 187.5q0 79 33.5 142t79.5 108t123 107q70 56 105.5 109.5t35.5 117.5v55h164v-59q0 -97 -48 -173z" />
    <glyph glyph-name="Agrave" unicode="&#xc0;" horiz-adv-x="1347" 
d="M1146 0l-129 308h-687l-129 -308h-188l576 1360h170l575 -1360h-188zM393 458h561l-274 653l-5 23h-2l-6 -23zM421 1699l130 45l175 -283h-129z" />
    <glyph glyph-name="Aacute" unicode="&#xc1;" horiz-adv-x="1347" 
d="M1146 0l-129 308h-687l-129 -308h-188l576 1360h170l575 -1360h-188zM393 458h561l-274 653l-5 23h-2l-6 -23zM793 1744l131 -45l-177 -238h-128z" />
    <glyph glyph-name="Acircumflex" unicode="&#xc2;" horiz-adv-x="1347" 
d="M1146 0l-129 308h-687l-129 -308h-188l576 1360h170l575 -1360h-188zM393 458h561l-274 653l-5 23h-2l-6 -23zM378 1468l235 246h114l237 -246h-144l-150 151l-148 -151h-144z" />
    <glyph glyph-name="Atilde" unicode="&#xc3;" horiz-adv-x="1347" 
d="M1146 0l-129 308h-687l-129 -308h-188l576 1360h170l575 -1360h-188zM393 458h561l-274 653l-5 23h-2l-6 -23zM758 1465q-35 0 -67 11t-72 31q-31 15 -49 22t-35 7q-25 0 -46 -14.5t-39 -50.5l-63 51q25 59 63 90.5t88 31.5q16 0 34 -3q25 -4 46.5 -12.5t52.5 -22.5
q32 -15 51 -22t38 -7q68 0 116 97l65 -51q-69 -158 -183 -158z" />
    <glyph glyph-name="Adieresis" unicode="&#xc4;" horiz-adv-x="1347" 
d="M1146 0l-129 308h-687l-129 -308h-188l576 1360h170l575 -1360h-188zM393 458h561l-274 653l-5 23h-2l-6 -23zM436.5 1523q-26.5 24 -26.5 59q0 36 26.5 60t67.5 24q42 0 68.5 -24t26.5 -60q0 -35 -26.5 -59t-68.5 -24q-41 0 -67.5 24zM774 1523q-26 24 -26 59
q0 36 26 60t67 24q42 0 68.5 -24t26.5 -60q0 -35 -26.5 -59t-68.5 -24q-41 0 -67 24z" />
    <glyph glyph-name="Aring" unicode="&#xc5;" horiz-adv-x="1347" 
d="M1146 0l-129 308h-687l-129 -308h-188l576 1360h170l575 -1360h-188zM393 458h561l-274 653l-5 23h-2l-6 -23zM585.5 1481q-39.5 20 -61.5 53.5t-22 73.5q0 42 22 76.5t61.5 54.5t88.5 20q50 0 89.5 -20t61.5 -54.5t22 -76.5q0 -40 -22 -73.5t-61.5 -53.5t-89.5 -20
q-49 0 -88.5 20zM728.5 1559.5q21.5 20.5 21.5 48.5q0 31 -21.5 52t-54.5 21q-31 0 -52.5 -21t-21.5 -52q0 -28 21.5 -48.5t52.5 -20.5q33 0 54.5 20.5z" />
    <glyph glyph-name="AE" unicode="&#xc6;" horiz-adv-x="1963" 
d="M1183 160h736v-160h-913v307h-564l-212 -307h-214l943 1360h951v-161h-727v-431h632v-152h-632v-456zM542 457h464v682l-19 -37z" />
    <glyph glyph-name="Ccedilla" unicode="&#xc7;" horiz-adv-x="1509" 
d="M1077.5 221q123.5 84 168.5 244h181q-32 -154 -122.5 -263.5t-218.5 -166.5t-272 -62l-26 -65q56 -10 98.5 -46t42.5 -93q0 -52 -25.5 -89t-65.5 -55.5t-84 -18.5q-35 0 -70 11t-64 31l35 81q27 -15 48 -22t47 -7q27 0 53.5 18t26.5 56q0 42 -39.5 58.5t-91.5 17.5
l37 125q-184 13 -333.5 110.5t-235.5 254t-86 341.5q0 195 94 357.5t256.5 257t358.5 94.5q148 0 281 -56t228 -167t128 -269h-180q-45 161 -168.5 245t-293.5 84q-147 0 -267.5 -70t-190 -195t-69.5 -281q0 -157 69.5 -281t190 -193.5t267.5 -69.5q169 0 292.5 84z" />
    <glyph glyph-name="Egrave" unicode="&#xc8;" horiz-adv-x="1170" 
d="M185 1360h904v-161h-727v-431h632v-152h-632v-456h736v-160h-913v1360zM395 1699l130 45l175 -283h-129z" />
    <glyph glyph-name="Eacute" unicode="&#xc9;" horiz-adv-x="1170" 
d="M185 1360h904v-161h-727v-431h632v-152h-632v-456h736v-160h-913v1360zM767 1744l131 -45l-177 -238h-128z" />
    <glyph glyph-name="Ecircumflex" unicode="&#xca;" horiz-adv-x="1170" 
d="M185 1360h904v-161h-727v-431h632v-152h-632v-456h736v-160h-913v1360zM351 1468l235 246h114l237 -246h-144l-150 151l-148 -151h-144z" />
    <glyph glyph-name="Edieresis" unicode="&#xcb;" horiz-adv-x="1170" 
d="M185 1360h904v-161h-727v-431h632v-152h-632v-456h736v-160h-913v1360zM409.5 1523q-26.5 24 -26.5 59q0 36 26.5 60t67.5 24q42 0 68.5 -24t26.5 -60q0 -35 -26.5 -59t-68.5 -24q-41 0 -67.5 24zM747 1523q-26 24 -26 59q0 36 26 60t67 24q42 0 68.5 -24t26.5 -60
q0 -35 -26.5 -59t-68.5 -24q-41 0 -67 24z" />
    <glyph glyph-name="Igrave" unicode="&#xcc;" horiz-adv-x="547" 
d="M185 1360h177v-1360h-177v1360zM21 1699l130 45l175 -283h-129z" />
    <glyph glyph-name="Iacute" unicode="&#xcd;" horiz-adv-x="547" 
d="M185 1360h177v-1360h-177v1360zM393 1744l131 -45l-177 -238h-128z" />
    <glyph glyph-name="Icircumflex" unicode="&#xce;" horiz-adv-x="547" 
d="M185 1360h177v-1360h-177v1360zM-23 1468l235 246h114l237 -246h-144l-150 151l-148 -151h-144z" />
    <glyph glyph-name="Idieresis" unicode="&#xcf;" horiz-adv-x="547" 
d="M185 1360h177v-1360h-177v1360zM35.5 1523q-26.5 24 -26.5 59q0 36 26.5 60t67.5 24q42 0 68.5 -24t26.5 -60q0 -35 -26.5 -59t-68.5 -24q-41 0 -67.5 24zM373 1523q-26 24 -26 59q0 36 26 60t67 24q42 0 68.5 -24t26.5 -60q0 -35 -26.5 -59t-68.5 -24q-41 0 -67 24z" />
    <glyph glyph-name="Eth" unicode="&#xd0;" horiz-adv-x="1481" 
d="M1057.5 1275q162.5 -85 252 -239t89.5 -355q0 -202 -89 -356.5t-251 -239.5t-374 -85h-500v671h-134v133h134v556h497q213 0 375.5 -85zM967.5 223.5q121.5 63.5 187 180t65.5 273.5t-65.5 276t-188 184t-289.5 65h-318v-398h339v-133h-339v-511h322q165 0 286.5 63.5z
" />
    <glyph glyph-name="Ntilde" unicode="&#xd1;" horiz-adv-x="1534" 
d="M1173 1360h176v-1360h-150l-837 1063v-1063h-177v1360h149l838 -1066h1v1066zM850 1465q-35 0 -67 11t-72 31q-31 15 -49 22t-35 7q-25 0 -46 -14.5t-39 -50.5l-63 51q25 59 63 90.5t88 31.5q16 0 34 -3q25 -4 46.5 -12.5t52.5 -22.5q32 -15 51 -22t38 -7q68 0 116 97
l65 -51q-69 -158 -183 -158z" />
    <glyph glyph-name="Ograve" unicode="&#xd2;" horiz-adv-x="1616" 
d="M443 68q-167 95 -264.5 257.5t-97.5 355.5q0 195 97.5 357.5t264 257t364.5 94.5t365 -94.5t265 -257t98 -357.5q0 -193 -98 -355.5t-265 -257.5t-365 -95q-197 0 -364 95zM1084 208.5q126 71.5 200 196t74 276.5t-74 277t-200 197t-277 72q-150 0 -276 -72t-199.5 -197
t-73.5 -277t73.5 -276.5t199.5 -196t276 -71.5q151 0 277 71.5zM549 1721l130 45l175 -283h-129z" />
    <glyph glyph-name="Oacute" unicode="&#xd3;" horiz-adv-x="1616" 
d="M443 68q-167 95 -264.5 257.5t-97.5 355.5q0 195 97.5 357.5t264 257t364.5 94.5t365 -94.5t265 -257t98 -357.5q0 -193 -98 -355.5t-265 -257.5t-365 -95q-197 0 -364 95zM1084 208.5q126 71.5 200 196t74 276.5t-74 277t-200 197t-277 72q-150 0 -276 -72t-199.5 -197
t-73.5 -277t73.5 -276.5t199.5 -196t276 -71.5q151 0 277 71.5zM921 1766l131 -45l-177 -238h-128z" />
    <glyph glyph-name="Ocircumflex" unicode="&#xd4;" horiz-adv-x="1616" 
d="M443 68q-167 95 -264.5 257.5t-97.5 355.5q0 195 97.5 357.5t264 257t364.5 94.5t365 -94.5t265 -257t98 -357.5q0 -193 -98 -355.5t-265 -257.5t-365 -95q-197 0 -364 95zM1084 208.5q126 71.5 200 196t74 276.5t-74 277t-200 197t-277 72q-150 0 -276 -72t-199.5 -197
t-73.5 -277t73.5 -276.5t199.5 -196t276 -71.5q151 0 277 71.5zM505 1490l235 246h114l237 -246h-144l-150 151l-148 -151h-144z" />
    <glyph glyph-name="Otilde" unicode="&#xd5;" horiz-adv-x="1616" 
d="M443 68q-167 95 -264.5 257.5t-97.5 355.5q0 195 97.5 357.5t264 257t364.5 94.5t365 -94.5t265 -257t98 -357.5q0 -193 -98 -355.5t-265 -257.5t-365 -95q-197 0 -364 95zM1084 208.5q126 71.5 200 196t74 276.5t-74 277t-200 197t-277 72q-150 0 -276 -72t-199.5 -197
t-73.5 -277t73.5 -276.5t199.5 -196t276 -71.5q151 0 277 71.5zM885 1487q-35 0 -67 11t-72 31q-31 15 -49 22t-35 7q-25 0 -46 -14.5t-39 -50.5l-63 51q25 59 63 90.5t88 31.5q16 0 34 -3q25 -4 46.5 -12.5t52.5 -22.5q32 -15 51 -22t38 -7q68 0 116 97l65 -51
q-69 -158 -183 -158z" />
    <glyph glyph-name="Odieresis" unicode="&#xd6;" horiz-adv-x="1616" 
d="M443 68q-167 95 -264.5 257.5t-97.5 355.5q0 195 97.5 357.5t264 257t364.5 94.5t365 -94.5t265 -257t98 -357.5q0 -193 -98 -355.5t-265 -257.5t-365 -95q-197 0 -364 95zM1084 208.5q126 71.5 200 196t74 276.5t-74 277t-200 197t-277 72q-150 0 -276 -72t-199.5 -197
t-73.5 -277t73.5 -276.5t199.5 -196t276 -71.5q151 0 277 71.5zM563.5 1545q-26.5 24 -26.5 59q0 36 26.5 60t67.5 24q42 0 68.5 -24t26.5 -60q0 -35 -26.5 -59t-68.5 -24q-41 0 -67.5 24zM901 1545q-26 24 -26 59q0 36 26 60t67 24q42 0 68.5 -24t26.5 -60q0 -35 -26.5 -59
t-68.5 -24q-41 0 -67 24z" />
    <glyph glyph-name="multiply" unicode="&#xd7;" horiz-adv-x="999" 
d="M118 239l279 280l-273 275l102 100l274 -275l276 278l104 -102l-277 -278l275 -275l-102 -100l-275 275l-279 -279z" />
    <glyph glyph-name="Oslash" unicode="&#xd8;" horiz-adv-x="1616" 
d="M1467 982.5q68 -140.5 68 -301.5q0 -193 -98 -355.5t-265 -257.5t-365 -95q-179 0 -334 79l-121 -176l-137 98l117 171q-118 99 -184.5 238t-66.5 298q0 195 97.5 357.5t264 257t364.5 94.5q176 0 331 -76l112 163l137 -99l-108 -156q120 -99 188 -239.5zM303 461.5
q45 -102.5 125 -177.5l615 892q-111 51 -236 51q-150 0 -276 -72t-199.5 -197t-73.5 -277q0 -117 45 -219.5zM1084 208.5q126 71.5 200 196t74 276.5q0 119 -46 222.5t-128 179.5l-616 -893q112 -53 239 -53q151 0 277 71.5z" />
    <glyph glyph-name="Ugrave" unicode="&#xd9;" horiz-adv-x="1444" 
d="M435.5 41q-128.5 69 -202.5 195t-74 291v834h176v-821q0 -112 46 -204t133.5 -146t207.5 -54q118 0 205.5 53.5t134 145t46.5 203.5v823h177v-834q0 -162 -72 -288t-200 -196.5t-291 -70.5q-158 0 -286.5 69zM475 1699l130 45l175 -283h-129z" />
    <glyph glyph-name="Uacute" unicode="&#xda;" horiz-adv-x="1444" 
d="M435.5 41q-128.5 69 -202.5 195t-74 291v834h176v-821q0 -112 46 -204t133.5 -146t207.5 -54q118 0 205.5 53.5t134 145t46.5 203.5v823h177v-834q0 -162 -72 -288t-200 -196.5t-291 -70.5q-158 0 -286.5 69zM847 1744l131 -45l-177 -238h-128z" />
    <glyph glyph-name="Ucircumflex" unicode="&#xdb;" horiz-adv-x="1444" 
d="M435.5 41q-128.5 69 -202.5 195t-74 291v834h176v-821q0 -112 46 -204t133.5 -146t207.5 -54q118 0 205.5 53.5t134 145t46.5 203.5v823h177v-834q0 -162 -72 -288t-200 -196.5t-291 -70.5q-158 0 -286.5 69zM431 1468l235 246h114l237 -246h-144l-150 151l-148 -151
h-144z" />
    <glyph glyph-name="Udieresis" unicode="&#xdc;" horiz-adv-x="1444" 
d="M435.5 41q-128.5 69 -202.5 195t-74 291v834h176v-821q0 -112 46 -204t133.5 -146t207.5 -54q118 0 205.5 53.5t134 145t46.5 203.5v823h177v-834q0 -162 -72 -288t-200 -196.5t-291 -70.5q-158 0 -286.5 69zM489.5 1523q-26.5 24 -26.5 59q0 36 26.5 60t67.5 24
q42 0 68.5 -24t26.5 -60q0 -35 -26.5 -59t-68.5 -24q-41 0 -67.5 24zM827 1523q-26 24 -26 59q0 36 26 60t67 24q42 0 68.5 -24t26.5 -60q0 -35 -26.5 -59t-68.5 -24q-41 0 -67 24z" />
    <glyph glyph-name="Yacute" unicode="&#xdd;" horiz-adv-x="1317" 
d="M570 521l-550 839h209l429 -680h1l427 680h210l-550 -838l1 -522h-177v521zM779 1744l131 -45l-177 -238h-128z" />
    <glyph glyph-name="Thorn" unicode="&#xde;" horiz-adv-x="1253" 
d="M354 1360v-242h369q130 0 232.5 -57.5t160.5 -158.5t58 -228t-57.5 -228t-159.5 -157.5t-231 -56.5h-372v-232h-177v1360h177zM860 421.5q64 38.5 100.5 105t36.5 147.5t-37 148t-101 106t-143 39h-362v-584h364q78 0 142 38.5z" />
    <glyph glyph-name="germandbls" unicode="&#xdf;" horiz-adv-x="1233" 
d="M964 426.5q91 -52.5 140.5 -142.5t49.5 -202q0 -134 -62 -236.5t-165.5 -157.5t-223.5 -55q-59 0 -118 15t-106 45v130q46 -34 100 -50.5t104 -16.5q83 0 155 43.5t115.5 119.5t43.5 169q0 90 -42 159.5t-115.5 107.5t-164.5 38h-90v97l277 381h-525v-871h-172v1092
q0 87 33 160.5t100.5 118.5t166.5 45h213v-145h-173q-77 0 -122.5 -54.5t-45.5 -138.5v-58h720l-1 -120l-318 -417h14q121 -4 212 -56.5z" />
    <glyph glyph-name="agrave" unicode="&#xe0;" horiz-adv-x="1306" 
d="M322 43q-113 72 -178 195.5t-65 271.5q0 147 65 270.5t178 195.5t249 72q137 0 245 -66t160 -181v219h165v-1020h-165v217q-52 -114 -160 -180t-244 -66q-137 0 -250 72zM791.5 182q82.5 50 130.5 136.5t48 191.5q0 104 -48.5 190.5t-130.5 136.5t-180 50
q-99 0 -181.5 -48.5t-131 -134.5t-48.5 -194q0 -110 48.5 -196t131 -134t180.5 -48q99 0 181.5 50zM425 1387l130 45l154 -283h-119z" />
    <glyph glyph-name="aacute" unicode="&#xe1;" horiz-adv-x="1306" 
d="M322 43q-113 72 -178 195.5t-65 271.5q0 147 65 270.5t178 195.5t249 72q137 0 245 -66t160 -181v219h165v-1020h-165v217q-52 -114 -160 -180t-244 -66q-137 0 -250 72zM791.5 182q82.5 50 130.5 136.5t48 191.5q0 104 -48.5 190.5t-130.5 136.5t-180 50
q-99 0 -181.5 -48.5t-131 -134.5t-48.5 -194q0 -110 48.5 -196t131 -134t180.5 -48q99 0 181.5 50zM783 1432l131 -45l-165 -238h-120z" />
    <glyph glyph-name="acircumflex" unicode="&#xe2;" horiz-adv-x="1306" 
d="M322 43q-113 72 -178 195.5t-65 271.5q0 147 65 270.5t178 195.5t249 72q137 0 245 -66t160 -181v219h165v-1020h-165v217q-52 -114 -160 -180t-244 -66q-137 0 -250 72zM791.5 182q82.5 50 130.5 136.5t48 191.5q0 104 -48.5 190.5t-130.5 136.5t-180 50
q-99 0 -181.5 -48.5t-131 -134.5t-48.5 -194q0 -110 48.5 -196t131 -134t180.5 -48q99 0 181.5 50zM379 1147l235 246h114l237 -246l-144 -1l-150 151l-148 -151z" />
    <glyph glyph-name="atilde" unicode="&#xe3;" horiz-adv-x="1306" 
d="M322 43q-113 72 -178 195.5t-65 271.5q0 147 65 270.5t178 195.5t249 72q137 0 245 -66t160 -181v219h165v-1020h-165v217q-52 -114 -160 -180t-244 -66q-137 0 -250 72zM791.5 182q82.5 50 130.5 136.5t48 191.5q0 104 -48.5 190.5t-130.5 136.5t-180 50
q-99 0 -181.5 -48.5t-131 -134.5t-48.5 -194q0 -110 48.5 -196t131 -134t180.5 -48q99 0 181.5 50zM767 1153q-35 0 -67 11t-72 31q-31 15 -49 22t-35 7q-25 0 -46 -14.5t-39 -50.5l-63 51q25 59 63 90.5t88 31.5q16 0 34 -3q25 -4 46.5 -12.5t52.5 -22.5q32 -15 51 -22
t38 -7q68 0 116 97l65 -51q-69 -158 -183 -158z" />
    <glyph glyph-name="adieresis" unicode="&#xe4;" horiz-adv-x="1306" 
d="M322 43q-113 72 -178 195.5t-65 271.5q0 147 65 270.5t178 195.5t249 72q137 0 245 -66t160 -181v219h165v-1020h-165v217q-52 -114 -160 -180t-244 -66q-137 0 -250 72zM791.5 182q82.5 50 130.5 136.5t48 191.5q0 104 -48.5 190.5t-130.5 136.5t-180 50
q-99 0 -181.5 -48.5t-131 -134.5t-48.5 -194q0 -110 48.5 -196t131 -134t180.5 -48q99 0 181.5 50zM431.5 1211q-26.5 24 -26.5 59q0 36 26.5 60t67.5 24q42 0 68.5 -24t26.5 -60q0 -35 -26.5 -59t-68.5 -24q-41 0 -67.5 24zM769 1211q-26 24 -26 59q0 36 26 60t67 24
q42 0 68.5 -24t26.5 -60q0 -35 -26.5 -59t-68.5 -24q-41 0 -67 24z" />
    <glyph glyph-name="aring" unicode="&#xe5;" horiz-adv-x="1306" 
d="M322 43q-113 72 -178 195.5t-65 271.5q0 147 65 270.5t178 195.5t249 72q137 0 245 -66t160 -181v219h165v-1020h-165v217q-52 -114 -160 -180t-244 -66q-137 0 -250 72zM791.5 182q82.5 50 130.5 136.5t48 191.5q0 104 -48.5 190.5t-130.5 136.5t-180 50
q-99 0 -181.5 -48.5t-131 -134.5t-48.5 -194q0 -110 48.5 -196t131 -134t180.5 -48q99 0 181.5 50zM589.5 1169q-39.5 20 -61.5 53.5t-22 73.5q0 42 22 76.5t61.5 54.5t88.5 20q50 0 89.5 -20t61.5 -54.5t22 -76.5q0 -40 -22 -73.5t-61.5 -53.5t-89.5 -20q-49 0 -88.5 20z
M732.5 1247.5q21.5 20.5 21.5 48.5q0 31 -21.5 52t-54.5 21q-31 0 -52.5 -21t-21.5 -52q0 -28 21.5 -48.5t52.5 -20.5q33 0 54.5 20.5z" />
    <glyph glyph-name="ae" unicode="&#xe6;" horiz-adv-x="2063" 
d="M1997 465h-846q10 -100 59 -175.5t124 -116.5t159 -41q103 0 176 44.5t107 130.5h192q-29 -94 -97 -170.5t-165 -120.5t-210 -44q-103 0 -194 37.5t-161 105.5v-115h-165v217q-52 -114 -160 -180t-244 -66q-137 0 -250 72t-178 195.5t-65 271.5q0 147 65 270.5t178 195.5
t249 72q137 0 245 -66t160 -181v219h165v-114q70 68 161 105.5t194 37.5q143 0 258.5 -70.5t181 -188.5t65.5 -255q0 -21 -4 -70zM791.5 182q82.5 50 130.5 136.5t48 191.5q0 104 -48.5 190.5t-130.5 136.5t-180 50q-99 0 -181.5 -48.5t-131 -134.5t-48.5 -194
q0 -110 48.5 -196t131 -134t180.5 -48q99 0 181.5 50zM1825 617q-5 72 -51 134t-120.5 99t-159.5 37q-78 0 -147.5 -31.5t-119 -92.5t-68.5 -146h666z" />
    <glyph glyph-name="ccedilla" unicode="&#xe7;" horiz-adv-x="1153" 
d="M790 186q83 54 122 156h176q-28 -106 -93.5 -187.5t-159.5 -129.5t-207 -53l-22 -55q56 -10 98.5 -46t42.5 -93q0 -52 -25.5 -89t-65.5 -55.5t-84 -18.5q-35 0 -70 11t-64 31l35 81q27 -15 48 -22t47 -7q27 0 53.5 18t26.5 56q0 42 -39.5 58.5t-91.5 17.5l34 114
q-133 12 -241 86.5t-169.5 193t-61.5 257.5q0 147 69 270.5t188 196t264 72.5q119 0 219 -46.5t169.5 -128.5t100.5 -188h-177q-39 97 -122 149t-189 52q-90 0 -170.5 -46.5t-130 -132.5t-49.5 -198q0 -113 49.5 -199t130 -132.5t170.5 -46.5q106 0 189 54z" />
    <glyph glyph-name="egrave" unicode="&#xe8;" horiz-adv-x="1165" 
d="M1099 465h-846q10 -100 59 -175.5t123.5 -116.5t158.5 -41q103 0 176 44.5t107 130.5h193q-29 -94 -97 -170.5t-165 -120.5t-210 -44q-145 0 -264 72t-187 195t-68 271q0 147 68.5 271t187 196t263.5 72q143 0 258.5 -70.5t180.5 -188.5t65 -255q0 -14 -3 -70zM926 617
q-5 72 -51 134t-120.5 99t-159.5 37q-78 0 -147 -31.5t-118.5 -92.5t-68.5 -146h665zM339 1387l130 45l154 -283h-119z" />
    <glyph glyph-name="eacute" unicode="&#xe9;" horiz-adv-x="1165" 
d="M1099 465h-846q10 -100 59 -175.5t123.5 -116.5t158.5 -41q103 0 176 44.5t107 130.5h193q-29 -94 -97 -170.5t-165 -120.5t-210 -44q-145 0 -264 72t-187 195t-68 271q0 147 68.5 271t187 196t263.5 72q143 0 258.5 -70.5t180.5 -188.5t65 -255q0 -14 -3 -70zM926 617
q-5 72 -51 134t-120.5 99t-159.5 37q-78 0 -147 -31.5t-118.5 -92.5t-68.5 -146h665zM697 1432l131 -45l-165 -238h-120z" />
    <glyph glyph-name="ecircumflex" unicode="&#xea;" horiz-adv-x="1165" 
d="M1099 465h-846q10 -100 59 -175.5t123.5 -116.5t158.5 -41q103 0 176 44.5t107 130.5h193q-29 -94 -97 -170.5t-165 -120.5t-210 -44q-145 0 -264 72t-187 195t-68 271q0 147 68.5 271t187 196t263.5 72q143 0 258.5 -70.5t180.5 -188.5t65 -255q0 -14 -3 -70zM926 617
q-5 72 -51 134t-120.5 99t-159.5 37q-78 0 -147 -31.5t-118.5 -92.5t-68.5 -146h665zM293 1147l235 246h114l237 -246l-144 -1l-150 151l-148 -151z" />
    <glyph glyph-name="edieresis" unicode="&#xeb;" horiz-adv-x="1165" 
d="M1099 465h-846q10 -100 59 -175.5t123.5 -116.5t158.5 -41q103 0 176 44.5t107 130.5h193q-29 -94 -97 -170.5t-165 -120.5t-210 -44q-145 0 -264 72t-187 195t-68 271q0 147 68.5 271t187 196t263.5 72q143 0 258.5 -70.5t180.5 -188.5t65 -255q0 -14 -3 -70zM926 617
q-5 72 -51 134t-120.5 99t-159.5 37q-78 0 -147 -31.5t-118.5 -92.5t-68.5 -146h665zM346.5 1211q-26.5 24 -26.5 59q0 36 26.5 60t67.5 24q42 0 68.5 -24t26.5 -60q0 -35 -26.5 -59t-68.5 -24q-41 0 -67.5 24zM684 1211q-26 24 -26 59q0 36 26 60t67 24q42 0 68.5 -24
t26.5 -60q0 -35 -26.5 -59t-68.5 -24q-41 0 -67 24z" />
    <glyph glyph-name="igrave" unicode="&#xec;" horiz-adv-x="502" 
d="M165 1020h172v-1020h-172v1020zM2 1387l130 45l154 -283h-119z" />
    <glyph glyph-name="iacute" unicode="&#xed;" horiz-adv-x="502" 
d="M165 1020h172v-1020h-172v1020zM360 1432l131 -45l-165 -238h-120z" />
    <glyph glyph-name="icircumflex" unicode="&#xee;" horiz-adv-x="502" 
d="M165 1020h172v-1020h-172v1020zM-44 1147l235 246h114l237 -246l-144 -1l-150 151l-148 -151z" />
    <glyph glyph-name="idieresis" unicode="&#xef;" horiz-adv-x="502" 
d="M165 1020h172v-1020h-172v1020zM8.5 1211q-26.5 24 -26.5 59q0 36 26.5 60t67.5 24q42 0 68.5 -24t26.5 -60q0 -35 -26.5 -59t-68.5 -24q-41 0 -67.5 24zM346 1211q-26 24 -26 59q0 36 26 60t67 24q42 0 68.5 -24t26.5 -60q0 -35 -26.5 -59t-68.5 -24q-41 0 -67 24z" />
    <glyph glyph-name="eth" unicode="&#xf0;" horiz-adv-x="1251" 
d="M339 41.5q-121 70.5 -190.5 192t-69.5 269.5q0 149 63.5 270.5t178.5 191.5t262 70q107 0 201.5 -54.5t153.5 -149.5q-55 216 -174 361l-218 -116l-51 84l196 107q-77 71 -160 112l207 49q68 -51 117 -100l194 103l51 -83l-178 -97q107 -137 162.5 -322.5t55.5 -393.5
q0 -161 -69 -289.5t-190.5 -201.5t-271.5 -73q-149 0 -270 70.5zM791.5 180.5q82.5 48.5 130.5 133.5t48 189q0 110 -48 197.5t-130.5 137t-181.5 49.5t-181 -49.5t-130 -137t-48 -197.5q0 -104 48 -189t131 -133.5t181 -48.5t180.5 48.5z" />
    <glyph glyph-name="ntilde" unicode="&#xf1;" horiz-adv-x="1272" 
d="M330 1020v-197q29 66 85 117t131 80t160 29q203 0 308 -126t105 -370v-553h-172v550q0 172 -74 255t-211 83q-86 0 -160.5 -43t-119.5 -123.5t-45 -185.5v-536h-172v1020h165zM757 1153q-35 0 -67 11t-72 31q-31 15 -49 22t-35 7q-25 0 -46 -14.5t-39 -50.5l-63 51
q25 59 63 90.5t88 31.5q16 0 34 -3q25 -4 46.5 -12.5t52.5 -22.5q32 -15 51 -22t38 -7q68 0 116 97l65 -51q-69 -158 -183 -158z" />
    <glyph glyph-name="ograve" unicode="&#xf2;" horiz-adv-x="1220" 
d="M339.5 43q-121.5 72 -191 195.5t-69.5 271.5q0 147 69.5 271t190.5 196t270 72t271 -72t191.5 -195.5t69.5 -271.5t-69.5 -271.5t-191 -195.5t-271.5 -72q-148 0 -269.5 72zM793 182q82 49 129 135t47 193q0 106 -47 192t-129 135.5t-182 49.5t-182.5 -49.5t-130 -135.5
t-47.5 -192q0 -107 47.5 -193t130 -135t182.5 -49t182 49zM360 1378l130 45l154 -283h-119z" />
    <glyph glyph-name="oacute" unicode="&#xf3;" horiz-adv-x="1220" 
d="M339.5 43q-121.5 72 -191 195.5t-69.5 271.5q0 147 69.5 271t190.5 196t270 72t271 -72t191.5 -195.5t69.5 -271.5t-69.5 -271.5t-191 -195.5t-271.5 -72q-148 0 -269.5 72zM793 182q82 49 129 135t47 193q0 106 -47 192t-129 135.5t-182 49.5t-182.5 -49.5t-130 -135.5
t-47.5 -192q0 -107 47.5 -193t130 -135t182.5 -49t182 49zM718 1423l131 -45l-165 -238h-120z" />
    <glyph glyph-name="ocircumflex" unicode="&#xf4;" horiz-adv-x="1220" 
d="M339.5 43q-121.5 72 -191 195.5t-69.5 271.5q0 147 69.5 271t190.5 196t270 72t271 -72t191.5 -195.5t69.5 -271.5t-69.5 -271.5t-191 -195.5t-271.5 -72q-148 0 -269.5 72zM793 182q82 49 129 135t47 193q0 106 -47 192t-129 135.5t-182 49.5t-182.5 -49.5t-130 -135.5
t-47.5 -192q0 -107 47.5 -193t130 -135t182.5 -49t182 49zM314 1138l235 246h114l237 -246l-144 -1l-150 151l-148 -151z" />
    <glyph glyph-name="otilde" unicode="&#xf5;" horiz-adv-x="1220" 
d="M339.5 43q-121.5 72 -191 195.5t-69.5 271.5q0 147 69.5 271t190.5 196t270 72t271 -72t191.5 -195.5t69.5 -271.5t-69.5 -271.5t-191 -195.5t-271.5 -72q-148 0 -269.5 72zM793 182q82 49 129 135t47 193q0 106 -47 192t-129 135.5t-182 49.5t-182.5 -49.5t-130 -135.5
t-47.5 -192q0 -107 47.5 -193t130 -135t182.5 -49t182 49zM702 1144q-35 0 -67 11t-72 31q-31 15 -49 22t-35 7q-25 0 -46 -14.5t-39 -50.5l-63 51q25 59 63 90.5t88 31.5q16 0 34 -3q25 -4 46.5 -12.5t52.5 -22.5q32 -15 51 -22t38 -7q68 0 116 97l65 -51
q-69 -158 -183 -158z" />
    <glyph glyph-name="odieresis" unicode="&#xf6;" horiz-adv-x="1220" 
d="M339.5 43q-121.5 72 -191 195.5t-69.5 271.5q0 147 69.5 271t190.5 196t270 72t271 -72t191.5 -195.5t69.5 -271.5t-69.5 -271.5t-191 -195.5t-271.5 -72q-148 0 -269.5 72zM793 182q82 49 129 135t47 193q0 106 -47 192t-129 135.5t-182 49.5t-182.5 -49.5t-130 -135.5
t-47.5 -192q0 -107 47.5 -193t130 -135t182.5 -49t182 49zM366.5 1202q-26.5 24 -26.5 59q0 36 26.5 60t67.5 24q42 0 68.5 -24t26.5 -60q0 -35 -26.5 -59t-68.5 -24q-41 0 -67.5 24zM704 1202q-26 24 -26 59q0 36 26 60t67 24q42 0 68.5 -24t26.5 -60q0 -35 -26.5 -59
t-68.5 -24q-41 0 -67 24z" />
    <glyph glyph-name="divide" unicode="&#xf7;" horiz-adv-x="1157" 
d="M508.5 848q-28.5 27 -28.5 66t27.5 66.5t70.5 27.5t70.5 -27.5t27.5 -66.5q0 -40 -27 -66.5t-71 -26.5q-41 0 -69.5 27zM118 608l921 1v-142h-921v141zM507.5 91q-27.5 27 -27.5 66t27.5 66.5t70.5 27.5t70.5 -27.5t27.5 -66.5t-27.5 -66t-70.5 -27t-70.5 27z" />
    <glyph glyph-name="oslash" unicode="&#xf8;" horiz-adv-x="1220" 
d="M1099 724.5q42 -100.5 42 -214.5q0 -148 -69.5 -271.5t-191 -195.5t-271.5 -72q-135 0 -247 60l-70 -98l-122 75l75 106q-79 75 -122.5 177t-43.5 219q0 147 69.5 271t190.5 196t270 72q140 0 257 -64l62 86l122 -75l-69 -97q76 -74 118 -174.5zM275.5 368.5
q24.5 -66.5 68.5 -116.5l426 598q-72 37 -159 37q-100 0 -182.5 -49.5t-130 -135.5t-47.5 -192q0 -75 24.5 -141.5zM793 182q82 49 129 135t47 193q0 73 -22.5 137t-64.5 114l-424 -595q72 -33 153 -33q100 0 182 49z" />
    <glyph glyph-name="ugrave" unicode="&#xf9;" horiz-adv-x="1203" 
d="M358.5 24.5q-104.5 53.5 -163 166t-58.5 284.5v545h171v-540q0 -170 76 -258.5t217 -88.5q142 0 217.5 88t75.5 259v540h172v-545q0 -171 -59 -284t-163 -166.5t-241 -53.5q-140 0 -244.5 53.5zM356 1387l130 45l154 -283h-119z" />
    <glyph glyph-name="uacute" unicode="&#xfa;" horiz-adv-x="1203" 
d="M358.5 24.5q-104.5 53.5 -163 166t-58.5 284.5v545h171v-540q0 -170 76 -258.5t217 -88.5q142 0 217.5 88t75.5 259v540h172v-545q0 -171 -59 -284t-163 -166.5t-241 -53.5q-140 0 -244.5 53.5zM714 1432l131 -45l-165 -238h-120z" />
    <glyph glyph-name="ucircumflex" unicode="&#xfb;" horiz-adv-x="1203" 
d="M358.5 24.5q-104.5 53.5 -163 166t-58.5 284.5v545h171v-540q0 -170 76 -258.5t217 -88.5q142 0 217.5 88t75.5 259v540h172v-545q0 -171 -59 -284t-163 -166.5t-241 -53.5q-140 0 -244.5 53.5zM310 1147l235 246h114l237 -246l-144 -1l-150 151l-148 -151z" />
    <glyph glyph-name="udieresis" unicode="&#xfc;" horiz-adv-x="1203" 
d="M358.5 24.5q-104.5 53.5 -163 166t-58.5 284.5v545h171v-540q0 -170 76 -258.5t217 -88.5q142 0 217.5 88t75.5 259v540h172v-545q0 -171 -59 -284t-163 -166.5t-241 -53.5q-140 0 -244.5 53.5zM362.5 1211q-26.5 24 -26.5 59q0 36 26.5 60t67.5 24q42 0 68.5 -24
t26.5 -60q0 -35 -26.5 -59t-68.5 -24q-41 0 -67.5 24zM700 1211q-26 24 -26 59q0 36 26 60t67 24q42 0 68.5 -24t26.5 -60q0 -35 -26.5 -59t-68.5 -24q-41 0 -67 24z" />
    <glyph glyph-name="yacute" unicode="&#xfd;" horiz-adv-x="1048" 
d="M220 -203q60 0 98 21.5t64 63.5t55 119l11 29l-405 990h183l289 -721l24 -90l26 89l287 721l183 1l-402 -992q-61 -151 -112.5 -229.5t-121 -112.5t-180.5 -34h-168v145h169zM623 1432l131 -45l-165 -238h-120z" />
    <glyph glyph-name="thorn" unicode="&#xfe;" horiz-adv-x="1306" 
d="M337 1410v-491l-3 -114q58 109 160.5 176t228.5 67q141 0 256 -72t181 -195.5t66 -270.5q0 -148 -66 -271.5t-180.5 -195.5t-254.5 -72q-125 0 -229.5 64.5t-158.5 173.5v-557h-172v1758h172zM875.5 179q82.5 48 131 134.5t48.5 196.5q0 108 -48 194t-130.5 135
t-181.5 49q-98 0 -180.5 -50.5t-130.5 -137t-48 -190.5q0 -106 48.5 -193t131 -136.5t179.5 -49.5q98 0 180.5 48z" />
    <glyph glyph-name="ydieresis" unicode="&#xff;" horiz-adv-x="1048" 
d="M220 -203q60 0 98 21.5t64 63.5t55 119l11 29l-405 990h183l289 -721l24 -90l26 89l287 721l183 1l-402 -992q-61 -151 -112.5 -229.5t-121 -112.5t-180.5 -34h-168v145h169zM272.5 1211q-26.5 24 -26.5 59q0 36 26.5 60t67.5 24q42 0 68.5 -24t26.5 -60q0 -35 -26.5 -59
t-68.5 -24q-41 0 -67.5 24zM610 1211q-26 24 -26 59q0 36 26 60t67 24q42 0 68.5 -24t26.5 -60q0 -35 -26.5 -59t-68.5 -24q-41 0 -67 24z" />
    <glyph glyph-name="Amacron" unicode="&#x100;" horiz-adv-x="1347" 
d="M1146 0l-129 308h-687l-129 -308h-188l576 1360h170l575 -1360h-188zM393 458h561l-274 653l-5 23h-2l-6 -23zM433 1626h481v-106h-481v106z" />
    <glyph glyph-name="amacron" unicode="&#x101;" horiz-adv-x="1306" 
d="M322 43q-113 72 -178 195.5t-65 271.5q0 147 65 270.5t178 195.5t249 72q137 0 245 -66t160 -181v219h165v-1020h-165v217q-52 -114 -160 -180t-244 -66q-137 0 -250 72zM791.5 182q82.5 50 130.5 136.5t48 191.5q0 104 -48.5 190.5t-130.5 136.5t-180 50
q-99 0 -181.5 -48.5t-131 -134.5t-48.5 -194q0 -110 48.5 -196t131 -134t180.5 -48q99 0 181.5 50zM399 1309h557v-107h-557v107z" />
    <glyph glyph-name="Abreve" unicode="&#x102;" horiz-adv-x="1347" 
d="M1146 0l-129 308h-687l-129 -308h-188l576 1360h170l575 -1360h-188zM393 458h561l-274 653l-5 23h-2l-6 -23zM394 1708h136q9 -45 24 -73t43 -43t76 -15t76 15t43 43t25 73h135q-30 -237 -279 -237q-243 0 -279 237z" />
    <glyph glyph-name="abreve" unicode="&#x103;" horiz-adv-x="1306" 
d="M322 43q-113 72 -178 195.5t-65 271.5q0 147 65 270.5t178 195.5t249 72q137 0 245 -66t160 -181v219h165v-1020h-165v217q-52 -114 -160 -180t-244 -66q-137 0 -250 72zM791.5 182q82.5 50 130.5 136.5t48 191.5q0 104 -48.5 190.5t-130.5 136.5t-180 50
q-99 0 -181.5 -48.5t-131 -134.5t-48.5 -194q0 -110 48.5 -196t131 -134t180.5 -48q99 0 181.5 50zM395 1391h136q9 -45 24 -73t43 -43t76 -15t76 15t43 43t25 73h135q-30 -237 -279 -237q-243 0 -279 237z" />
    <glyph glyph-name="Aogonek" unicode="&#x104;" horiz-adv-x="1347" 
d="M1304 -279l27 -84q-40 -27 -88 -44t-99 -17q-85 0 -129 40.5t-44 103.5q0 80 55 145.5t149 134.5h-29l-129 308h-687l-129 -308h-188l576 1360h170l575 -1360l-22 -17q-58 -43 -96.5 -76.5t-66.5 -73.5t-28 -81q0 -28 19.5 -44t53.5 -16q48 0 110 29zM393 458h561
l-274 653l-5 23h-2l-6 -23z" />
    <glyph glyph-name="aogonek" unicode="&#x105;" horiz-adv-x="1306" 
d="M1119 -17q-58 -43 -96.5 -76.5t-66.5 -73.5t-28 -81q0 -28 19.5 -44t53.5 -16q48 0 110 29l27 -84q-40 -27 -88 -44t-99 -17q-85 0 -129 40.5t-44 103.5q0 87 66 156.5t167 123.5h-35v217q-52 -114 -160 -180t-244 -66q-137 0 -250 72t-178 195.5t-65 271.5
q0 147 65 270.5t178 195.5t249 72q137 0 245 -66t160 -181v219h165v-1020zM791.5 182q82.5 50 130.5 136.5t48 191.5q0 104 -48.5 190.5t-130.5 136.5t-180 50q-99 0 -181.5 -48.5t-131 -134.5t-48.5 -194q0 -110 48.5 -196t131 -134t180.5 -48q99 0 181.5 50z" />
    <glyph glyph-name="Cacute" unicode="&#x106;" horiz-adv-x="1509" 
d="M431.5 67.5q-162.5 94.5 -256.5 257t-94 356.5q0 195 94 357.5t256.5 257t358.5 94.5q148 0 281 -56t228 -167t128 -269h-180q-45 161 -168.5 245t-293.5 84q-147 0 -267.5 -70t-190 -195t-69.5 -281q0 -157 69.5 -281t190 -193.5t267.5 -69.5q169 0 292.5 84t168.5 244
h181q-33 -159 -127.5 -270t-227.5 -166.5t-282 -55.5q-196 0 -358.5 94.5zM924 1751l131 -45l-177 -238h-128z" />
    <glyph glyph-name="cacute" unicode="&#x107;" horiz-adv-x="1153" 
d="M336 43.5q-119 72.5 -188 196t-69 270.5t69 270.5t188 196t264 72.5q119 0 219 -46.5t169.5 -128.5t100.5 -188h-177q-39 97 -122 149t-189 52q-90 0 -170.5 -46.5t-130 -132.5t-49.5 -198q0 -113 49.5 -199t130 -132.5t170.5 -46.5q106 0 189 54t122 156h176
q-29 -110 -98.5 -194t-170 -130.5t-219.5 -46.5q-145 0 -264 72.5zM720 1432l131 -45l-165 -238h-120z" />
    <glyph glyph-name="Ccircumflex" unicode="&#x108;" horiz-adv-x="1509" 
d="M431.5 67.5q-162.5 94.5 -256.5 257t-94 356.5q0 195 94 357.5t256.5 257t358.5 94.5q148 0 281 -56t228 -167t128 -269h-180q-45 161 -168.5 245t-293.5 84q-147 0 -267.5 -70t-190 -195t-69.5 -281q0 -157 69.5 -281t190 -193.5t267.5 -69.5q169 0 292.5 84t168.5 244
h181q-33 -159 -127.5 -270t-227.5 -166.5t-282 -55.5q-196 0 -358.5 94.5zM508 1494l235 246h114l237 -246l-144 -1l-150 151l-148 -151z" />
    <glyph glyph-name="ccircumflex" unicode="&#x109;" horiz-adv-x="1153" 
d="M336 43.5q-119 72.5 -188 196t-69 270.5t69 270.5t188 196t264 72.5q119 0 219 -46.5t169.5 -128.5t100.5 -188h-177q-39 97 -122 149t-189 52q-90 0 -170.5 -46.5t-130 -132.5t-49.5 -198q0 -113 49.5 -199t130 -132.5t170.5 -46.5q106 0 189 54t122 156h176
q-29 -110 -98.5 -194t-170 -130.5t-219.5 -46.5q-145 0 -264 72.5zM316 1147l235 246h114l237 -246l-144 -1l-150 151l-148 -151z" />
    <glyph glyph-name="Cdotaccent" unicode="&#x10a;" horiz-adv-x="1509" 
d="M431.5 67.5q-162.5 94.5 -256.5 257t-94 356.5q0 195 94 357.5t256.5 257t358.5 94.5q148 0 281 -56t228 -167t128 -269h-180q-45 161 -168.5 245t-293.5 84q-147 0 -267.5 -70t-190 -195t-69.5 -281q0 -157 69.5 -281t190 -193.5t267.5 -69.5q169 0 292.5 84t168.5 244
h181q-33 -159 -127.5 -270t-227.5 -166.5t-282 -55.5q-196 0 -358.5 94.5zM736.5 1556q-26.5 24 -26.5 59q0 36 26.5 60.5t67.5 24.5q42 0 68.5 -24t26.5 -61q0 -34 -27 -58.5t-68 -24.5t-67.5 24z" />
    <glyph glyph-name="cdotaccent" unicode="&#x10b;" horiz-adv-x="1153" 
d="M336 43.5q-119 72.5 -188 196t-69 270.5t69 270.5t188 196t264 72.5q119 0 219 -46.5t169.5 -128.5t100.5 -188h-177q-39 97 -122 149t-189 52q-90 0 -170.5 -46.5t-130 -132.5t-49.5 -198q0 -113 49.5 -199t130 -132.5t170.5 -46.5q106 0 189 54t122 156h176
q-29 -110 -98.5 -194t-170 -130.5t-219.5 -46.5q-145 0 -264 72.5zM544.5 1209q-26.5 24 -26.5 59q0 36 26.5 60.5t67.5 24.5q42 0 68.5 -24t26.5 -61q0 -34 -27 -58.5t-68 -24.5t-67.5 24z" />
    <glyph glyph-name="Ccaron" unicode="&#x10c;" horiz-adv-x="1509" 
d="M431.5 67.5q-162.5 94.5 -256.5 257t-94 356.5q0 195 94 357.5t256.5 257t358.5 94.5q148 0 281 -56t228 -167t128 -269h-180q-45 161 -168.5 245t-293.5 84q-147 0 -267.5 -70t-190 -195t-69.5 -281q0 -157 69.5 -281t190 -193.5t267.5 -69.5q169 0 292.5 84t168.5 244
h181q-33 -159 -127.5 -270t-227.5 -166.5t-282 -55.5q-196 0 -358.5 94.5zM655 1710l148 -151l150 151h144l-237 -246h-114l-236 246h145z" />
    <glyph glyph-name="ccaron" unicode="&#x10d;" horiz-adv-x="1153" 
d="M336 43.5q-119 72.5 -188 196t-69 270.5t69 270.5t188 196t264 72.5q119 0 219 -46.5t169.5 -128.5t100.5 -188h-177q-39 97 -122 149t-189 52q-90 0 -170.5 -46.5t-130 -132.5t-49.5 -198q0 -113 49.5 -199t130 -132.5t170.5 -46.5q106 0 189 54t122 156h176
q-29 -110 -98.5 -194t-170 -130.5t-219.5 -46.5q-145 0 -264 72.5zM460 1398l148 -151l150 151h144l-237 -246h-114l-235 246h144z" />
    <glyph glyph-name="Dcaron" unicode="&#x10e;" horiz-adv-x="1481" 
d="M682 1360q213 0 375.5 -85t252 -239t89.5 -355q0 -202 -89 -356.5t-251 -239.5t-374 -85h-500v1360h497zM967.5 223.5q121.5 63.5 187 180t65.5 273.5t-65.5 276t-188 184t-289.5 65h-318v-1042h322q165 0 286.5 63.5zM525 1703l148 -151l150 151h144l-237 -246h-114
l-236 246h145z" />
    <glyph glyph-name="dcaron" unicode="&#x10f;" horiz-adv-x="1444" 
d="M325 43q-115 72 -180.5 195.5t-65.5 271.5t65 271.5t180 195.5t258 72q91 0 169 -34t134 -89.5t87 -120.5l-4 99v504h172v-1408h-165v217q-33 -70 -91 -126t-135.5 -88t-167.5 -32q-141 0 -256 72zM790.5 181q82.5 50 131 137t48.5 192q0 104 -48 191t-131 137t-182 50
t-181.5 -49.5t-130 -136t-47.5 -192.5t47 -192.5t129 -136.5t183 -50q99 0 181.5 50zM1293 1408h127l-17 -374h-96z" />
    <glyph glyph-name="Dcroat" unicode="&#x110;" horiz-adv-x="1481" 
d="M1057.5 1275q162.5 -85 252 -239t89.5 -355q0 -202 -89 -356.5t-251 -239.5t-374 -85h-500v671h-134v133h134v556h497q213 0 375.5 -85zM967.5 223.5q121.5 63.5 187 180t65.5 273.5t-65.5 276t-188 184t-289.5 65h-318v-398h339v-133h-339v-511h322q165 0 286.5 63.5z
" />
    <glyph glyph-name="dcroat" unicode="&#x111;" horiz-adv-x="1333" 
d="M1331 1162h-191v-1162h-165v217q-33 -70 -91 -126t-135.5 -88t-167.5 -32q-141 0 -256 72t-180.5 195.5t-65.5 271.5t65 271.5t180 195.5t258 72q91 0 169 -34t134 -89.5t87 -120.5l-4 99v258h-284v120h284v126h172v-126h191v-120zM790.5 181q82.5 50 131 137t48.5 192
q0 104 -48 191t-131 137t-182 50t-181.5 -49.5t-130 -136t-47.5 -192.5t47 -192.5t129 -136.5t183 -50q99 0 181.5 50z" />
    <glyph glyph-name="Emacron" unicode="&#x112;" horiz-adv-x="1170" 
d="M185 1360h904v-161h-727v-431h632v-152h-632v-456h736v-160h-913v1360zM406 1626h481v-106h-481v106z" />
    <glyph glyph-name="emacron" unicode="&#x113;" horiz-adv-x="1165" 
d="M1099 465h-846q10 -100 59 -175.5t123.5 -116.5t158.5 -41q103 0 176 44.5t107 130.5h193q-29 -94 -97 -170.5t-165 -120.5t-210 -44q-145 0 -264 72t-187 195t-68 271q0 147 68.5 271t187 196t263.5 72q143 0 258.5 -70.5t180.5 -188.5t65 -255q0 -14 -3 -70zM926 617
q-5 72 -51 134t-120.5 99t-159.5 37q-78 0 -147 -31.5t-118.5 -92.5t-68.5 -146h665zM313 1309h557v-107h-557v107z" />
    <glyph glyph-name="Ebreve" unicode="&#x114;" horiz-adv-x="1170" 
d="M185 1360h904v-161h-727v-431h632v-152h-632v-456h736v-160h-913v1360zM367 1708h136q9 -45 24 -73t43 -43t76 -15t76 15t43 43t25 73h135q-30 -237 -279 -237q-243 0 -279 237z" />
    <glyph glyph-name="ebreve" unicode="&#x115;" horiz-adv-x="1165" 
d="M1099 465h-846q10 -100 59 -175.5t123.5 -116.5t158.5 -41q103 0 176 44.5t107 130.5h193q-29 -94 -97 -170.5t-165 -120.5t-210 -44q-145 0 -264 72t-187 195t-68 271q0 147 68.5 271t187 196t263.5 72q143 0 258.5 -70.5t180.5 -188.5t65 -255q0 -14 -3 -70zM926 617
q-5 72 -51 134t-120.5 99t-159.5 37q-78 0 -147 -31.5t-118.5 -92.5t-68.5 -146h665zM310 1391h136q9 -45 24 -73t43 -43t76 -15t76 15t43 43t25 73h135q-30 -237 -279 -237q-243 0 -279 237z" />
    <glyph glyph-name="Edotaccent" unicode="&#x116;" horiz-adv-x="1170" 
d="M185 1360h904v-161h-727v-431h632v-152h-632v-456h736v-160h-913v1360zM579.5 1521q-26.5 24 -26.5 59q0 36 26.5 60.5t67.5 24.5q42 0 68.5 -24t26.5 -61q0 -34 -27 -58.5t-68 -24.5t-67.5 24z" />
    <glyph glyph-name="edotaccent" unicode="&#x117;" horiz-adv-x="1165" 
d="M1099 465h-846q10 -100 59 -175.5t123.5 -116.5t158.5 -41q103 0 176 44.5t107 130.5h193q-29 -94 -97 -170.5t-165 -120.5t-210 -44q-145 0 -264 72t-187 195t-68 271q0 147 68.5 271t187 196t263.5 72q143 0 258.5 -70.5t180.5 -188.5t65 -255q0 -14 -3 -70zM926 617
q-5 72 -51 134t-120.5 99t-159.5 37q-78 0 -147 -31.5t-118.5 -92.5t-68.5 -146h665zM521.5 1209q-26.5 24 -26.5 59q0 36 26.5 60.5t67.5 24.5q42 0 68.5 -24t26.5 -61q0 -34 -27 -58.5t-68 -24.5t-67.5 24z" />
    <glyph glyph-name="Eogonek" unicode="&#x118;" horiz-adv-x="1170" 
d="M1076 -17q-58 -43 -96.5 -76.5t-66.5 -73.5t-28 -81q0 -28 19.5 -44t53.5 -16q48 0 110 29l27 -84q-40 -27 -88 -44t-99 -17q-85 0 -129 40.5t-44 103.5q0 80 55 145.5t149 134.5h-754v1360h904v-161h-727v-431h632v-152h-632v-456h736v-160z" />
    <glyph glyph-name="eogonek" unicode="&#x119;" horiz-adv-x="1165" 
d="M1099 465h-846q10 -100 59 -175.5t123.5 -116.5t158.5 -41q103 0 176 44.5t107 130.5h193q-26 -84 -83 -154t-137 -115q-70 -55 -112 -104.5t-42 -99.5q0 -28 19.5 -44t53.5 -16q48 0 110 29l27 -84q-40 -27 -88 -44t-99 -17q-85 0 -129 40.5t-44 103.5q0 89 80 171
q-9 -1 -28 -1q-145 0 -264 72t-187 195t-68 271q0 147 68.5 271t187 196t263.5 72q143 0 258.5 -70.5t180.5 -188.5t65 -255q0 -14 -3 -70zM926 617q-5 72 -51 134t-120.5 99t-159.5 37q-78 0 -147 -31.5t-118.5 -92.5t-68.5 -146h665z" />
    <glyph glyph-name="Ecaron" unicode="&#x11a;" horiz-adv-x="1170" 
d="M185 1360h904v-161h-727v-431h632v-152h-632v-456h736v-160h-913v1360zM498 1703l148 -151l150 151h144l-237 -246h-114l-236 246h145z" />
    <glyph glyph-name="ecaron" unicode="&#x11b;" horiz-adv-x="1165" 
d="M1099 465h-846q10 -100 59 -175.5t123.5 -116.5t158.5 -41q103 0 176 44.5t107 130.5h193q-29 -94 -97 -170.5t-165 -120.5t-210 -44q-145 0 -264 72t-187 195t-68 271q0 147 68.5 271t187 196t263.5 72q143 0 258.5 -70.5t180.5 -188.5t65 -255q0 -14 -3 -70zM926 617
q-5 72 -51 134t-120.5 99t-159.5 37q-78 0 -147 -31.5t-118.5 -92.5t-68.5 -146h665zM437 1398l148 -151l150 151h144l-237 -246h-114l-235 246h144z" />
    <glyph glyph-name="Gcircumflex" unicode="&#x11c;" horiz-adv-x="1571" 
d="M436.5 68.5q-163.5 94.5 -259 257t-95.5 355.5q0 195 95.5 357.5t259 257t359.5 94.5q146 0 282 -55t234 -159t133 -245h-180q-57 139 -182.5 217.5t-290.5 78.5q-147 0 -269 -70.5t-193 -195t-71 -280.5q0 -157 71 -281t193 -193.5t269 -69.5q149 0 258 55t172.5 149.5
t82.5 214.5h-519v160h703q1 -208 -81.5 -377t-239.5 -267t-372 -98q-196 0 -359.5 94.5zM500 1487l235 246h114l237 -246l-144 -1l-150 151l-148 -151z" />
    <glyph glyph-name="gcircumflex" unicode="&#x11d;" horiz-adv-x="1306" 
d="M341 -330.5q-108 53.5 -160.5 139t-58.5 185.5h163q17 -103 94.5 -167t232.5 -64q126 0 207.5 51t119 134t37.5 184v126q-53 -114 -158.5 -176.5t-237.5 -62.5q-141 0 -255.5 68.5t-180 185.5t-65.5 256q0 138 65 257.5t178.5 190.5t252.5 71q94 0 174 -33t138 -89
t89 -125v219h165v-883q0 -146 -59 -264t-178.5 -187.5t-291.5 -69.5q-163 0 -271 53.5zM790.5 219.5q82.5 48.5 131 130.5t48.5 179q0 96 -48 178t-130.5 131t-180.5 49q-99 0 -182 -47t-131 -128.5t-48 -182.5q0 -100 48 -182t130.5 -129t181.5 -47q98 0 180.5 48.5z
M284 1146l235 246h114l237 -246l-144 -1l-150 151l-148 -151z" />
    <glyph glyph-name="Gbreve" unicode="&#x11e;" horiz-adv-x="1571" 
d="M436.5 68.5q-163.5 94.5 -259 257t-95.5 355.5q0 195 95.5 357.5t259 257t359.5 94.5q146 0 282 -55t234 -159t133 -245h-180q-57 139 -182.5 217.5t-290.5 78.5q-147 0 -269 -70.5t-193 -195t-71 -280.5q0 -157 71 -281t193 -193.5t269 -69.5q149 0 258 55t172.5 149.5
t82.5 214.5h-519v160h703q1 -208 -81.5 -377t-239.5 -267t-372 -98q-196 0 -359.5 94.5zM516 1731h136q9 -45 24 -73t43 -43t76 -15t76 15t43 43t25 73h135q-30 -237 -279 -237q-243 0 -279 237z" />
    <glyph glyph-name="gbreve" unicode="&#x11f;" horiz-adv-x="1306" 
d="M341 -330.5q-108 53.5 -160.5 139t-58.5 185.5h163q17 -103 94.5 -167t232.5 -64q126 0 207.5 51t119 134t37.5 184v126q-53 -114 -158.5 -176.5t-237.5 -62.5q-141 0 -255.5 68.5t-180 185.5t-65.5 256q0 138 65 257.5t178.5 190.5t252.5 71q94 0 174 -33t138 -89
t89 -125v219h165v-883q0 -146 -59 -264t-178.5 -187.5t-291.5 -69.5q-163 0 -271 53.5zM790.5 219.5q82.5 48.5 131 130.5t48.5 179q0 96 -48 178t-130.5 131t-180.5 49q-99 0 -182 -47t-131 -128.5t-48 -182.5q0 -100 48 -182t130.5 -129t181.5 -47q98 0 180.5 48.5z
M300 1390h136q9 -45 24 -73t43 -43t76 -15t76 15t43 43t25 73h135q-30 -237 -279 -237q-243 0 -279 237z" />
    <glyph glyph-name="Gdotaccent" unicode="&#x120;" horiz-adv-x="1571" 
d="M436.5 68.5q-163.5 94.5 -259 257t-95.5 355.5q0 195 95.5 357.5t259 257t359.5 94.5q146 0 282 -55t234 -159t133 -245h-180q-57 139 -182.5 217.5t-290.5 78.5q-147 0 -269 -70.5t-193 -195t-71 -280.5q0 -157 71 -281t193 -193.5t269 -69.5q149 0 258 55t172.5 149.5
t82.5 214.5h-519v160h703q1 -208 -81.5 -377t-239.5 -267t-372 -98q-196 0 -359.5 94.5zM727.5 1549q-26.5 24 -26.5 59q0 36 26.5 60.5t67.5 24.5q42 0 68.5 -24t26.5 -61q0 -34 -27 -58.5t-68 -24.5t-67.5 24z" />
    <glyph glyph-name="gdotaccent" unicode="&#x121;" horiz-adv-x="1306" 
d="M341 -330.5q-108 53.5 -160.5 139t-58.5 185.5h163q17 -103 94.5 -167t232.5 -64q126 0 207.5 51t119 134t37.5 184v126q-53 -114 -158.5 -176.5t-237.5 -62.5q-141 0 -255.5 68.5t-180 185.5t-65.5 256q0 138 65 257.5t178.5 190.5t252.5 71q94 0 174 -33t138 -89
t89 -125v219h165v-883q0 -146 -59 -264t-178.5 -187.5t-291.5 -69.5q-163 0 -271 53.5zM790.5 219.5q82.5 48.5 131 130.5t48.5 179q0 96 -48 178t-130.5 131t-180.5 49q-99 0 -182 -47t-131 -128.5t-48 -182.5q0 -100 48 -182t130.5 -129t181.5 -47q98 0 180.5 48.5z
M511.5 1208q-26.5 24 -26.5 59q0 36 26.5 60.5t67.5 24.5q42 0 68.5 -24t26.5 -61q0 -34 -27 -58.5t-68 -24.5t-67.5 24z" />
    <glyph glyph-name="uni0122" unicode="&#x122;" horiz-adv-x="1571" 
d="M436.5 68.5q-163.5 94.5 -259 257t-95.5 355.5q0 195 95.5 357.5t259 257t359.5 94.5q146 0 282 -55t234 -159t133 -245h-180q-57 139 -182.5 217.5t-290.5 78.5q-147 0 -269 -70.5t-193 -195t-71 -280.5q0 -157 71 -281t193 -193.5t269 -69.5q149 0 258 55t172.5 149.5
t82.5 214.5h-519v160h703q1 -208 -81.5 -377t-239.5 -267t-372 -98q-196 0 -359.5 94.5zM665 -401l75 266l157 -18l-107 -254z" />
    <glyph glyph-name="uni0123" unicode="&#x123;" horiz-adv-x="1306" 
d="M341 -330.5q-108 53.5 -160.5 139t-58.5 185.5h163q17 -103 94.5 -167t232.5 -64q126 0 207.5 51t119 134t37.5 184v126q-53 -114 -158.5 -176.5t-237.5 -62.5q-141 0 -255.5 68.5t-180 185.5t-65.5 256q0 138 65 257.5t178.5 190.5t252.5 71q94 0 174 -33t138 -89
t89 -125v219h165v-883q0 -146 -59 -264t-178.5 -187.5t-291.5 -69.5q-163 0 -271 53.5zM790.5 219.5q82.5 48.5 131 130.5t48.5 179q0 96 -48 178t-130.5 131t-180.5 49q-99 0 -182 -47t-131 -128.5t-48 -182.5q0 -100 48 -182t130.5 -129t181.5 -47q98 0 180.5 48.5z
M452 1172l82 284h157l-114 -289z" />
    <glyph glyph-name="Hcircumflex" unicode="&#x124;" horiz-adv-x="1511" 
d="M185 1360h177v-599h786v599h178v-1360h-178v602h-786v-602h-177v1360zM458 1487l235 246h114l237 -246l-144 -1l-150 151l-148 -151z" />
    <glyph glyph-name="hcircumflex" unicode="&#x125;" horiz-adv-x="1272" 
d="M337 1408v-473l-3 -109q47 101 146 162t226 61q203 0 308 -126t105 -370v-553h-172v550q0 172 -74 255t-211 83q-85 0 -160 -45t-120 -125.5t-45 -181.5v-536h-172v1408h172zM-36 1456l235 246h114l237 -246h-144l-150 151l-148 -151h-144z" />
    <glyph glyph-name="Hbar" unicode="&#x126;" horiz-adv-x="1511" 
d="M1148 1360h178v-1360h-178v602h-786v-602h-177v1360h177v-135h786v135zM362 761h786v331h-786v-331z" />
    <glyph glyph-name="hbar" unicode="&#x127;" horiz-adv-x="1272" 
d="M1014 923q105 -126 105 -370v-553h-172v550q0 172 -74 255t-211 83q-85 0 -160 -45t-120 -125.5t-45 -181.5v-536h-172v1261h-142v120h142v27h172v-27h171v-120h-171v-326l-3 -109q47 101 146 162t226 61q203 0 308 -126z" />
    <glyph glyph-name="Itilde" unicode="&#x128;" horiz-adv-x="547" 
d="M185 1360h177v-1360h-177v1360zM366 1493q-35 0 -67 11t-72 31q-31 15 -49 22t-35 7q-25 0 -46 -14.5t-39 -50.5l-63 51q25 59 63 90.5t88 31.5q16 0 34 -3q25 -4 46.5 -12.5t52.5 -22.5q32 -15 51 -22t38 -7q68 0 116 97l65 -51q-69 -158 -183 -158z" />
    <glyph glyph-name="itilde" unicode="&#x129;" horiz-adv-x="502" 
d="M165 1020h172v-1020h-172v1020zM344 1153q-35 0 -67 11t-72 31q-31 15 -49 22t-35 7q-25 0 -46 -14.5t-39 -50.5l-63 51q25 59 63 90.5t88 31.5q16 0 34 -3q25 -4 46.5 -12.5t52.5 -22.5q32 -15 51 -22t38 -7q68 0 116 97l65 -51q-69 -158 -183 -158z" />
    <glyph glyph-name="Imacron" unicode="&#x12a;" horiz-adv-x="547" 
d="M185 1360h177v-1360h-177v1360zM32 1626h481v-106h-481v106z" />
    <glyph glyph-name="imacron" unicode="&#x12b;" horiz-adv-x="502" 
d="M165 1020h172v-1020h-172v1020zM-24 1309h557v-107h-557v107z" />
    <glyph glyph-name="Ibreve" unicode="&#x12c;" horiz-adv-x="547" 
d="M185 1360h177v-1360h-177v1360zM-6 1731h136q9 -45 24 -73t43 -43t76 -15t76 15t43 43t25 73h135q-30 -237 -279 -237q-243 0 -279 237z" />
    <glyph glyph-name="ibreve" unicode="&#x12d;" horiz-adv-x="502" 
d="M165 1020h172v-1020h-172v1020zM-28 1391h136q9 -45 24 -73t43 -43t76 -15t76 15t43 43t25 73h135q-30 -237 -279 -237q-243 0 -279 237z" />
    <glyph glyph-name="Iogonek" unicode="&#x12e;" horiz-adv-x="547" 
d="M340 -17q-58 -43 -96.5 -76.5t-66.5 -73.5t-28 -81q0 -28 19.5 -44t53.5 -16q48 0 110 29l27 -84q-40 -27 -88 -44t-99 -17q-85 0 -129 40.5t-44 103.5q0 80 55 145.5t149 134.5h-18v1360h177v-1360z" />
    <glyph glyph-name="iogonek" unicode="&#x12f;" horiz-adv-x="502" 
d="M336.5 1406.5q32.5 -31.5 32.5 -77.5q0 -47 -32.5 -78.5t-86.5 -31.5q-52 0 -84 31.5t-32 78.5q0 46 32 77.5t85 31.5t85.5 -31.5zM165 1020h172v-1020l-22 -17q-58 -43 -96.5 -76.5t-66.5 -73.5t-28 -81q0 -28 19.5 -44t53.5 -16q48 0 110 29l27 -84q-40 -27 -88 -44
t-99 -17q-85 0 -129 40.5t-44 103.5q0 87 66 156.5t167 123.5h-42v1020z" />
    <glyph glyph-name="Idotaccent" unicode="&#x130;" horiz-adv-x="547" 
d="M185 1360h177v-1360h-177v1360zM205.5 1549q-26.5 24 -26.5 59q0 36 26.5 60.5t67.5 24.5q42 0 68.5 -24t26.5 -61q0 -34 -27 -58.5t-68 -24.5t-67.5 24z" />
    <glyph glyph-name="dotlessi" unicode="&#x131;" horiz-adv-x="502" 
d="M165 1020h172v-1020h-172v1020z" />
    <glyph glyph-name="IJ" unicode="&#x132;" horiz-adv-x="1093" 
d="M185 1360h177v-948h-177v948zM455 160q90 0 159 38.5t106.5 110t37.5 166.5v885h176v-894q0 -142 -61 -247.5t-170 -162t-249 -56.5h-268v160h269z" />
    <glyph glyph-name="ij" unicode="&#x133;" horiz-adv-x="1015" 
d="M166 1250.5q-32 31.5 -32 78.5q0 46 32 77.5t85 31.5t85.5 -31.5t32.5 -77.5q0 -47 -32.5 -78.5t-86.5 -31.5q-52 0 -84 31.5zM165 1020h172v-1020h-172v1020zM680 1250.5q-32 31.5 -32 78.5q0 46 32 77.5t85 31.5t85.5 -31.5t32.5 -77.5q0 -47 -32.5 -78.5t-86.5 -31.5
q-52 0 -84 31.5zM503 -206q83 0 128.5 55t45.5 144v1027h173v-1016q0 -170 -83 -262t-246 -92h-123v144h105z" />
    <glyph glyph-name="Jcircumflex" unicode="&#x134;" horiz-adv-x="867" 
d="M230 160q90 0 159 38.5t106.5 110t37.5 166.5v885h175v-894q0 -142 -61 -247.5t-169.5 -162t-248.5 -56.5h-192v160h193zM324 1487l235 246h114l237 -246l-144 -1l-150 151l-148 -151z" />
    <glyph glyph-name="jcircumflex" unicode="&#x135;" horiz-adv-x="513" 
d="M1 -206q83 0 128.5 55t45.5 144v1027h173v-1016q0 -170 -83 -262t-246 -92h-123v144h105zM-34 1147l235 246h114l237 -246l-144 -1l-150 151l-148 -151z" />
    <glyph glyph-name="uni0136" unicode="&#x136;" horiz-adv-x="1324" 
d="M732 760l570 -760h-212l-474 630l-254 -312v-318h-177v1360h177v-806l655 806h209zM529 -382l75 266l157 -18l-107 -254z" />
    <glyph glyph-name="uni0137" unicode="&#x137;" horiz-adv-x="1054" 
d="M843 0l-315 498l-191 -211v-287h-172v1408h172v-931l438 543h211l-332 -409l384 -611h-195zM389 -380l82 284h157l-114 -289z" />
    <glyph glyph-name="kgreenlandic" unicode="&#x138;" horiz-adv-x="1054" 
d="M837 0l-309 498l-191 -211v-287h-172v1020h172v-544l442 544h207l-332 -409l384 -611h-201z" />
    <glyph glyph-name="Lacute" unicode="&#x139;" horiz-adv-x="1063" 
d="M185 1360h177v-1200h661v-160h-838v1360zM403 1744l131 -45l-177 -238h-128z" />
    <glyph glyph-name="lacute" unicode="&#x13a;" horiz-adv-x="502" 
d="M165 1410h172v-1410h-172v1410zM370 1772l131 -45l-177 -238h-128z" />
    <glyph glyph-name="uni013B" unicode="&#x13b;" horiz-adv-x="1063" 
d="M185 1360h177v-1200h661v-160h-838v1360zM386 -382l75 266l157 -18l-107 -254z" />
    <glyph glyph-name="uni013C" unicode="&#x13c;" horiz-adv-x="502" 
d="M165 1410h172v-1410h-172v1410zM105 -380l82 284h157l-114 -289z" />
    <glyph glyph-name="Lcaron" unicode="&#x13d;" horiz-adv-x="1079" 
d="M185 1360h177v-1200h661v-160h-838v1360zM822 1360h127l-17 -374h-96z" />
    <glyph glyph-name="lcaron" unicode="&#x13e;" horiz-adv-x="613" 
d="M165 1410h172v-1410h-172v1410zM468 1408h127l-17 -374h-96z" />
    <glyph glyph-name="Ldot" unicode="&#x13f;" horiz-adv-x="1084" 
d="M362 1360v-1200h661v-160h-838v1360h177zM719 631.5q-32 29.5 -32 72.5q0 42 32 71.5t81 29.5t81 -29.5t32 -71.5q0 -43 -31.5 -72.5t-81.5 -29.5q-49 0 -81 29.5z" />
    <glyph glyph-name="ldot" unicode="&#x140;" horiz-adv-x="629" 
d="M165 1410h172v-1410h-172v1410zM487 599q-32 31 -32 76q0 44 32 75.5t81 31.5t81 -31.5t32 -75.5q0 -45 -32 -76t-81 -31t-81 31z" />
    <glyph glyph-name="Lslash" unicode="&#x141;" horiz-adv-x="1103" 
d="M403 160h660v-160h-837v581l-177 -77v142l177 77v637h177v-560l179 78v-143l-179 -78v-497z" />
    <glyph glyph-name="lslash" unicode="&#x142;" horiz-adv-x="502" 
d="M515 913v-144l-178 -77v-692h-172v618l-183 -79v141l183 80v650h172v-575z" />
    <glyph glyph-name="Nacute" unicode="&#x143;" horiz-adv-x="1534" 
d="M1173 1360h176v-1360h-150l-837 1063v-1063h-177v1360h149l838 -1066h1v1066zM885 1744l131 -45l-177 -238h-128z" />
    <glyph glyph-name="nacute" unicode="&#x144;" horiz-adv-x="1272" 
d="M330 1020v-197q29 66 85 117t131 80t160 29q203 0 308 -126t105 -370v-553h-172v550q0 172 -74 255t-211 83q-86 0 -160.5 -43t-119.5 -123.5t-45 -185.5v-536h-172v1020h165zM772 1432l131 -45l-165 -238h-120z" />
    <glyph glyph-name="uni0145" unicode="&#x145;" horiz-adv-x="1534" 
d="M1173 1360h176v-1360h-150l-837 1063v-1063h-177v1360h149l838 -1066h1v1066zM628 -382l75 266l157 -18l-107 -254z" />
    <glyph glyph-name="uni0146" unicode="&#x146;" horiz-adv-x="1272" 
d="M330 1020v-197q29 66 85 117t131 80t160 29q203 0 308 -126t105 -370v-553h-172v550q0 172 -74 255t-211 83q-86 0 -160.5 -43t-119.5 -123.5t-45 -185.5v-536h-172v1020h165zM485 -380l82 284h157l-114 -289z" />
    <glyph glyph-name="Ncaron" unicode="&#x147;" horiz-adv-x="1534" 
d="M1173 1360h176v-1360h-150l-837 1063v-1063h-177v1360h149l838 -1066h1v1066zM616 1703l148 -151l150 151h144l-237 -246h-114l-236 246h145z" />
    <glyph glyph-name="ncaron" unicode="&#x148;" horiz-adv-x="1272" 
d="M330 1020v-197q29 66 85 117t131 80t160 29q203 0 308 -126t105 -370v-553h-172v550q0 172 -74 255t-211 83q-86 0 -160.5 -43t-119.5 -123.5t-45 -185.5v-536h-172v1020h165zM512 1398l148 -151l150 151h144l-237 -246h-114l-235 246h144z" />
    <glyph glyph-name="Eng" unicode="&#x14a;" horiz-adv-x="1534" 
d="M1349 1360v-1387q0 -106 -35.5 -183t-103.5 -118t-163 -41h-85v148h78q74 0 112.5 54t38.5 141v36l-829 1053v-1063h-177v1360h149l838 -1066h1v1066h176z" />
    <glyph glyph-name="eng" unicode="&#x14b;" horiz-adv-x="1272" 
d="M1122 163v-178q0 -168 -87.5 -261t-245.5 -93h-93v148h86q82 0 123.5 55.5t41.5 151.5v564q0 172 -74 255t-211 83q-86 0 -160.5 -43t-119.5 -123.5t-45 -185.5v-536h-172v1020h165v-197q29 66 85 117t131 80t160 29q203 0 308 -126t105 -370v-390h3z" />
    <glyph glyph-name="Omacron" unicode="&#x14c;" horiz-adv-x="1616" 
d="M443 68q-167 95 -264.5 257.5t-97.5 355.5q0 195 97.5 357.5t264 257t364.5 94.5t365 -94.5t265 -257t98 -357.5q0 -193 -98 -355.5t-265 -257.5t-365 -95q-197 0 -364 95zM1084 208.5q126 71.5 200 196t74 276.5t-74 277t-200 197t-277 72q-150 0 -276 -72t-199.5 -197
t-73.5 -277t73.5 -276.5t199.5 -196t276 -71.5q151 0 277 71.5zM560 1648h481v-106h-481v106z" />
    <glyph glyph-name="omacron" unicode="&#x14d;" horiz-adv-x="1220" 
d="M339.5 43q-121.5 72 -191 195.5t-69.5 271.5q0 147 69.5 271t190.5 196t270 72t271 -72t191.5 -195.5t69.5 -271.5t-69.5 -271.5t-191 -195.5t-271.5 -72q-148 0 -269.5 72zM793 182q82 49 129 135t47 193q0 106 -47 192t-129 135.5t-182 49.5t-182.5 -49.5t-130 -135.5
t-47.5 -192q0 -107 47.5 -193t130 -135t182.5 -49t182 49zM334 1300h557v-107h-557v107z" />
    <glyph glyph-name="Obreve" unicode="&#x14e;" horiz-adv-x="1616" 
d="M443 68q-167 95 -264.5 257.5t-97.5 355.5q0 195 97.5 357.5t264 257t364.5 94.5t365 -94.5t265 -257t98 -357.5q0 -193 -98 -355.5t-265 -257.5t-365 -95q-197 0 -364 95zM1084 208.5q126 71.5 200 196t74 276.5t-74 277t-200 197t-277 72q-150 0 -276 -72t-199.5 -197
t-73.5 -277t73.5 -276.5t199.5 -196t276 -71.5q151 0 277 71.5zM521 1753h136q9 -45 24 -73t43 -43t76 -15t76 15t43 43t25 73h135q-30 -237 -279 -237q-243 0 -279 237z" />
    <glyph glyph-name="obreve" unicode="&#x14f;" horiz-adv-x="1220" 
d="M339.5 43q-121.5 72 -191 195.5t-69.5 271.5q0 147 69.5 271t190.5 196t270 72t271 -72t191.5 -195.5t69.5 -271.5t-69.5 -271.5t-191 -195.5t-271.5 -72q-148 0 -269.5 72zM793 182q82 49 129 135t47 193q0 106 -47 192t-129 135.5t-182 49.5t-182.5 -49.5t-130 -135.5
t-47.5 -192q0 -107 47.5 -193t130 -135t182.5 -49t182 49zM330 1382h136q9 -45 24 -73t43 -43t76 -15t76 15t43 43t25 73h135q-30 -237 -279 -237q-243 0 -279 237z" />
    <glyph glyph-name="Ohungarumlaut" unicode="&#x150;" horiz-adv-x="1616" 
d="M443 68q-167 95 -264.5 257.5t-97.5 355.5q0 195 97.5 357.5t264 257t364.5 94.5t365 -94.5t265 -257t98 -357.5q0 -193 -98 -355.5t-265 -257.5t-365 -95q-197 0 -364 95zM1084 208.5q126 71.5 200 196t74 276.5t-74 277t-200 197t-277 72q-150 0 -276 -72t-199.5 -197
t-73.5 -277t73.5 -276.5t199.5 -196t276 -71.5q151 0 277 71.5zM570 1486l112 259l142 -4l-148 -260zM866 1486l113 259l141 -4l-148 -260z" />
    <glyph glyph-name="ohungarumlaut" unicode="&#x151;" horiz-adv-x="1220" 
d="M339.5 43q-121.5 72 -191 195.5t-69.5 271.5q0 147 69.5 271t190.5 196t270 72t271 -72t191.5 -195.5t69.5 -271.5t-69.5 -271.5t-191 -195.5t-271.5 -72q-148 0 -269.5 72zM793 182q82 49 129 135t47 193q0 106 -47 192t-129 135.5t-182 49.5t-182.5 -49.5t-130 -135.5
t-47.5 -192q0 -107 47.5 -193t130 -135t182.5 -49t182 49zM433 1143l112 259l142 -4l-148 -260zM729 1143l113 259l141 -4l-148 -260z" />
    <glyph glyph-name="OE" unicode="&#x152;" horiz-adv-x="1980" 
d="M1908 0h-899q-91 -27 -182 -27q-197 0 -364 95t-264.5 257.5t-97.5 355.5q0 195 97.5 357.5t264 257t364.5 94.5q104 0 197 -30h875v-161h-727v-431h632v-152h-632v-456h736v-160zM351.5 404.5q73.5 -124.5 199.5 -196t276 -71.5q90 0 168 32v1029q-84 29 -168 29
q-150 0 -276 -72t-199.5 -197t-73.5 -277t73.5 -276.5z" />
    <glyph glyph-name="oe" unicode="&#x153;" horiz-adv-x="2055" 
d="M1989 465h-846q10 -100 59 -175.5t123.5 -116.5t158.5 -41q103 0 176 44.5t107 130.5h193q-29 -94 -97 -170.5t-165 -120.5t-210 -44q-136 0 -249.5 64t-183.5 174q-72 -111 -188.5 -175t-257.5 -64q-148 0 -269.5 72t-191 195.5t-69.5 271.5q0 147 69.5 271t190.5 196
t270 72q140 0 257 -64.5t188 -174.5q71 110 184.5 174.5t249.5 64.5q143 0 258.5 -70.5t180.5 -188.5t65 -255q0 -14 -3 -70zM793 182q82 49 129 135t47 193q0 106 -47 192t-129 135.5t-182 49.5t-182.5 -49.5t-130 -135.5t-47.5 -192q0 -107 47.5 -193t130 -135t182.5 -49
t182 49zM1816 617q-5 72 -51 134t-120.5 99t-159.5 37q-78 0 -147 -31.5t-118.5 -92.5t-68.5 -146h665z" />
    <glyph glyph-name="Racute" unicode="&#x154;" horiz-adv-x="1306" 
d="M763 1360q131 0 233.5 -53.5t160 -150.5t57.5 -223q0 -98 -37 -179t-104 -136.5t-157 -79.5l328 -538h-204l-302 512q-15 -1 -44 -1h-332v-511h-177v1360h578zM901.5 696.5q63.5 34.5 99.5 95.5t36 140q0 76 -37 137.5t-101 96.5t-143 35h-394v-539h397q79 0 142.5 34.5z
M778 1744l131 -45l-177 -238h-128z" />
    <glyph glyph-name="racute" unicode="&#x155;" horiz-adv-x="776" 
d="M331 1020v-228q38 107 119 167.5t191 60.5h99v-151h-90q-90 0 -161 -46.5t-111 -134.5t-40 -208v-480h-173v1020h166zM536 1432l131 -45l-165 -238h-120z" />
    <glyph glyph-name="uni0156" unicode="&#x156;" horiz-adv-x="1306" 
d="M763 1360q131 0 233.5 -53.5t160 -150.5t57.5 -223q0 -98 -37 -179t-104 -136.5t-157 -79.5l328 -538h-204l-302 512q-15 -1 -44 -1h-332v-511h-177v1360h578zM901.5 696.5q63.5 34.5 99.5 95.5t36 140q0 76 -37 137.5t-101 96.5t-143 35h-394v-539h397q79 0 142.5 34.5z
M511 -382l75 266l157 -18l-107 -254z" />
    <glyph glyph-name="uni0157" unicode="&#x157;" horiz-adv-x="776" 
d="M331 1020v-228q38 107 119 167.5t191 60.5h99v-151h-90q-90 0 -161 -46.5t-111 -134.5t-40 -208v-480h-173v1020h166zM117 -380l82 284h157l-114 -289z" />
    <glyph glyph-name="Rcaron" unicode="&#x158;" horiz-adv-x="1306" 
d="M763 1360q131 0 233.5 -53.5t160 -150.5t57.5 -223q0 -98 -37 -179t-104 -136.5t-157 -79.5l328 -538h-204l-302 512q-15 -1 -44 -1h-332v-511h-177v1360h578zM901.5 696.5q63.5 34.5 99.5 95.5t36 140q0 76 -37 137.5t-101 96.5t-143 35h-394v-539h397q79 0 142.5 34.5z
M509 1703l148 -151l150 151h144l-237 -246h-114l-236 246h145z" />
    <glyph glyph-name="rcaron" unicode="&#x159;" horiz-adv-x="776" 
d="M331 1020v-228q38 107 119 167.5t191 60.5h99v-151h-90q-90 0 -161 -46.5t-111 -134.5t-40 -208v-480h-173v1020h166zM276 1398l148 -151l150 151h144l-237 -246h-114l-235 246h144z" />
    <glyph glyph-name="Sacute" unicode="&#x15a;" horiz-adv-x="1217" 
d="M313.5 31.5q-120.5 60.5 -179.5 157.5t-59 205h177q0 -73 43 -135t124 -99t189 -37q175 0 267.5 64t92.5 189q0 111 -92 166.5t-263 81.5q-140 23 -248 62.5t-181.5 118.5t-73.5 207q0 107 51.5 192t161.5 135.5t280 50.5q156 0 266.5 -49t167 -136t56.5 -202h-178
q0 68 -36.5 120.5t-107 81.5t-170.5 29q-170 0 -242 -63t-72 -160q0 -103 94 -157t287 -80q211 -34 345 -122t134 -276q0 -126 -64.5 -217.5t-186 -139.5t-287.5 -48q-175 0 -295.5 60.5zM748 1744l131 -45l-177 -238h-128z" />
    <glyph glyph-name="sacute" unicode="&#x15b;" horiz-adv-x="986" 
d="M272.5 19q-96.5 48 -145 126t-48.5 168l166 -1q1 -56 32 -102t90 -72.5t140 -26.5q114 0 174 44.5t60 123.5q0 55 -29.5 87.5t-83.5 50t-144 32.5q-165 24 -261 91.5t-96 209.5q0 85 41.5 153t123.5 107t200 39q116 0 205 -39t138 -109t49 -158h-169q-4 74 -63 118
t-160 44q-95 0 -145 -43t-50 -108q0 -49 22 -79t74 -50t149 -36q113 -18 192 -46t130.5 -89.5t51.5 -165.5q0 -102 -51.5 -173.5t-144 -107.5t-215.5 -36q-136 0 -232.5 48zM598 1432l131 -45l-165 -238h-120z" />
    <glyph glyph-name="Scircumflex" unicode="&#x15c;" horiz-adv-x="1217" 
d="M313.5 31.5q-120.5 60.5 -179.5 157.5t-59 205h177q0 -73 43 -135t124 -99t189 -37q175 0 267.5 64t92.5 189q0 111 -92 166.5t-263 81.5q-140 23 -248 62.5t-181.5 118.5t-73.5 207q0 107 51.5 192t161.5 135.5t280 50.5q156 0 266.5 -49t167 -136t56.5 -202h-178
q0 68 -36.5 120.5t-107 81.5t-170.5 29q-170 0 -242 -63t-72 -160q0 -103 94 -157t287 -80q211 -34 345 -122t134 -276q0 -126 -64.5 -217.5t-186 -139.5t-287.5 -48q-175 0 -295.5 60.5zM332 1487l235 246h114l237 -246l-144 -1l-150 151l-148 -151z" />
    <glyph glyph-name="scircumflex" unicode="&#x15d;" horiz-adv-x="986" 
d="M272.5 19q-96.5 48 -145 126t-48.5 168l166 -1q1 -56 32 -102t90 -72.5t140 -26.5q114 0 174 44.5t60 123.5q0 55 -29.5 87.5t-83.5 50t-144 32.5q-165 24 -261 91.5t-96 209.5q0 85 41.5 153t123.5 107t200 39q116 0 205 -39t138 -109t49 -158h-169q-4 74 -63 118
t-160 44q-95 0 -145 -43t-50 -108q0 -49 22 -79t74 -50t149 -36q113 -18 192 -46t130.5 -89.5t51.5 -165.5q0 -102 -51.5 -173.5t-144 -107.5t-215.5 -36q-136 0 -232.5 48zM194 1147l235 246h114l237 -246l-144 -1l-150 151l-148 -151z" />
    <glyph glyph-name="Scedilla" unicode="&#x15e;" horiz-adv-x="1217" 
d="M608 -29l-17 -43q56 -10 98.5 -46t42.5 -93q0 -52 -25.5 -89t-65.5 -55.5t-84 -18.5q-35 0 -70 11t-64 31l35 81q27 -15 48 -22t47 -7q27 0 53.5 18t26.5 56q0 42 -39.5 58.5t-91.5 17.5l31 104q-151 13 -254 75.5t-153.5 153.5t-50.5 191h177q0 -73 43 -135t124 -99
t189 -37q175 0 267.5 64t92.5 189q0 111 -92 166.5t-263 81.5q-140 23 -248 62.5t-181.5 118.5t-73.5 207q0 107 51.5 192t161.5 135.5t280 50.5q156 0 266.5 -49t167 -136t56.5 -202h-178q0 68 -36.5 120.5t-107 81.5t-170.5 29q-170 0 -242 -63t-72 -160q0 -103 94 -157
t287 -80q211 -34 345 -122t134 -276q0 -126 -64.5 -217.5t-186 -139.5t-287.5 -48h-1z" />
    <glyph glyph-name="scedilla" unicode="&#x15f;" horiz-adv-x="986" 
d="M487 -29l-22 -54q56 -10 98.5 -46t42.5 -93q0 -52 -25.5 -89t-65.5 -55.5t-84 -18.5q-35 0 -70 11t-64 31l35 81q27 -15 48 -22t47 -7q27 0 53.5 18t26.5 56q0 42 -39.5 58.5t-91.5 17.5l35 119q-107 15 -182 64.5t-112.5 120.5t-37.5 150l166 -1q1 -56 32 -102t90 -72.5
t140 -26.5q114 0 174 44.5t60 123.5q0 55 -29.5 87.5t-83.5 50t-144 32.5q-165 24 -261 91.5t-96 209.5q0 85 41.5 153t123.5 107t200 39q116 0 205 -39t138 -109t49 -158h-169q-4 74 -63 118t-160 44q-95 0 -145 -43t-50 -108q0 -49 22 -79t74 -50t149 -36q113 -18 192 -46
t130.5 -89.5t51.5 -165.5q0 -102 -51.5 -173.5t-144 -107.5t-215.5 -36h-18z" />
    <glyph glyph-name="Scaron" unicode="&#x160;" horiz-adv-x="1217" 
d="M313.5 31.5q-120.5 60.5 -179.5 157.5t-59 205h177q0 -73 43 -135t124 -99t189 -37q175 0 267.5 64t92.5 189q0 111 -92 166.5t-263 81.5q-140 23 -248 62.5t-181.5 118.5t-73.5 207q0 107 51.5 192t161.5 135.5t280 50.5q156 0 266.5 -49t167 -136t56.5 -202h-178
q0 68 -36.5 120.5t-107 81.5t-170.5 29q-170 0 -242 -63t-72 -160q0 -103 94 -157t287 -80q211 -34 345 -122t134 -276q0 -126 -64.5 -217.5t-186 -139.5t-287.5 -48q-175 0 -295.5 60.5zM479 1703l148 -151l150 151h144l-237 -246h-114l-236 246h145z" />
    <glyph glyph-name="scaron" unicode="&#x161;" horiz-adv-x="986" 
d="M272.5 19q-96.5 48 -145 126t-48.5 168l166 -1q1 -56 32 -102t90 -72.5t140 -26.5q114 0 174 44.5t60 123.5q0 55 -29.5 87.5t-83.5 50t-144 32.5q-165 24 -261 91.5t-96 209.5q0 85 41.5 153t123.5 107t200 39q116 0 205 -39t138 -109t49 -158h-169q-4 74 -63 118
t-160 44q-95 0 -145 -43t-50 -108q0 -49 22 -79t74 -50t149 -36q113 -18 192 -46t130.5 -89.5t51.5 -165.5q0 -102 -51.5 -173.5t-144 -107.5t-215.5 -36q-136 0 -232.5 48zM338 1398l148 -151l150 151h144l-237 -246h-114l-235 246h144z" />
    <glyph glyph-name="uni0162" unicode="&#x162;" horiz-adv-x="1137" 
d="M593 0l-29 -72q56 -10 98.5 -46t42.5 -93q0 -52 -25.5 -89t-65.5 -55.5t-84 -18.5q-35 0 -70 11t-64 31l35 81q27 -15 48 -22t47 -7q27 0 53.5 18t26.5 56q0 42 -39.5 58.5t-91.5 17.5l38 130h-34v1201h-430v159h1038v-159h-431v-1201h-63z" />
    <glyph glyph-name="uni0162" unicode="&#x163;" horiz-adv-x="1137" 
d="M593 0l-29 -72q56 -10 98.5 -46t42.5 -93q0 -52 -25.5 -89t-65.5 -55.5t-84 -18.5q-35 0 -70 11t-64 31l35 81q27 -15 48 -22t47 -7q27 0 53.5 18t26.5 56q0 42 -39.5 58.5t-91.5 17.5l38 130h-34v1201h-430v159h1038v-159h-431v-1201h-63z" />
    <glyph glyph-name="Tcaron" unicode="&#x164;" horiz-adv-x="1137" 
d="M479 1201h-430v159h1038v-159h-431v-1201h-177v1201zM418 1703l148 -151l150 151h144l-237 -246h-114l-236 246h145z" />
    <glyph glyph-name="tcaron" unicode="&#x165;" horiz-adv-x="804" 
d="M328 81q-90 81 -90 297v491h-227v151h227v303l172 1v-304h337v-151h-337v-499q0 -129 50.5 -176.5t132.5 -47.5h154v-146h-188q-141 0 -231 81zM661 1573h127l-17 -374h-96z" />
    <glyph glyph-name="Tbar" unicode="&#x166;" horiz-adv-x="1137" 
d="M1087 1201h-431v-403h229v-126h-229v-672h-177v672h-234v126h234v403h-430v159h1038v-159z" />
    <glyph glyph-name="tbar" unicode="&#x167;" horiz-adv-x="804" 
d="M410 869v-154h250v-119h-250v-226q0 -129 50.5 -176.5t132.5 -47.5h154v-146h-188q-141 0 -231 81t-90 297v218h-225v119h225v154h-227v151h227v303l172 1v-304h337v-151h-337z" />
    <glyph glyph-name="Utilde" unicode="&#x168;" horiz-adv-x="1444" 
d="M435.5 41q-128.5 69 -202.5 195t-74 291v834h176v-821q0 -112 46 -204t133.5 -146t207.5 -54q118 0 205.5 53.5t134 145t46.5 203.5v823h177v-834q0 -162 -72 -288t-200 -196.5t-291 -70.5q-158 0 -286.5 69zM820 1493q-35 0 -67 11t-72 31q-31 15 -49 22t-35 7
q-25 0 -46 -14.5t-39 -50.5l-63 51q25 59 63 90.5t88 31.5q16 0 34 -3q25 -4 46.5 -12.5t52.5 -22.5q32 -15 51 -22t38 -7q68 0 116 97l65 -51q-69 -158 -183 -158z" />
    <glyph glyph-name="utilde" unicode="&#x169;" horiz-adv-x="1203" 
d="M358.5 24.5q-104.5 53.5 -163 166t-58.5 284.5v545h171v-540q0 -170 76 -258.5t217 -88.5q142 0 217.5 88t75.5 259v540h172v-545q0 -171 -59 -284t-163 -166.5t-241 -53.5q-140 0 -244.5 53.5zM698 1153q-35 0 -67 11t-72 31q-31 15 -49 22t-35 7q-25 0 -46 -14.5
t-39 -50.5l-63 51q25 59 63 90.5t88 31.5q16 0 34 -3q25 -4 46.5 -12.5t52.5 -22.5q32 -15 51 -22t38 -7q68 0 116 97l65 -51q-69 -158 -183 -158z" />
    <glyph glyph-name="Umacron" unicode="&#x16a;" horiz-adv-x="1444" 
d="M435.5 41q-128.5 69 -202.5 195t-74 291v834h176v-821q0 -112 46 -204t133.5 -146t207.5 -54q118 0 205.5 53.5t134 145t46.5 203.5v823h177v-834q0 -162 -72 -288t-200 -196.5t-291 -70.5q-158 0 -286.5 69zM486 1626h481v-106h-481v106z" />
    <glyph glyph-name="umacron" unicode="&#x16b;" horiz-adv-x="1203" 
d="M358.5 24.5q-104.5 53.5 -163 166t-58.5 284.5v545h171v-540q0 -170 76 -258.5t217 -88.5q142 0 217.5 88t75.5 259v540h172v-545q0 -171 -59 -284t-163 -166.5t-241 -53.5q-140 0 -244.5 53.5zM330 1309h557v-107h-557v107z" />
    <glyph glyph-name="Ubreve" unicode="&#x16c;" horiz-adv-x="1444" 
d="M435.5 41q-128.5 69 -202.5 195t-74 291v834h176v-821q0 -112 46 -204t133.5 -146t207.5 -54q118 0 205.5 53.5t134 145t46.5 203.5v823h177v-834q0 -162 -72 -288t-200 -196.5t-291 -70.5q-158 0 -286.5 69zM448 1731h136q9 -45 24 -73t43 -43t76 -15t76 15t43 43t25 73
h135q-30 -237 -279 -237q-243 0 -279 237z" />
    <glyph glyph-name="ubreve" unicode="&#x16d;" horiz-adv-x="1203" 
d="M358.5 24.5q-104.5 53.5 -163 166t-58.5 284.5v545h171v-540q0 -170 76 -258.5t217 -88.5q142 0 217.5 88t75.5 259v540h172v-545q0 -171 -59 -284t-163 -166.5t-241 -53.5q-140 0 -244.5 53.5zM326 1391h136q9 -45 24 -73t43 -43t76 -15t76 15t43 43t25 73h135
q-30 -237 -279 -237q-243 0 -279 237z" />
    <glyph glyph-name="Uring" unicode="&#x16e;" horiz-adv-x="1444" 
d="M435.5 41q-128.5 69 -202.5 195t-74 291v834h176v-821q0 -112 46 -204t133.5 -146t207.5 -54q118 0 205.5 53.5t134 145t46.5 203.5v823h177v-834q0 -162 -72 -288t-200 -196.5t-291 -70.5q-158 0 -286.5 69zM639.5 1481q-39.5 20 -61.5 53.5t-22 73.5q0 42 22 76.5
t61.5 54.5t88.5 20q50 0 89.5 -20t61.5 -54.5t22 -76.5q0 -40 -22 -73.5t-61.5 -53.5t-89.5 -20q-49 0 -88.5 20zM782.5 1559.5q21.5 20.5 21.5 48.5q0 31 -21.5 52t-54.5 21q-31 0 -52.5 -21t-21.5 -52q0 -28 21.5 -48.5t52.5 -20.5q33 0 54.5 20.5z" />
    <glyph glyph-name="uring" unicode="&#x16f;" horiz-adv-x="1203" 
d="M358.5 24.5q-104.5 53.5 -163 166t-58.5 284.5v545h171v-540q0 -170 76 -258.5t217 -88.5q142 0 217.5 88t75.5 259v540h172v-545q0 -171 -59 -284t-163 -166.5t-241 -53.5q-140 0 -244.5 53.5zM520.5 1169q-39.5 20 -61.5 53.5t-22 73.5q0 42 22 76.5t61.5 54.5t88.5 20
q50 0 89.5 -20t61.5 -54.5t22 -76.5q0 -40 -22 -73.5t-61.5 -53.5t-89.5 -20q-49 0 -88.5 20zM663.5 1247.5q21.5 20.5 21.5 48.5q0 31 -21.5 52t-54.5 21q-31 0 -52.5 -21t-21.5 -52q0 -28 21.5 -48.5t52.5 -20.5q33 0 54.5 20.5z" />
    <glyph glyph-name="Uhungarumlaut" unicode="&#x170;" horiz-adv-x="1444" 
d="M435.5 41q-128.5 69 -202.5 195t-74 291v834h176v-821q0 -112 46 -204t133.5 -146t207.5 -54q118 0 205.5 53.5t134 145t46.5 203.5v823h177v-834q0 -162 -72 -288t-200 -196.5t-291 -70.5q-158 0 -286.5 69zM550 1492l112 259l142 -4l-148 -260zM846 1492l113 259
l141 -4l-148 -260z" />
    <glyph glyph-name="uhungarumlaut" unicode="&#x171;" horiz-adv-x="1203" 
d="M358.5 24.5q-104.5 53.5 -163 166t-58.5 284.5v545h171v-540q0 -170 76 -258.5t217 -88.5q142 0 217.5 88t75.5 259v540h172v-545q0 -171 -59 -284t-163 -166.5t-241 -53.5q-140 0 -244.5 53.5zM429 1152l112 259l142 -4l-148 -260zM725 1152l113 259l141 -4l-148 -260z
" />
    <glyph glyph-name="Uogonek" unicode="&#x172;" horiz-adv-x="1444" 
d="M1285 1361v-834q0 -155 -66.5 -277.5t-184.5 -194.5q-62 -50 -98.5 -96t-36.5 -93q0 -28 19.5 -44t53.5 -16q48 0 110 29l27 -84q-40 -27 -88 -44t-99 -17q-85 0 -129 40.5t-44 103.5q0 73 54 143q-45 -5 -81 -5q-158 0 -286.5 69t-202.5 195t-74 291v834h176v-821
q0 -112 46 -204t133.5 -146t207.5 -54q118 0 205.5 53.5t134 145t46.5 203.5v823h177z" />
    <glyph glyph-name="uogonek" unicode="&#x173;" horiz-adv-x="1203" 
d="M1066 1020v-545q0 -164 -54 -274t-153 -168q-67 -53 -107.5 -101.5t-40.5 -97.5q0 -28 19.5 -44t53.5 -16q48 0 110 29l27 -84q-40 -27 -88 -44t-99 -17q-85 0 -129 40.5t-44 103.5q0 88 80 170q-13 -1 -38 -1q-140 0 -244.5 53.5t-163 166t-58.5 284.5v545h171v-540
q0 -170 76 -258.5t217 -88.5q142 0 217.5 88t75.5 259v540h172z" />
    <glyph glyph-name="Wcircumflex" unicode="&#x174;" horiz-adv-x="2030" 
d="M20 1360h188l346 -1044l20 -80h4l16 82l327 1042h187l327 -1041l18 -83h3l21 88l345 1036h187l-462 -1360h-174l-358 1115l-359 -1115h-173zM704 1468l235 246h114l237 -246h-144l-150 151l-148 -151h-144z" />
    <glyph glyph-name="wcircumflex" unicode="&#x175;" horiz-adv-x="1555" 
d="M13 1020h185l242 -737l19 -61h2l20 60l232 738h132l225 -725l23 -73h3l27 76l237 722h182l-351 -1020h-162l-252 764h-1l-254 -764h-158zM494 1147l235 246h114l237 -246l-144 -1l-150 151l-148 -151z" />
    <glyph glyph-name="Ycircumflex" unicode="&#x176;" horiz-adv-x="1317" 
d="M570 521l-550 839h209l429 -680h1l427 680h210l-550 -838l1 -522h-177v521zM363 1468l235 246h114l237 -246h-144l-150 151l-148 -151h-144z" />
    <glyph glyph-name="ycircumflex" unicode="&#x177;" horiz-adv-x="1048" 
d="M220 -203q60 0 98 21.5t64 63.5t55 119l11 29l-405 990h183l289 -721l24 -90l26 89l287 721l183 1l-402 -992q-61 -151 -112.5 -229.5t-121 -112.5t-180.5 -34h-168v145h169zM219 1147l235 246h114l237 -246l-144 -1l-150 151l-148 -151z" />
    <glyph glyph-name="Ydieresis" unicode="&#x178;" horiz-adv-x="1317" 
d="M570 521l-550 839h209l429 -680h1l427 680h210l-550 -838l1 -522h-177v521zM421.5 1523q-26.5 24 -26.5 59q0 36 26.5 60t67.5 24q42 0 68.5 -24t26.5 -60q0 -35 -26.5 -59t-68.5 -24q-41 0 -67.5 24zM759 1523q-26 24 -26 59q0 36 26 60t67 24q42 0 68.5 -24t26.5 -60
q0 -35 -26.5 -59t-68.5 -24q-41 0 -67 24z" />
    <glyph glyph-name="Zacute" unicode="&#x179;" horiz-adv-x="1247" 
d="M74 136l836 1073h-793v151h1026v-133l-837 -1076h875v-151h-1105zM755 1744l131 -45l-177 -238h-128z" />
    <glyph glyph-name="zacute" unicode="&#x17a;" horiz-adv-x="967" 
d="M70 111l591 762h-562v147h795v-113l-588 -760h612v-147h-848v111zM587 1432l131 -45l-165 -238h-120z" />
    <glyph glyph-name="Zdotaccent" unicode="&#x17b;" horiz-adv-x="1247" 
d="M74 136l836 1073h-793v151h1026v-133l-837 -1076h875v-151h-1105zM568.5 1521q-26.5 24 -26.5 59q0 36 26.5 60.5t67.5 24.5q42 0 68.5 -24t26.5 -61q0 -34 -27 -58.5t-68 -24.5t-67.5 24z" />
    <glyph glyph-name="zdotaccent" unicode="&#x17c;" horiz-adv-x="967" 
d="M70 111l591 762h-562v147h795v-113l-588 -760h612v-147h-848v111zM410.5 1209q-26.5 24 -26.5 59q0 36 26.5 60.5t67.5 24.5q42 0 68.5 -24t26.5 -61q0 -34 -27 -58.5t-68 -24.5t-67.5 24z" />
    <glyph glyph-name="Zcaron" unicode="&#x17d;" horiz-adv-x="1247" 
d="M74 136l836 1073h-793v151h1026v-133l-837 -1076h875v-151h-1105zM486 1703l148 -151l150 151h144l-237 -246h-114l-236 246h145z" />
    <glyph glyph-name="zcaron" unicode="&#x17e;" horiz-adv-x="967" 
d="M70 111l591 762h-562v147h795v-113l-588 -760h612v-147h-848v111zM326 1398l148 -151l150 151h144l-237 -246h-114l-235 246h144z" />
    <glyph glyph-name="longs" unicode="&#x17f;" horiz-adv-x="696" 
d="M10 872v148h210v72q0 89 33 163.5t100.5 119.5t166.5 45h213v-145h-173q-52 0 -90 -26t-58 -71t-20 -100v-1078h-172v872h-210z" />
    <glyph glyph-name="uni018F" unicode="&#x18f;" horiz-adv-x="1547" 
d="M1128.5 1292q159.5 -95 252 -258t92.5 -358q0 -192 -92.5 -353.5t-252 -256.5t-350.5 -95q-190 0 -345.5 94t-244.5 253.5t-89 347.5q0 25 1.5 39.5t1.5 20.5h1191q-13 148 -87 262.5t-186.5 176.5t-238.5 62q-153 0 -273.5 -72.5t-174.5 -207.5h-185q43 129 136 229
t221 155.5t273 55.5q191 0 350.5 -95zM1017 195.5q111 58.5 184.5 162.5t90.5 236h-1016q6 -120 76 -225t184 -168.5t244 -63.5q126 0 237 58.5z" />
    <glyph glyph-name="florin" unicode="&#x192;" horiz-adv-x="780" 
d="M-177 -440q-20 8 -30 15l67 128q21 -12 66 -12q80 0 131 47.5t68 154.5l152 922h-175l18 144h176l9 55q26 160 84 264t181 134q56 14 111 14q39 0 73 -7q21 -3 39.5 -10t24.5 -12l-67 -127q-28 14 -72 14q-158 0 -192 -195l-23 -130h261l-19 -144h-261l-68 -418l-83 -506
q-15 -98 -59 -177.5t-117 -126t-169 -46.5q-43 0 -82 8q-24 3 -44 11z" />
    <glyph glyph-name="uni019D" unicode="&#x19d;" horiz-adv-x="1534" 
d="M1349 1360v-1360h-150l-837 1063v-1078q0 -169 -88.5 -263t-246.5 -94h-93v149h86q83 0 125 56t42 153v14h-2v1360h149l838 -1066h1v1066h176z" />
    </font>
</defs>
</svg>
