<svg width="715" height="296" viewBox="0 0 715 296" fill="none" xmlns="http://www.w3.org/2000/svg">
<g clip-path="url(#clip0_2:4)">
<path d="M310.945 218.08C290.904 269.79 278.356 273.743 274.1 275.165C267.138 277.475 271.04 246.911 281.593 231.807C286.426 224.876 292.012 218.08 296.801 215.769C304.826 211.905 311.166 215.592 312.319 215.992C312.009 214.392 318.97 210.394 315.911 208.262C314.004 206.929 306.245 201.953 297.333 202.531C293.83 202.753 277.868 199.777 265.498 235.05C260.044 250.554 259.823 280.229 273.745 281.029C284.519 281.651 311.743 248.599 321.231 220.39C318.527 217.413 315.911 217.102 313.162 214.259C312.674 216.303 311.832 215.903 310.945 218.08Z" fill="white"/>
<path d="M469.986 259.616C469.188 258.328 468.257 256.951 467.149 255.44L466.617 254.73L465.952 255.352C456.774 264.459 448.039 271.167 446.797 271.611C446.354 271.744 446.132 271.655 445.999 271.478C443.96 269.479 445.467 257.217 449.236 244.69C449.546 243.712 450.478 239.492 451.763 233.673C453.892 224.21 456.774 211.283 458.414 205.596L458.547 205.108L458.148 204.797C455.399 202.487 452.118 203.331 448.97 204.13C448.305 204.308 447.596 204.486 446.886 204.619L446.398 204.708L446.265 205.152C444.226 212.704 440.058 230.874 438.329 238.604C429.284 253.397 414.164 270.856 412.125 271.522C411.681 271.655 411.46 271.567 411.327 271.389C409.287 269.39 410.795 257.129 414.563 244.601C414.918 243.446 415.761 240.514 416.825 236.827C419.795 226.476 425.382 207.196 426.224 205.73L426.49 205.241L426.136 204.797C423.032 201.021 417.002 201.998 413.544 203.42L413.233 203.553C412.834 203.73 412.302 203.953 407.469 219.901C405.119 227.631 402.459 237.093 401.705 240.736C400.375 246.245 399.71 252.686 399.976 258.372C400.198 262.948 402.37 270.234 405.341 274.276C407.115 276.675 409.332 277.964 412.036 278.097C412.081 278.097 412.125 278.097 412.125 278.097C415.45 278.097 423.431 269.301 435.846 253.93C435.757 255.796 435.757 257.617 435.846 259.35C436.068 263.926 436.91 270.189 439.925 274.232C441.699 276.631 443.915 277.919 446.62 278.053C446.664 278.053 446.709 278.053 446.753 278.053C447.773 278.053 449.857 277.386 455.887 272.633C459.789 269.567 464.71 265.258 469.72 260.505L470.164 260.061L469.986 259.616Z" fill="white"/>
<path d="M271.173 233.584L270.331 236.027C270.287 236.116 266.961 245.578 261.685 255.085C254.812 267.48 247.807 274.41 241.422 275.121C240.802 275.209 240.181 274.943 239.56 274.41C236.102 271.344 235.392 259.572 235.215 244.468C234.993 226.076 243.284 204.441 243.373 204.219C243.373 204.219 241.422 201.687 238.053 200.798C233.663 199.643 230.338 198.977 230.338 198.977L230.072 200.043C229.761 201.243 223.022 228.475 221.47 241.091C212.469 255.085 198.902 270.678 196.951 271.433C196.552 271.567 196.419 271.433 196.33 271.389C194.601 269.701 195.532 258.373 199.611 244.823L200.276 242.602C209.853 210.838 212.425 203.242 212.868 202.398L213.223 201.82L212.78 201.287C209.676 197.511 204.799 196.001 200.986 197.6C200.454 197.822 199.966 198.044 194.291 217.546C191.63 226.653 188.438 238.159 187.684 241.847C187.152 243.979 186.753 246.289 186.443 248.599C186.265 248.999 186.044 249.354 185.866 249.754C182.718 255.885 164.673 285.294 155.362 287.515C154.386 287.737 153.588 287.648 152.967 287.16C145.696 281.873 150.263 266.191 151.061 264.503L151.46 263.881L150.883 263.304C150.75 263.17 148.046 260.549 145.917 259.483C145.607 259.305 145.075 259.217 144.366 259.705C141.794 261.482 135.986 272.1 136.917 281.607C137.493 287.87 140.996 292.579 146.937 295.156C148.356 295.778 149.864 296.044 151.371 296.044C163.209 296.044 177.132 278.364 186.398 264.192C186.93 267.835 187.995 271.7 190.078 274.543C191.852 276.986 194.158 278.275 196.907 278.452C196.951 278.452 196.995 278.452 197.04 278.452C200.498 278.452 208.346 269.79 221.337 253.752C221.692 257.306 222.401 260.816 223.421 263.97C226.081 272.366 230.87 278.364 237.21 281.251C238.23 281.695 239.25 281.917 240.358 281.917C246.078 281.917 253.083 275.698 261.241 263.392C268.291 252.775 273.745 241.18 273.789 241.091L273.967 240.692L271.173 233.584Z" fill="white"/>
<path d="M514.059 242.158C513.527 241.447 512.418 240.869 511.088 241.18C510.068 241.402 508.295 242.291 507.452 245.978C505.28 255.707 494.151 266.769 485.549 270.589C482.091 272.144 479.253 272.411 477.48 271.433C477.435 271.389 476.371 270.589 477.435 262.193C478.012 257.795 478.854 253.486 478.854 253.441L478.987 252.864L478.455 252.597C477.568 252.109 469.809 248.022 466.218 249.799C464.178 250.82 464.089 255.885 464.178 258.017C464.444 265.614 467.149 274.854 472.514 277.12C474.198 277.83 476.016 278.186 477.967 278.186C481.559 278.186 485.549 277.031 489.806 274.676C501.555 268.235 512.285 254.73 514.28 243.89C514.546 243.357 514.458 242.691 514.059 242.158Z" fill="white"/>
<path d="M515.034 228.83C511.975 243.757 502.309 246.867 498.407 246.867C492.687 246.867 493.131 236.16 494.816 227.231C498.185 209.284 503.861 204.974 509.935 205.818C515.477 206.618 514.325 214.437 514.325 214.437C515.921 214.437 524.345 213.371 524.434 210.838C524.478 208.884 524.345 200.532 514.236 198.844C509.359 198.044 489.628 198.799 483.376 227.275C480.76 239.092 486.303 249.132 494.993 249.132C504.482 249.132 514.369 246.556 519.468 228.43L515.034 228.83Z" fill="white"/>
<path d="M321.453 218.479C320.921 219.012 318.527 232.651 317.329 240.825C316.354 247.355 313.915 273.077 317.596 272.233C319.28 271.833 327.306 258.595 334.311 241.891C342.336 222.7 349.475 199.732 351.825 199.732C361.357 199.732 393.547 194.49 383.527 225.809C373.417 257.351 369.25 274.41 373.018 274.41C375.457 274.41 381.975 270.856 395.631 257.351C408.223 244.912 410.218 243.712 410.218 243.712C410.218 243.712 411.726 247.044 411.238 247.178C410.706 247.355 380.024 281.073 369.649 281.073C348.145 281.073 355.726 262.904 359.141 249.265C362.555 235.627 372.309 214.17 370.491 210.527C368.23 206.041 354.042 209.106 354.042 209.106C350.938 214.126 327.572 283.428 314.359 278.63C305.979 275.609 304.516 259.528 305.669 253.797C306.821 248.066 312.497 214.703 312.497 214.703L321.453 218.479Z" fill="white"/>
<path d="M131.286 51.7989L125.167 46.6012C123.926 45.5795 122.374 45.5795 121.93 46.6457C114.703 63.3937 74.2667 161.261 56.5314 192.802C42.9195 216.747 28.2879 236.205 23.4106 235.45C14.809 234.072 3.28104 198.488 5.05457 172.633C7.75921 132.696 24.5191 112.261 26.5587 113.105C28.5539 113.949 30.5048 130.119 25.0955 141.803C22.4795 147.489 32.5 148.6 32.5 148.6C40.6583 135.05 40.8799 133.229 40.3479 120.301C39.7715 105.641 34.1405 102.265 31.5689 101.865C25.5832 100.843 1.46316 133.495 0.0886765 173.211C-0.133015 178.942 -1.19713 230.741 18.3561 240.203C35.2046 248.377 52.1862 233.717 71.6507 189.914C89.6078 149 126.32 67.303 132.261 54.5532C132.616 53.7536 132.217 52.5985 131.286 51.7989Z" fill="white"/>
<path d="M123.172 25.0554C123.394 24.3002 124.236 23.9448 125.211 24.2113C128.537 25.0998 140.198 27.6764 139.4 28.7426C138.38 30.1198 137.316 55.7971 137.671 107.863C137.848 159.928 140.907 170.323 143.479 170.323C153.056 170.323 177.22 142.469 181.166 124.966C181.61 123.056 183.516 119.857 183.871 122.078L186.088 129.631C186.132 129.986 186.132 130.297 185.999 130.563C185.999 130.563 156.115 184.539 137.848 184.539C126.098 184.539 120.689 130.963 123.216 96.4455C125.256 66.0591 121.177 31.2748 123.172 25.0554Z" fill="white"/>
<path d="M178.772 132.651L208.878 129.808C210.385 129.631 211.937 132.163 211.272 133.718L209.898 136.827C209.72 137.227 209.41 137.494 209.011 137.538L178.329 140.692C176.733 140.87 175.136 138.116 175.979 136.65L177.93 133.229C178.107 132.873 178.417 132.651 178.772 132.651Z" fill="white"/>
<path d="M296.091 107.507C297.156 108.262 297.688 109.506 297.377 110.395C296.712 112.172 292.323 116.081 289.662 124.788C285.095 139.715 284.563 154.641 287.756 156.107C294.185 158.995 309.171 140.515 314.093 118.436C319.724 93.3358 316.088 75.7437 293.741 76.4989C269.488 77.2985 248.117 84.0955 238.629 86.7609C224.662 90.7147 209.321 88.0048 209.321 80.4082C209.321 80.4082 236.589 46.6901 268.646 30.6529C309.703 10.0843 347.568 10.884 351.869 15.1932C366.19 29.5422 357.145 47.2676 348.056 56.3746C343.533 60.9059 330.454 70.1462 328.192 71.6122C325.931 73.0782 314.403 65.7482 318.305 63.3493C322.827 60.5949 336.528 50.866 342.913 41.4036C350.672 29.8976 351.027 20.3464 344.997 19.5467C338.967 18.7471 293.564 18.6583 262.971 40.1153C232.289 61.5723 217.967 78.809 217.967 78.809C216.903 86.2278 260.089 74.2777 267.892 72.8561C287.756 69.1244 306.866 68.0138 315.822 77.032C324.823 86.0057 334.178 103.509 324.601 131.052C314.935 158.595 298.84 173.3 288.51 168.413C278.223 163.482 268.602 140.159 272.814 123.411C276.982 106.663 284.652 103.909 287.667 103.909C289.707 103.775 294.052 105.997 296.091 107.507Z" fill="white"/>
<path d="M353.199 117.28C353.199 117.28 350.229 111.772 347.701 112.749C345.174 113.727 338.346 118.258 335.331 128.298C332.316 138.293 336.129 160.861 342.602 165.392C347.879 169.079 354.707 172.278 358.697 171.523C362.732 170.768 383.571 162.327 386.808 131.008C390.044 99.6884 369.427 94.0021 364.86 93.3801C361.889 92.9359 355.505 93.1136 353.377 95.0683C350.007 98.178 348.721 109.551 363.087 109.684C373.817 109.773 403.035 90.7591 403.035 90.7591V84.5841C403.035 84.5841 371.156 107.063 365.392 106.574C354.884 105.641 356.436 96.9785 356.436 96.9785C356.436 96.9785 358.298 95.0683 364.505 96.4899C370.402 97.8226 375.856 113.949 371.245 132.029C366.634 150.11 354.618 165.392 346.593 162.105C338.612 158.862 341.937 135.983 344.553 130.386C347.879 123.189 353.199 117.28 353.199 117.28Z" fill="white"/>
<path d="M223.332 118.169C223.332 118.169 221.115 112.438 218.544 113.06C215.972 113.682 208.745 117.281 204.577 126.61C200.409 135.983 201.252 158.418 207.016 163.615C211.716 167.88 217.923 171.834 221.913 171.612C225.904 171.389 247.275 165.792 254.325 135.717C261.374 105.641 242.043 97.5561 237.698 96.3566C234.86 95.557 228.653 94.935 226.303 96.5787C222.623 99.1998 215.13 131.185 229.096 133.096C239.516 134.562 285.495 122.789 285.495 122.789L282.568 119.057C282.568 119.057 237.299 131.541 231.756 130.341C221.647 128.12 229.052 98.7999 229.052 98.7999C229.052 98.7999 231.091 97.2007 236.944 99.333C242.531 101.377 245.812 117.725 239.072 134.739C232.333 151.754 218.721 165.081 211.317 160.905C203.956 156.729 210.031 134.917 213.312 129.764C217.435 123.233 223.332 118.169 223.332 118.169Z" fill="white"/>
<path d="M427.732 106.53C418.155 105.197 411.282 109.151 407.248 112.616C407.292 105.997 407.514 98.4445 408.046 89.8262C416.825 82.2741 433.54 66.6367 441.299 50.6883C448.128 36.6946 446.31 19.8577 441.743 10.1732C439.171 4.70899 435.668 1.15504 431.944 0.266548C429.505 -0.31097 427.111 0.177699 424.806 1.77698C411.46 11.0617 404.632 56.2413 402.326 75.2106C401.838 79.2532 401.173 83.6512 400.464 88.2269C400.02 88.5823 399.754 88.76 399.71 88.76L399.222 89.1154L400.02 91.1145C399.843 92.2696 399.666 93.469 399.444 94.624C397.005 110.084 394.257 127.631 394.567 141.625C394.922 157.973 399.444 167.169 408.4 169.612C410.307 170.146 412.169 170.412 413.987 170.412C417.8 170.412 421.436 169.257 424.894 166.991C432.033 162.282 436.91 153.486 439.703 146.956C443.117 139.048 444.98 131.319 445.556 127.098C447.374 113.682 434.338 107.418 427.732 106.53ZM428.53 47.8451C423.786 62.905 415.229 74.0111 408.622 80.808C408.844 78.0093 409.066 75.0773 409.332 72.0564C413.366 26.3437 421.569 13.5495 426.136 9.9955C427.643 8.84046 428.707 8.66277 429.239 8.66277C429.372 8.66277 429.461 8.66277 429.505 8.66277C429.55 8.66277 429.727 8.75161 429.904 9.10701C432.476 13.2829 432.742 34.3845 428.53 47.8451ZM418.776 115.326C421.303 113.282 424.008 112.483 426.756 112.927C427.466 113.016 428.308 113.727 429.106 114.882C432.653 119.902 433.053 128.52 431.944 134.384C429.86 145.49 424.185 156.952 419.574 159.439C418.643 159.972 417.8 160.061 417.046 159.75C414.918 158.862 410.041 154.553 408.046 134.073C409.199 130.119 412.746 120.124 418.776 115.326Z" fill="white"/>
<path d="M649.512 135.05C646.01 150.777 622.776 169.213 614.263 164.459C611.426 162.86 615.416 143.136 615.416 143.136C615.416 143.136 606.149 138.116 602.425 139.981C598.701 141.847 600.43 165.437 609.475 169.257C625.481 176.01 652.217 150.865 655.542 132.163C656.473 130.43 651.153 127.676 649.512 135.05Z" fill="white"/>
<path d="M710.965 116.525C699.083 136.516 667.425 162.327 664.011 163.482C657.538 165.659 660.375 144.024 666.006 125.499C666.982 122.256 670.44 109.906 673.721 98.4446C669.731 95.1571 664.853 93.0692 659.666 92.8471C656.607 104.353 653.37 117.325 652.35 122.167C647.739 141.048 648.936 169.524 663.701 170.368C669.819 170.723 704.403 138.427 715 125.366C713.936 122.922 713.404 121.234 710.965 116.525Z" fill="white"/>
<path d="M658.247 116.037C655.055 131.63 644.99 134.828 640.911 134.828C634.925 134.828 634.925 123.633 636.654 114.304C640.201 95.557 646.63 91.0701 652.926 91.9586C658.69 92.8027 657.493 100.932 657.493 100.932C659.178 100.932 667.957 99.8217 668.046 97.2007C668.134 95.1572 667.957 86.45 657.36 84.7174C652.261 83.8734 631.688 84.673 625.126 114.349C622.422 126.699 628.186 137.138 637.275 137.138C647.162 137.138 657.493 134.428 662.814 115.504L658.247 116.037Z" fill="white"/>
<path d="M571.521 227.187C559.638 247.178 527.981 272.988 524.567 274.143C518.093 276.32 520.931 254.685 526.562 236.16C527.537 232.917 530.996 220.567 534.277 209.106C530.286 205.818 525.409 203.73 520.222 203.508C517.162 215.014 513.926 227.986 512.906 232.828C508.295 251.709 509.492 280.185 524.256 281.029C530.375 281.384 564.959 249.088 575.556 236.027C574.536 233.584 573.96 231.896 571.521 227.187Z" fill="white"/>
<path d="M419.574 136.028C412.701 136.827 406.05 132.563 402.37 129.63C400.863 128.431 398.247 125.943 397.671 127.054L397.36 127.676C396.961 128.431 397.405 129.542 398.424 130.297C401.794 132.829 409.465 137.982 416.958 138.738C422.278 139.271 445.024 134.029 465.065 128.964C464.976 126.388 464.799 123.855 464.311 121.323C446.044 127.942 425.072 135.406 419.574 136.028Z" fill="white"/>
<path d="M602.735 141.714C597.681 151.843 592.715 159.661 588.68 159.661C586.862 159.661 582.517 150.688 584.956 128.564C586.419 115.37 590.188 99.5552 590.232 98.0892C585.975 96.6232 580.877 95.0239 575.866 94.6241C571.61 109.551 570.102 118.524 570.413 134.162C570.901 155.441 576.088 170.368 582.739 170.368C590.72 170.368 597.326 161.35 606.992 145.623C605.573 144.379 604.065 143.136 602.735 141.714Z" fill="white"/>
<path d="M574.98 106.752C556.357 154.73 544.741 158.418 540.75 159.75C534.277 161.927 537.913 133.54 547.711 119.502C552.19 113.105 557.377 106.752 561.855 104.62C569.304 101.021 575.201 104.486 576.265 104.842C575.955 103.331 582.428 99.644 579.591 97.6893C577.817 96.4455 570.59 91.8697 562.343 92.4028C559.062 92.625 544.297 89.8262 532.814 122.611C527.759 137.005 527.537 164.548 540.484 165.303C550.505 165.881 575.733 135.228 584.557 109.018C582.029 106.263 579.635 105.997 577.063 103.331C576.576 105.153 575.778 104.708 574.98 106.752Z" fill="white"/>
<path d="M176.245 92.7138C176.334 91.6476 177.353 91.1145 178.639 91.6032C182.319 93.0248 189.147 95.6458 189.192 95.6902C189.236 95.7346 187.285 161.35 185.157 160.328C183.561 159.573 176.999 158.462 173.851 156.685C172.786 156.107 172.077 154.997 172.166 154.064L176.245 92.7138Z" fill="white"/>
<path d="M537.957 116.792C527.981 135.761 513.926 156.152 507.63 156.152C505.812 156.152 501.733 150.732 504.171 128.609C505.634 115.415 509.181 91.692 509.181 90.226C504.925 88.76 499.826 87.1607 494.816 86.7609C492.51 94.8017 491.091 103.376 490.338 112.038C486.791 113.238 480.849 115.37 473.844 117.902C474.11 110.35 474.287 105.019 474.243 105.019C474.243 104.975 467.37 102.354 463.69 100.932C462.449 100.444 461.385 100.932 461.296 102.043L457.173 163.393C457.128 164.326 457.838 165.437 458.857 166.014C462.005 167.791 468.612 168.902 470.164 169.657C471.45 170.279 472.691 145.845 473.445 126.832C479.696 125.232 485.327 123.722 489.628 122.611C489.495 126.521 489.495 130.386 489.584 134.206C490.072 155.486 495.259 170.412 501.91 170.412C512.906 170.412 529.311 143.891 540.617 122.7C539.775 120.701 538.844 118.747 537.957 116.792Z" fill="white"/>
</g>
<defs>
<clipPath id="clip0_2:4">
<rect width="715" height="296" fill="white"/>
</clipPath>
</defs>
</svg>
